<svg width="48" height="31" viewBox="0 0 48 31" fill="none" xmlns="http://www.w3.org/2000/svg">
<path d="M39.0625 12.2184C38.3406 12.2184 37.6386 12.305 36.9658 12.4674L33.4113 3.93654L36.4948 2.90876C37.2316 2.66313 37.6297 1.86672 37.3841 1.12994C37.1385 0.393255 36.3426 -0.0052758 35.6053 0.24063L30.9905 1.78291C30.2736 2.08169 29.9346 2.90491 30.2332 3.62182L31.1168 5.74235L18.7913 8.94691L17.5252 5.99341H19.4813C20.2579 5.99341 20.8875 5.36379 20.8875 4.58716C20.8875 3.81054 20.2579 3.18091 19.4813 3.18091H13.4562C12.6796 3.18091 12.05 3.81054 12.05 4.58716C12.05 5.36379 12.6796 5.99341 13.4562 5.99341H14.4653L16.3376 10.3616L13.6121 13.5414C12.2513 12.7029 10.65 12.2184 8.93756 12.2184C4.00941 12.2184 0 16.2277 0 21.1559C0 26.084 4.00941 30.0933 8.93747 30.0933C13.3872 30.0933 17.0874 26.8245 17.7639 22.5621H22.4936C22.7151 22.5621 22.9335 22.5098 23.131 22.4094C23.3284 22.309 23.4994 22.1633 23.6299 21.9843L32.7008 9.54419L34.3706 13.552C31.8246 15.1287 30.1248 17.9473 30.1248 21.1558C30.1248 26.0839 34.1341 30.0933 39.0622 30.0933C43.9904 30.0933 48 26.084 48 21.1559C48 16.2277 43.9906 12.2184 39.0625 12.2184ZM8.93747 27.2809C5.56022 27.2809 2.8125 24.5332 2.8125 21.1559C2.8125 17.7785 5.56022 15.0309 8.93747 15.0309C9.91571 15.0302 10.8797 15.2654 11.7477 15.7165L7.86975 20.2408C7.69468 20.445 7.58184 20.6951 7.54462 20.9615C7.50739 21.2278 7.54734 21.4993 7.65973 21.7436C7.77212 21.988 7.95223 22.195 8.1787 22.3401C8.40517 22.4852 8.66851 22.5623 8.93747 22.5622H14.8976C14.2603 25.2636 11.8309 27.2809 8.93747 27.2809ZM11.995 19.7496L17.5724 13.2426L20.3611 19.7496H11.995ZM22.813 18.3311L19.9118 11.5615L29.5826 9.04704L22.813 18.3311ZM39.0625 27.2809C35.6852 27.2809 32.9376 24.5332 32.9376 21.156C32.9376 19.1187 33.9383 17.3117 35.473 16.1975L37.7644 21.6968C38.0631 22.4137 38.8865 22.7527 39.6033 22.454C40.3202 22.1553 40.6592 21.332 40.3605 20.6151L38.0679 15.1129C38.3967 15.0586 38.7293 15.0312 39.0624 15.0309C42.4398 15.0309 45.1874 17.7786 45.1874 21.1559C45.1874 24.5331 42.4398 27.2809 39.0625 27.2809Z" fill="#9BA8AF"/>
</svg>
