<svg width="36" height="40" viewBox="0 0 36 40" fill="none" xmlns="http://www.w3.org/2000/svg">
<path d="M8.5 10C8.5 4.762 12.762 0.5 18 0.5C23.238 0.5 27.5 4.762 27.5 10C27.5 15.238 23.238 19.5 18 19.5C12.762 19.5 8.5 15.238 8.5 10ZM24 22.5H12C5.66 22.5 0.5 27.66 0.5 34C0.501059 35.4584 1.08086 36.8567 2.11208 37.8879C3.1433 38.9191 4.54163 39.4989 6 39.5H30C31.4584 39.4989 32.8567 38.9191 33.8879 37.8879C34.9191 36.8567 35.4989 35.4584 35.5 34C35.5 27.66 30.34 22.5 24 22.5Z" fill="#9BA8AF"/>
</svg>
