<svg width="21" height="24" viewBox="0 0 21 24" fill="none" xmlns="http://www.w3.org/2000/svg">
<path d="M16.8649 12.6808C16.8424 11.7481 17.0812 10.8277 17.5542 10.0235C18.0273 9.21935 18.7157 8.56347 19.5419 8.12995C19.0217 7.40765 18.3411 6.81584 17.5535 6.40104C16.766 5.98625 15.8929 5.75977 15.0031 5.73942C13.1011 5.58951 11.0211 6.84902 10.2608 6.84902C9.45772 6.84902 7.61329 5.79296 6.16639 5.79296C3.1789 5.84783 0 8.18482 0 12.9378C0.0140217 14.4211 0.275029 15.8917 0.772305 17.2892C1.45761 19.2568 3.9338 24.0793 6.51708 23.999C7.86761 23.9669 8.82195 23.0393 10.5794 23.0393C12.2833 23.0393 13.168 23.999 14.6738 23.999C17.2785 23.9615 19.5191 19.582 20.1723 17.6051C19.1938 17.206 18.3566 16.5241 17.7677 15.6467C17.1788 14.7693 16.8649 13.7362 16.8662 12.6795L16.8649 12.6808ZM13.8319 3.8816C14.3052 3.36014 14.6642 2.74539 14.8857 2.07689C15.1072 1.40839 15.1864 0.700934 15.1182 0C13.7144 0.150893 12.4171 0.818885 11.4788 1.87388C10.9992 2.38679 10.63 2.99279 10.3942 3.65429C10.1585 4.31578 10.0611 5.01867 10.1082 5.71934C10.8311 5.73469 11.547 5.5757 12.1954 5.25581C12.8438 4.93593 13.4056 4.46456 13.8332 3.8816H13.8319Z" fill="black"/>
</svg>
