<svg width="44" height="40" viewBox="0 0 44 40" fill="none" xmlns="http://www.w3.org/2000/svg">
<path d="M26 0.324555C25.3705 0.534393 24.8765 1.02837 24.6667 1.65789C24.2339 2.95611 24.2339 4.35967 24.6667 5.65789C24.8765 6.2874 25.3705 6.78138 26 6.99122C27.2982 7.42396 28.7018 7.42396 30 6.99122C30.6295 6.78138 31.1235 6.2874 31.3333 5.65789C31.7661 4.35967 31.7661 2.95611 31.3333 1.65789C31.1235 1.02837 30.6295 0.534394 30 0.324555C28.7018 -0.108185 27.2982 -0.108185 26 0.324555Z" fill="#9BA8AF"/>
<path d="M25.9999 15.4579L24.3999 13.8579L19.5999 18.6579L21.781 20.9382C22.8767 22.0836 23.4245 22.6563 23.7122 23.3733C23.9999 24.0903 23.9999 24.8829 23.9999 26.4679V35.1726C23.9999 35.4833 23.8765 35.7813 23.6568 36.001C22.7417 36.9161 21.2581 36.9161 20.343 36.001C20.1233 35.7813 19.9999 35.4833 19.9999 35.1726V27.473C19.9999 26.5796 19.9999 26.1329 19.8212 25.739C19.6424 25.3451 19.3063 25.051 18.634 24.4627L13.5999 20.0579C12.7999 19.4579 12.3999 18.4579 12.3999 17.2579C12.3999 16.2579 12.7999 15.2579 13.5999 14.4579L19.1999 8.85789C19.7999 8.05789 20.7999 7.65789 21.9999 7.65789C23.1999 7.65789 24.1999 8.05789 25.1999 8.85789L28.9999 12.6579C30.7017 14.3597 32.9399 15.5252 35.7145 15.6473C36.0249 15.6609 36.3233 15.7813 36.543 16.001C37.4581 16.9161 37.4581 18.3997 36.543 19.3147C36.3233 19.5345 36.0249 19.6599 35.7143 19.6507C31.7371 19.5321 28.4989 17.9569 25.9999 15.4579Z" fill="#9BA8AF"/>
<path fill-rule="evenodd" clip-rule="evenodd" d="M26.0385 28.8738C26 29.2649 26 29.7292 26 30.6579C26 31.5866 26 32.0509 26.0385 32.442C26.4126 36.2402 29.4176 39.2453 33.2159 39.6194C33.607 39.6579 34.0713 39.6579 35 39.6579C35.9287 39.6579 36.393 39.6579 36.7841 39.6194C40.5824 39.2453 43.5874 36.2402 43.9615 32.442C44 32.0509 44 31.5866 44 30.6579C44 29.7292 44 29.2649 43.9615 28.8738C43.5874 25.0755 40.5824 22.0705 36.7841 21.6964C36.393 21.6579 35.9287 21.6579 35 21.6579C34.0713 21.6579 33.607 21.6579 33.2159 21.6964C29.4176 22.0705 26.4126 25.0755 26.0385 28.8738ZM33.6079 35.6386C33.7542 35.653 33.9761 35.6579 35 35.6579C36.0239 35.6579 36.2458 35.653 36.3921 35.6386C38.2912 35.4516 39.7937 33.9491 39.9807 32.05C39.9951 31.9037 40 31.6817 40 30.6579C40 29.634 39.9951 29.4121 39.9807 29.2658C39.7937 27.3667 38.2912 25.8642 36.3921 25.6771C36.2458 25.6627 36.0239 25.6579 35 25.6579C33.9761 25.6579 33.7542 25.6627 33.6079 25.6771C31.7088 25.8642 30.2063 27.3667 30.0193 29.2658C30.0049 29.4121 30 29.634 30 30.6579C30 31.6817 30.0049 31.9037 30.0193 32.05C30.2063 33.9491 31.7088 35.4516 33.6079 35.6386Z" fill="#9BA8AF"/>
<path fill-rule="evenodd" clip-rule="evenodd" d="M0 30.6579C0 29.7292 0 29.2649 0.0385222 28.8738C0.412614 25.0755 3.41765 22.0705 7.21586 21.6964C7.60699 21.6579 8.07132 21.6579 9 21.6579C9.92868 21.6579 10.393 21.6579 10.7841 21.6964C14.5824 22.0705 17.5874 25.0755 17.9615 28.8738C18 29.2649 18 29.7292 18 30.6579C18 31.5866 18 32.0509 17.9615 32.442C17.5874 36.2402 14.5824 39.2453 10.7841 39.6194C10.393 39.6579 9.92868 39.6579 9 39.6579C8.07132 39.6579 7.60699 39.6579 7.21586 39.6194C3.41765 39.2453 0.412614 36.2402 0.0385222 32.442C0 32.0509 0 31.5866 0 30.6579ZM9 35.6579C7.97614 35.6579 7.7542 35.653 7.60793 35.6386C5.70882 35.4516 4.20631 33.9491 4.01926 32.05C4.00486 31.9037 4 31.6817 4 30.6579C4 29.634 4.00486 29.4121 4.01926 29.2658C4.20631 27.3667 5.70882 25.8642 7.60793 25.6771C7.7542 25.6627 7.97614 25.6579 9 25.6579C10.0239 25.6579 10.2458 25.6627 10.3921 25.6771C12.2912 25.8642 13.7937 27.3667 13.9807 29.2658C13.9951 29.4121 14 29.634 14 30.6579C14 31.6817 13.9951 31.9037 13.9807 32.05C13.7937 33.9491 12.2912 35.4516 10.3921 35.6386C10.2458 35.653 10.0239 35.6579 9 35.6579Z" fill="#9BA8AF"/>
</svg>
