<svg width="24" height="25" viewBox="0 0 24 25" fill="none" xmlns="http://www.w3.org/2000/svg">
<path d="M6.18995 22.3872C6.07783 22.4679 5.94562 22.516 5.80788 22.5263C5.67015 22.5366 5.53224 22.5087 5.40937 22.4456C5.2865 22.3825 5.18344 22.2867 5.11155 22.1688C5.03966 22.0508 5.00174 21.9153 5.00195 21.7772V6.7832C5.00195 5.92125 5.34436 5.0946 5.95386 4.48511C6.56335 3.87561 7.39 3.5332 8.25195 3.5332H15.751C16.6126 3.53347 17.4388 3.87586 18.0481 4.48511C18.6573 5.09435 18.9997 5.9206 19 6.7822V21.7782C19 21.9162 18.9619 22.0516 18.89 22.1694C18.818 22.2872 18.7149 22.3828 18.5921 22.4458C18.4693 22.5088 18.3314 22.5366 18.1938 22.5263C18.0561 22.5159 17.924 22.4678 17.812 22.3872L12.001 18.2062L6.18895 22.3862L6.18995 22.3872ZM17.5 6.7822C17.5 6.31807 17.3156 5.87296 16.9874 5.54477C16.6592 5.21658 16.2141 5.0322 15.75 5.0322H8.25295C7.78883 5.0322 7.34371 5.21658 7.01552 5.54477C6.68733 5.87296 6.50295 6.31807 6.50295 6.7822V20.3142L11.565 16.6742C11.6926 16.5824 11.8458 16.533 12.003 16.533C12.1601 16.533 12.3134 16.5824 12.441 16.6742L17.501 20.3142V6.7832L17.5 6.7822Z" fill="#72848D"/>
</svg>
