<svg width="40" height="40" viewBox="0 0 40 40" fill="none" xmlns="http://www.w3.org/2000/svg">
<path d="M33.75 11.25H29.1406C28.9062 11.25 28.6156 11.0984 28.3891 10.8594L26.3625 7.66094C26.3305 7.61018 26.2947 7.56187 26.2555 7.51641C25.5555 6.7 24.6094 6.25 23.5938 6.25H16.4062C15.3906 6.25 14.4445 6.7 13.7445 7.51641C13.7053 7.56187 13.6695 7.61018 13.6375 7.66094L11.6109 10.8641C11.4375 11.0531 11.1938 11.2547 10.9375 11.2547V10.6297C10.9375 10.2982 10.8058 9.98022 10.5714 9.7458C10.337 9.51138 10.019 9.37969 9.6875 9.37969H7.8125C7.48098 9.37969 7.16304 9.51138 6.92862 9.7458C6.6942 9.98022 6.5625 10.2982 6.5625 10.6297V11.2547H6.25C5.25576 11.2557 4.30253 11.6511 3.59949 12.3542C2.89645 13.0572 2.50103 14.0104 2.5 15.0047V30C2.50103 30.9942 2.89645 31.9475 3.59949 32.6505C4.30253 33.3535 5.25576 33.749 6.25 33.75H33.75C34.7442 33.749 35.6975 33.3535 36.4005 32.6505C37.1035 31.9475 37.499 30.9942 37.5 30V15C37.499 14.0058 37.1035 13.0525 36.4005 12.3495C35.6975 11.6465 34.7442 11.251 33.75 11.25ZM24.7531 27.0547C23.7318 27.8898 22.5083 28.441 21.2061 28.6526C19.9038 28.8642 18.5688 28.7287 17.3356 28.2598C16.1024 27.791 15.0146 27.0053 14.1818 25.982C13.349 24.9587 12.8007 23.734 12.5922 22.4312C12.3253 22.5218 12.0356 22.5195 11.7702 22.4248C11.5048 22.33 11.2792 22.1483 11.13 21.9092C10.9808 21.6701 10.9168 21.3876 10.9484 21.1075C10.98 20.8275 11.1052 20.5663 11.3039 20.3664L12.8664 18.8039C13.1008 18.5697 13.4186 18.4381 13.75 18.4381C14.0814 18.4381 14.3992 18.5697 14.6336 18.8039L16.1961 20.3664C16.3708 20.5412 16.4898 20.7639 16.5379 21.0063C16.5861 21.2487 16.5614 21.4999 16.4668 21.7283C16.3722 21.9566 16.2121 22.1518 16.0067 22.2892C15.8012 22.4265 15.5596 22.4999 15.3125 22.5C15.2602 22.4994 15.2081 22.4957 15.1562 22.4891C15.3654 23.3037 15.7765 24.0526 16.3515 24.6664C16.9265 25.2802 17.6469 25.7393 18.4462 26.0011C19.2455 26.2629 20.0979 26.3191 20.9247 26.1645C21.7515 26.0099 22.5259 25.6494 23.1766 25.1164C23.3037 25.0119 23.4503 24.9335 23.6078 24.8858C23.7654 24.838 23.9308 24.8219 24.0946 24.8383C24.2584 24.8546 24.4174 24.9032 24.5623 24.9812C24.7073 25.0591 24.8355 25.165 24.9394 25.2926C25.0434 25.4202 25.1211 25.5672 25.1682 25.7249C25.2152 25.8827 25.2306 26.0481 25.2135 26.2119C25.1964 26.3756 25.1472 26.5343 25.0686 26.679C24.99 26.8236 24.8836 26.9513 24.7555 27.0547H24.7531ZM28.6961 22.1328L27.1336 23.6953C26.8992 23.9296 26.5814 24.0611 26.25 24.0611C25.9186 24.0611 25.6008 23.9296 25.3664 23.6953L23.8039 22.1328C23.6212 21.9495 23.4998 21.7141 23.4566 21.4589C23.4134 21.2037 23.4505 20.9414 23.5627 20.7082C23.675 20.475 23.8568 20.2823 24.0832 20.1569C24.3096 20.0314 24.5693 19.9793 24.8266 20.0078C24.6177 19.1917 24.2061 18.4416 23.6298 17.8272C23.0536 17.2127 22.3315 16.7538 21.5305 16.493C20.7294 16.2323 19.8755 16.1781 19.048 16.3356C18.2205 16.493 17.4461 16.857 16.7969 17.3938C16.6713 17.5048 16.5247 17.5895 16.3658 17.6428C16.2068 17.6961 16.0388 17.7168 15.8717 17.7038C15.7046 17.6908 15.5418 17.6444 15.393 17.5672C15.2442 17.49 15.1124 17.3837 15.0055 17.2545C14.8987 17.1254 14.8189 16.976 14.7709 16.8154C14.7229 16.6548 14.7077 16.4862 14.7262 16.3196C14.7447 16.153 14.7965 15.9918 14.8786 15.8456C14.9607 15.6995 15.0713 15.5713 15.2039 15.4688C16.2237 14.6255 17.4484 14.067 18.7538 13.8501C20.0592 13.6332 21.3987 13.7655 22.6364 14.2336C23.8742 14.7017 24.966 15.489 25.8011 16.5154C26.6362 17.5419 27.1849 18.7711 27.3914 20.0781C27.6584 19.983 27.9498 19.9814 28.2179 20.0736C28.4859 20.1659 28.7146 20.3465 28.8665 20.5859C29.0184 20.8252 29.0844 21.1091 29.0537 21.3909C29.023 21.6727 28.8975 21.9357 28.6977 22.1367L28.6961 22.1328Z" fill="white"/>
</svg>
