<svg width="40" height="40" viewBox="0 0 40 40" fill="none" xmlns="http://www.w3.org/2000/svg">
<path fill-rule="evenodd" clip-rule="evenodd" d="M18.2107 0.0112152C19.1447 0.110165 19.884 0.845723 19.9878 1.77922L23.1721 30.4384L26.1001 23.8504C26.5789 22.773 27.0003 21.8247 27.4348 21.0741C27.9052 20.2615 28.4754 19.5245 29.33 18.9691C30.1846 18.4137 31.0896 18.192 32.0233 18.0922C32.8856 18 33.9233 18 35.1024 18.0001L40 18.0001V22.0001H35.199C33.8946 22.0001 33.073 22.0027 32.4486 22.0695C31.872 22.1312 31.6491 22.2325 31.5097 22.3231C31.3702 22.4137 31.1871 22.5763 30.8966 23.0781C30.582 23.6215 30.2459 24.3713 29.7161 25.5633L23.8276 38.8124C23.4608 39.6378 22.5862 40.1148 21.6936 39.9765C20.8011 39.8381 20.112 39.1187 20.0122 38.2209L17.0178 11.2712L15.6876 15.2618C15.276 16.4968 14.9153 17.5792 14.5158 18.438C14.0839 19.3663 13.5276 20.2171 12.6252 20.8675C11.7228 21.518 10.7398 21.7767 9.72248 21.8928C8.78145 22.0002 7.64049 22.0002 6.33873 22.0001L0 22.0001V18.0001H6.23393C7.67143 18.0001 8.58162 17.9971 9.26875 17.9186C9.90479 17.846 10.1412 17.7272 10.2864 17.6226C10.4315 17.518 10.619 17.3312 10.889 16.7508C11.1808 16.1237 11.4714 15.2612 11.926 13.8975L16.1026 1.36763C16.3996 0.476585 17.2767 -0.0877348 18.2107 0.0112152Z" fill="#9BA8AF"/>
</svg>
