<svg width="14" height="13" viewBox="0 0 14 13" fill="none" xmlns="http://www.w3.org/2000/svg">
<path d="M5.82384 5.88675L11.7106 0L12.7711 1.0605L11.7106 2.12175L13.5661 3.97725L12.5056 5.0385L10.6493 3.18225L9.58884 4.24275L11.1796 5.8335L10.1191 6.89475L8.52834 5.30325L6.88434 6.94725C7.39468 7.72275 7.59935 8.65993 7.45878 9.57759C7.3182 10.4952 6.84237 11.3282 6.12329 11.9154C5.40421 12.5025 4.49295 12.8022 3.56572 12.7565C2.63849 12.7107 1.76115 12.3228 1.10334 11.6678C0.44411 11.011 0.0526097 10.1326 0.00492951 9.20327C-0.0427507 8.27395 0.256795 7.36009 0.845348 6.63931C1.4339 5.91854 2.26942 5.44233 3.18951 5.30325C4.1096 5.16416 5.04854 5.37214 5.82384 5.88675ZM5.34609 10.6065C5.56458 10.3998 5.73942 10.1515 5.86027 9.87609C5.98113 9.6007 6.04556 9.30388 6.04974 9.00317C6.05392 8.70246 5.99778 8.40396 5.88462 8.12532C5.77147 7.84668 5.6036 7.59355 5.39095 7.38089C5.17829 7.16824 4.92516 7.00037 4.64652 6.88722C4.36788 6.77406 4.06938 6.71792 3.76867 6.7221C3.46796 6.72628 3.17114 6.79071 2.89575 6.91157C2.62036 7.03242 2.372 7.20726 2.16534 7.42575C1.75548 7.85011 1.5287 8.41846 1.53382 9.0084C1.53895 9.59835 1.77558 10.1627 2.19275 10.5798C2.60992 10.997 3.17424 11.2336 3.76419 11.2388C4.35413 11.2439 4.92248 11.0171 5.34684 10.6073L5.34609 10.6065Z" fill="#00AAFF"/>
</svg>
