<svg width="24" height="24" viewBox="0 0 24 24" fill="none" xmlns="http://www.w3.org/2000/svg">
<g clip-path="url(#clip0_1458_1289)">
<path d="M20.4811 3.51568C15.7939 -1.17154 8.2074 -1.17224 3.51953 3.51568C-0.249686 7.28484 -0.961937 12.8893 1.26643 17.3526L0.03103 22.7867C-0.129547 23.493 0.503472 24.1263 1.21005 23.9657L6.64418 22.7303C14.5454 26.6752 23.9941 20.964 23.9941 11.9965C23.9941 8.79294 22.7465 5.78106 20.4811 3.51568ZM14.5022 14.9831H6.99644C6.45236 14.9831 6.0113 14.5421 6.0113 13.998C6.0113 13.4539 6.45236 13.0129 6.99644 13.0129H14.5022C15.0463 13.0129 15.4873 13.4539 15.4873 13.998C15.4873 14.5421 15.0463 14.9831 14.5022 14.9831ZM17.0042 10.9801H6.99644C6.45236 10.9801 6.0113 10.539 6.0113 9.99494C6.0113 9.45087 6.45236 9.00981 6.99644 9.00981H17.0042C17.5482 9.00981 17.9893 9.45087 17.9893 9.99494C17.9893 10.539 17.5482 10.9801 17.0042 10.9801Z" fill="#E7EAEB"/>
</g>
<defs>
<clipPath id="clip0_1458_1289">
<rect width="24" height="24" fill="white"/>
</clipPath>
</defs>
</svg>
