<svg preserveAspectRatio="none" width="100%" height="100%" overflow="visible" style="display: block;" viewBox="0 0 20 20" fill="none" xmlns="http://www.w3.org/2000/svg">
<path id="Vector" d="M2.44 4.96C2.78827 3.74107 3.74107 2.78827 4.96 2.44V2.44C8.25409 1.49883 11.7459 1.49883 15.04 2.44V2.44C16.2589 2.78827 17.2117 3.74107 17.56 4.96V4.96C18.5012 8.25408 18.5012 11.7459 17.56 15.04V15.04C17.2117 16.2589 16.2589 17.2117 15.04 17.56V17.56C11.7459 18.5012 8.25409 18.5012 4.96 17.56V17.56C3.74107 17.2117 2.78826 16.2589 2.44 15.04V15.04C1.49883 11.7459 1.49883 8.25408 2.44 4.96V4.96Z" stroke="var(--stroke-0, #111214)" stroke-width="2" stroke-linejoin="round"/>
</svg>
