<svg preserveAspectRatio="none" width="100%" height="100%" overflow="visible" style="display: block;" viewBox="0 0 19 19" fill="none" xmlns="http://www.w3.org/2000/svg">
<g id="Vector">
<path d="M7.08406 5.99315C6.569 6.16483 6.16483 6.569 5.99315 7.08406C5.52107 8.5003 5.52107 10.0315 5.99315 11.4477C6.16483 11.9628 6.569 12.3669 7.08406 12.5386C8.5003 13.0107 10.0315 13.0107 11.4477 12.5386C11.9628 12.3669 12.3669 11.9628 12.5386 11.4477C13.0107 10.0315 13.0107 8.5003 12.5386 7.08406C12.3669 6.569 11.9628 6.16483 11.4477 5.99315C10.0315 5.52107 8.5003 5.52107 7.08406 5.99315Z" fill="var(--fill-0, #111214)"/>
<path fill-rule="evenodd" clip-rule="evenodd" d="M14.5806 0.744353C11.107 -0.248118 7.4248 -0.248118 3.95115 0.744353C2.40002 1.18753 1.18753 2.40002 0.744353 3.95115C-0.248119 7.42479 -0.248116 11.1069 0.744352 14.5806C1.18753 16.1317 2.40002 17.3442 3.95116 17.7874C7.4248 18.7799 11.1069 18.7799 14.5806 17.7874C16.1317 17.3442 17.3442 16.1317 17.7874 14.5806C18.7799 11.1069 18.7799 7.42479 17.7874 3.95115C17.3442 2.40002 16.1317 1.18753 14.5806 0.744353ZM4.5006 2.6674C7.61513 1.77753 10.9166 1.77753 14.0312 2.6674C14.9179 2.92075 15.611 3.61388 15.8644 4.50059C16.7542 7.61513 16.7542 10.9166 15.8644 14.0312C15.611 14.9179 14.9179 15.611 14.0312 15.8644C10.9166 16.7542 7.61513 16.7542 4.5006 15.8644C3.61388 15.611 2.92075 14.9179 2.6674 14.0311C1.77753 10.9166 1.77753 7.61513 2.6674 4.50059C2.92075 3.61388 3.61388 2.92075 4.5006 2.6674Z" fill="var(--fill-0, #111214)"/>
</g>
</svg>
