<svg width="24" height="22" viewBox="0 0 24 22" fill="none" xmlns="http://www.w3.org/2000/svg">
<path fill-rule="evenodd" clip-rule="evenodd" d="M0 8.32523C0 5.4114 1.5507e-07 3.95449 0.567157 2.84099C1.066 1.86197 1.86197 1.066 2.84099 0.567156C3.95449 -1.5507e-07 5.4114 0 8.32523 0H15.0895C18.0033 0 19.4602 -1.5507e-07 20.5737 0.567156C21.5527 1.066 22.3487 1.86197 22.8476 2.84099C23.4147 3.95449 23.4147 5.4114 23.4147 8.32523V9.88621C23.4147 12.8 23.4147 14.257 22.8476 15.3705C22.3487 16.3495 21.5527 17.1454 20.5737 17.6443C19.4602 18.2114 18.0033 18.2114 15.0895 18.2114H5.74181C5.39684 18.2115 5.06603 18.3486 4.82213 18.5926L2.2205 21.1942C1.40098 22.0137 0 21.4336 0 20.2745V11.7074V8.32523ZM7.80491 5.20327C7.45991 5.20327 7.12904 5.34032 6.88509 5.58427C6.64114 5.82822 6.50409 6.15909 6.50409 6.50409C6.50409 6.84909 6.64114 7.17995 6.88509 7.4239C7.12904 7.66786 7.45991 7.80491 7.80491 7.80491H15.6098C15.9548 7.80491 16.2857 7.66786 16.5296 7.4239C16.7736 7.17995 16.9106 6.84909 16.9106 6.50409C16.9106 6.15909 16.7736 5.82822 16.5296 5.58427C16.2857 5.34032 15.9548 5.20327 15.6098 5.20327H7.80491ZM7.80491 10.4065C7.45991 10.4065 7.12904 10.5436 6.88509 10.7875C6.64114 11.0315 6.50409 11.3624 6.50409 11.7074C6.50409 12.0524 6.64114 12.3832 6.88509 12.6272C7.12904 12.8711 7.45991 13.0082 7.80491 13.0082H11.7074C12.0524 13.0082 12.3832 12.8711 12.6272 12.6272C12.8711 12.3832 13.0082 12.0524 13.0082 11.7074C13.0082 11.3624 12.8711 11.0315 12.6272 10.7875C12.3832 10.5436 12.0524 10.4065 11.7074 10.4065H7.80491Z" fill="white"/>
</svg>
