<svg width="50" height="50" viewBox="0 0 50 50" fill="none" xmlns="http://www.w3.org/2000/svg">
<g clip-path="url(#clip0_406_7166)">
<path d="M42.6778 7.32236C37.9559 2.60049 31.6778 0 25 0C18.3223 0 12.0444 2.60049 7.32251 7.32236C2.60064 12.0442 0.000244141 18.3223 0.000244141 25C0.000244141 31.6777 2.60064 37.9558 7.32251 42.6776C12.0444 47.3995 18.3224 50 25 50C31.6777 50 37.9558 47.3995 42.6778 42.6776C47.3997 37.9558 50 31.6777 50 25C50 18.3223 47.3997 12.0442 42.6778 7.32236ZM25 47.0703C12.8305 47.0703 2.92993 37.1696 2.92993 25C2.92993 12.8304 12.8305 2.92969 25 2.92969C37.1697 2.92969 47.0704 12.8304 47.0704 25C47.0704 37.1696 37.1697 47.0703 25 47.0703Z" fill="white"/>
<path d="M15.586 14.1211C12.1828 14.1211 9.41418 16.8898 9.41418 20.2931C9.41418 21.102 10.07 21.7579 10.879 21.7579C11.688 21.7579 12.3439 21.102 12.3439 20.2931C12.3439 18.5053 13.7983 17.0508 15.586 17.0508C17.3737 17.0508 18.8281 18.5053 18.8281 20.2931C18.8281 21.102 19.4839 21.7579 20.2929 21.7579C21.1019 21.7579 21.7577 21.102 21.7577 20.2931C21.7577 16.8898 18.9891 14.1211 15.586 14.1211ZM34.414 14.1211C31.0109 14.1211 28.2422 16.8898 28.2422 20.2931C28.2422 21.102 28.8981 21.7579 29.7071 21.7579C30.516 21.7579 31.1719 21.102 31.1719 20.2931C31.1719 18.5053 32.6263 17.0508 34.414 17.0508C36.2017 17.0508 37.6561 18.5053 37.6561 20.2931C37.6561 21.102 38.3119 21.7579 39.1209 21.7579C39.9299 21.7579 40.5858 21.102 40.5858 20.2931C40.5858 16.8898 37.8171 14.1211 34.414 14.1211ZM38.8043 28.3259C38.0417 28.0563 37.2047 28.4561 36.9351 29.2188C35.1513 34.2655 30.355 37.6562 24.9999 37.6562C19.6448 37.6562 14.8485 34.2655 13.0648 29.2188C12.7952 28.4561 11.9581 28.0563 11.1955 28.3259C10.4327 28.5954 10.0329 29.4323 10.3026 30.1951C12.4992 36.4102 18.4057 40.5859 24.9999 40.5859C31.5942 40.5859 37.5005 36.4102 39.6973 30.1951C39.9669 29.4323 39.5672 28.5954 38.8043 28.3259Z" fill="white"/>
</g>
<defs>
<clipPath id="clip0_406_7166">
<rect width="50" height="50" fill="white"/>
</clipPath>
</defs>
</svg>
