<svg width="25" height="24" viewBox="0 0 25 24" fill="none" xmlns="http://www.w3.org/2000/svg">
<path d="M24.0073 12.0005C24.0067 9.70663 23.3488 7.46094 22.1116 5.52932C20.8743 3.59769 19.1095 2.06102 17.0261 1.10123C14.9426 0.141449 12.6278 -0.201262 10.3556 0.113679C8.08343 0.42862 5.94907 1.38802 4.20522 2.8783C2.46136 4.36858 1.18104 6.32733 0.515822 8.52266C-0.149397 10.718 -0.171657 13.0579 0.451685 15.2655C1.07503 17.4731 2.31786 19.4558 4.03305 20.979C5.74825 22.5022 7.86397 23.502 10.1297 23.8601V15.4682H7.08348V12.0005H10.1284V9.35706C10.063 8.73949 10.1343 8.11511 10.3371 7.52815C10.5399 6.94119 10.8694 6.40603 11.3021 5.96059C11.7348 5.51515 12.2602 5.17033 12.841 4.95058C13.4219 4.73082 14.0439 4.64151 14.6631 4.68897C15.5645 4.7018 16.4636 4.78115 17.3533 4.92638V7.87928H15.8381C15.5804 7.84525 15.3184 7.86959 15.0713 7.95052C14.8243 8.03145 14.5986 8.1669 14.411 8.34683C14.2234 8.52676 14.0786 8.74658 13.9875 8.99001C13.8963 9.23345 13.861 9.49427 13.8842 9.75318V12.0005H17.2186L16.6851 15.4682H13.8842V23.8548C16.7064 23.4071 19.2762 21.9674 21.1318 19.7945C22.9874 17.6216 24.007 14.858 24.0073 12.0005Z" fill="#009EE2"/>
<path d="M16.6799 15.4734L17.2134 12.0057H13.8791V9.75439C13.8559 9.49548 13.8911 9.23465 13.9823 8.99122C14.0735 8.74778 14.2183 8.52797 14.4059 8.34804C14.5935 8.1681 14.8192 8.03265 15.0662 7.95172C15.3132 7.87078 15.5753 7.84645 15.833 7.88049H17.3468V4.92758C16.4572 4.78234 15.558 4.70298 14.6567 4.69017C14.0375 4.64271 13.4154 4.73203 12.8346 4.95178C12.2537 5.17153 11.7283 5.51635 11.2956 5.96179C10.8629 6.40723 10.5335 6.94239 10.3306 7.52935C10.1278 8.1163 10.0566 8.74069 10.1219 9.35825V12.0017H7.07704V15.4694H10.1219V23.856C10.7417 23.9539 11.3684 24.0021 11.9958 24C12.6236 23.9989 13.2505 23.9508 13.8711 23.856V15.4694L16.6799 15.4734Z" fill="white"/>
</svg>
