<svg width="48" height="48" viewBox="0 0 48 48" fill="none" xmlns="http://www.w3.org/2000/svg">
<path d="M39.486 36.09L31.824 34.174L31.382 32.404C36.668 31.5141 39.3879 29.9301 39.5079 29.86C39.7919 29.694 39.968 29.392 39.992 29.064C40.014 28.736 39.8679 28.414 39.6099 28.208C39.574 28.18 36 25.228 36 15C36 6.37397 33.982 1.99997 30 1.99997H29.41C27.974 0.612 26.896 0 24 0C20.242 0 12 3.77803 12 15C12 25.228 8.42597 28.18 8.4 28.2C8.26902 28.2983 8.16409 28.4271 8.09436 28.5753C8.02463 28.7235 7.99222 28.8865 7.99997 29.05C8.00835 29.2138 8.05688 29.3729 8.14129 29.5135C8.2257 29.654 8.3434 29.7717 8.484 29.856C8.604 29.928 11.298 31.52 16.616 32.408L16.1739 34.1739L8.51203 36.09C3.49997 37.344 0 41.828 0 47C0 47.552 0.448031 48 1.00003 48H47.0001C47.5521 48 48.0001 47.548 48.0001 46.996C48.0032 44.4883 47.1664 42.0519 45.6232 40.0752C44.0801 38.0985 41.9195 36.6955 39.486 36.09Z" fill="#9BA8AF"/>
</svg>
