<svg width="24" height="25" viewBox="0 0 24 25" fill="none" xmlns="http://www.w3.org/2000/svg">
<path d="M10.94 22.7062C10.46 22.7062 9.99002 22.5863 9.55002 22.3463C8.67002 21.8563 8.14002 20.9662 8.14002 19.9662V14.6662C8.14002 14.1662 7.81002 13.4162 7.50002 13.0362L3.76002 9.07625C3.13002 8.44625 2.65002 7.36625 2.65002 6.55625V4.25625C2.65002 2.65625 3.86002 1.40625 5.40002 1.40625H18.6C20.12 1.40625 21.35 2.63625 21.35 4.15625V6.35625C21.35 7.40625 20.72 8.59625 20.13 9.18625L15.8 13.0162C15.38 13.3663 15.05 14.1362 15.05 14.7562V19.0562C15.05 19.9462 14.49 20.9762 13.79 21.3962L12.41 22.2862C11.96 22.5662 11.45 22.7062 10.94 22.7062ZM5.40002 2.90625C4.70002 2.90625 4.15002 3.49625 4.15002 4.25625V6.55625C4.15002 6.92625 4.45002 7.64625 4.83002 8.02625L8.64002 12.0362C9.15002 12.6662 9.65002 13.7163 9.65002 14.6562V19.9562C9.65002 20.6062 10.1 20.9262 10.29 21.0262C10.71 21.2562 11.22 21.2562 11.61 21.0162L13 20.1262C13.28 19.9562 13.56 19.4163 13.56 19.0562V14.7562C13.56 13.6862 14.08 12.5062 14.83 11.8762L19.11 8.08625C19.45 7.74625 19.86 6.93625 19.86 6.34625V4.15625C19.86 3.46625 19.3 2.90625 18.61 2.90625H5.40002Z" fill="#00AAFF"/>
<path d="M6.00004 10.8059C5.86004 10.8059 5.73004 10.7659 5.60004 10.6959C5.25004 10.4759 5.14004 10.0059 5.36004 9.65593L10.29 1.75593C10.51 1.40593 10.97 1.29593 11.32 1.51593C11.67 1.73593 11.78 2.19593 11.56 2.54593L6.63004 10.4459C6.49004 10.6759 6.25004 10.8059 6.00004 10.8059Z" fill="#00AAFF"/>
</svg>
