<svg width="24" height="25" viewBox="0 0 24 25" fill="none" xmlns="http://www.w3.org/2000/svg">
<path d="M17.66 22.727C17.13 22.727 16.45 22.557 15.6 22.057L12.61 20.287C12.3 20.107 11.7 20.107 11.4 20.287L8.4 22.057C6.63 23.107 5.59 22.687 5.12 22.347C4.66 22.007 3.94 21.137 4.41 19.137L5.12 16.067C5.2 15.747 5.04 15.197 4.8 14.957L2.32 12.477C1.08 11.237 1.18 10.177 1.35 9.65695C1.52 9.13695 2.06 8.21695 3.78 7.92695L6.97 7.39695C7.27 7.34695 7.7 7.02695 7.83 6.75695L9.6 3.22695C10.4 1.61695 11.45 1.37695 12 1.37695C12.55 1.37695 13.6 1.61695 14.4 3.22695L16.16 6.74695C16.3 7.01695 16.73 7.33695 17.03 7.38695L20.22 7.91695C21.95 8.20695 22.49 9.12695 22.65 9.64695C22.81 10.167 22.91 11.227 21.68 12.467L19.2 14.957C18.96 15.197 18.81 15.737 18.88 16.067L19.59 19.137C20.05 21.137 19.34 22.007 18.88 22.347C18.63 22.527 18.23 22.727 17.66 22.727ZM12 18.647C12.49 18.647 12.98 18.767 13.37 18.997L16.36 20.767C17.23 21.287 17.78 21.287 17.99 21.137C18.2 20.987 18.35 20.457 18.13 19.477L17.42 16.407C17.23 15.577 17.54 14.507 18.14 13.897L20.62 11.417C21.11 10.927 21.33 10.447 21.23 10.117C21.12 9.78695 20.66 9.51695 19.98 9.40695L16.79 8.87695C16.02 8.74695 15.18 8.12695 14.83 7.42695L13.07 3.90695C12.75 3.26695 12.35 2.88695 12 2.88695C11.65 2.88695 11.25 3.26695 10.94 3.90695L9.17 7.42695C8.82 8.12695 7.98 8.74695 7.21 8.87695L4.03 9.40695C3.35 9.51695 2.89 9.78695 2.78 10.117C2.67 10.447 2.9 10.937 3.39 11.417L5.87 13.897C6.47 14.497 6.78 15.577 6.59 16.407L5.88 19.477C5.65 20.467 5.81 20.987 6.02 21.137C6.23 21.287 6.77 21.277 7.65 20.767L10.64 18.997C11.02 18.767 11.51 18.647 12 18.647Z" fill="#B719FF" fill-opacity="0.45"/>
</svg>
