<svg width="40" height="40" viewBox="0 0 40 40" fill="none" xmlns="http://www.w3.org/2000/svg">
<path d="M37.5 35.7375L4.2625 2.5L2.5 4.2625L10.5 12.275L8.75 19.7125C8.70589 19.8988 8.70518 20.0928 8.74791 20.2794C8.79065 20.4661 8.87569 20.6404 8.99648 20.789C9.11727 20.9376 9.27057 21.0564 9.44457 21.1363C9.61856 21.2163 9.80859 21.2551 10 21.25H16.0375L13.75 36.0625C13.7087 36.3371 13.76 36.6176 13.8958 36.8598C14.0316 37.1019 14.2442 37.292 14.5 37.4C14.6589 37.4645 14.8285 37.4984 15 37.5C15.1909 37.4995 15.3792 37.4554 15.5503 37.3709C15.7215 37.2864 15.8711 37.1638 15.9875 37.0125L24.3375 26.1L35.7375 37.5L37.5 35.7375Z" fill="white"/>
<path d="M28.1625 21.0879L32.2375 15.7629C32.3688 15.5853 32.4507 15.3761 32.4749 15.1565C32.499 14.9369 32.4646 14.7149 32.375 14.5129C32.281 14.2909 32.1248 14.1007 31.9252 13.9654C31.7256 13.8302 31.4911 13.7555 31.25 13.7504H25.3125L27.5 4.02545C27.5414 3.84097 27.5404 3.64951 27.4971 3.46547C27.4538 3.28143 27.3693 3.10961 27.25 2.96295C27.1297 2.81458 26.9771 2.69575 26.8037 2.61558C26.6304 2.5354 26.4409 2.49602 26.25 2.50045H13.75C13.4628 2.49277 13.1816 2.58428 12.954 2.75959C12.7263 2.93489 12.566 3.18328 12.5 3.46295L12.125 5.08795L28.1625 21.0879Z" fill="#FFFDFD"/>
</svg>
