<svg width="42" height="28" viewBox="0 0 42 28" fill="none" xmlns="http://www.w3.org/2000/svg">
<path d="M42 21.0335V25.25C42 25.4489 41.921 25.6397 41.7803 25.7803C41.6397 25.921 41.4489 26 41.25 26H32.25V23C32.25 20.543 31.449 18.275 30.108 16.424C31.512 14.7575 33.6765 13.7555 36.0915 14.0525C39.5235 14.4755 42 17.5775 42 21.0335ZM11.892 16.424C10.5003 18.3342 9.75036 20.6366 9.75 23V26H0.75C0.551088 26 0.360322 25.921 0.21967 25.7803C0.0790178 25.6397 0 25.4489 0 25.25V21.0335C0 17.576 2.4765 14.474 5.907 14.051C8.322 13.754 10.488 14.7575 11.892 16.424ZM30 23V26.75C30 26.9489 29.921 27.1397 29.7803 27.2803C29.6397 27.421 29.4489 27.5 29.25 27.5H12.75C12.5511 27.5 12.3603 27.421 12.2197 27.2803C12.079 27.1397 12 26.9489 12 26.75V23C12 20.6131 12.9482 18.3239 14.636 16.636C16.3239 14.9482 18.6131 14 21 14C23.3869 14 25.6761 14.9482 27.364 16.636C29.0518 18.3239 30 20.6131 30 23ZM27.6315 10.4135C27.6632 10.5175 27.6571 10.6293 27.6143 10.7293C27.5715 10.8292 27.4947 10.9108 27.3975 10.9595C23.1315 13.013 18.867 13.013 14.601 10.9595C14.5038 10.9108 14.427 10.8292 14.3842 10.7293C14.3414 10.6293 14.3353 10.5175 14.367 10.4135C15.9 5.3975 15.237 0.5 21 0.5C26.763 0.5 26.1 5.3975 27.6315 10.4135ZM40.416 10.9595C40.4382 11.0301 40.4344 11.1063 40.4053 11.1743C40.3761 11.2422 40.3235 11.2975 40.257 11.33C36.9195 12.8885 33.5805 12.8885 30.243 11.33C30.1763 11.2977 30.1235 11.2425 30.0943 11.1744C30.0651 11.1064 30.0614 11.0301 30.084 10.9595C31.2855 7.1885 30.7575 3.5 35.25 3.5C39.7425 3.5 39.2145 7.1885 40.416 10.9595ZM11.916 10.9595C11.9382 11.0301 11.9344 11.1063 11.9053 11.1743C11.8761 11.2422 11.8235 11.2975 11.757 11.33C8.4195 12.8885 5.0805 12.8885 1.743 11.33C1.67632 11.2977 1.62352 11.2425 1.59431 11.1744C1.56509 11.1064 1.56143 11.0301 1.584 10.9595C2.7855 7.1885 2.2575 3.5 6.75 3.5C11.2425 3.5 10.7145 7.1885 11.916 10.9595Z" fill="#9BA8AF"/>
</svg>
