<svg width="74" height="49" viewBox="0 0 74 49" fill="none" xmlns="http://www.w3.org/2000/svg">
<g clip-path="url(#clip0_132_17962)">
<path d="M53.5184 39.2867C54.2585 39.1304 54.9734 38.8728 55.643 38.521C57.3762 37.6317 58.8177 36.2636 59.7964 34.5793C59.9075 34.5784 60.0202 34.5637 60.1322 34.5319C64.449 33.2621 67.4633 29.2337 67.4633 24.7379C67.4633 20.2323 64.449 16.1983 60.1526 14.9342C59.8583 14.8415 59.5587 14.7668 59.2554 14.7103C59.096 14.6805 58.9322 14.6825 58.7735 14.7161C58.6148 14.7497 58.4642 14.8142 58.3305 14.9061C58.1968 14.9979 58.0825 15.1152 57.9941 15.2513C57.9058 15.3873 57.8451 15.5395 57.8157 15.699C57.7859 15.8584 57.7879 16.0221 57.8215 16.1808C57.8551 16.3395 57.9196 16.4899 58.0115 16.6236C58.1033 16.7572 58.2206 16.8715 58.3567 16.9597C58.4927 17.048 58.6449 17.1086 58.8044 17.1379C59.007 17.1763 59.2097 17.2262 59.4344 17.2973C62.7069 18.2607 64.9924 21.3191 64.9924 24.7371C64.9924 27.5823 63.3876 30.1611 60.9575 31.5012C61.0956 30.8295 61.1895 30.1448 61.1895 29.4404C61.1895 25.5877 59.0634 22.1019 55.6315 20.3394C54.8011 19.9227 53.9207 19.614 53.0118 19.421C52.3434 19.2665 51.6889 19.7069 51.5484 20.3729C51.5147 20.5316 51.5127 20.6954 51.5425 20.8549C51.5722 21.0144 51.6331 21.1665 51.7216 21.3024C51.8102 21.4383 51.9247 21.5555 52.0586 21.6471C52.1925 21.7387 52.3432 21.803 52.502 21.8363C53.2 21.9847 53.8761 22.2219 54.5137 22.5423C55.7835 23.1914 56.8487 24.1796 57.591 25.3972C58.3334 26.6149 58.724 28.0143 58.7194 29.4404C58.7194 32.266 57.1946 34.8228 54.7098 36.2045C54.8471 35.5377 54.9182 34.8489 54.9182 34.1437C54.9182 29.2991 51.4765 25.0844 46.7348 24.121C46.4138 24.0566 46.0804 24.122 45.8075 24.3029C45.5346 24.4837 45.3445 24.7653 45.2787 25.086C45.2136 25.4072 45.2787 25.741 45.4596 26.0142C45.6406 26.2874 45.9226 26.4776 46.2437 26.5429C49.839 27.2726 52.4488 30.47 52.4488 34.1437C52.4488 38.4213 48.9688 41.9006 44.692 41.9006C40.4152 41.9006 36.9343 38.4205 36.9343 34.1437C36.932 32.8541 37.2534 31.5846 37.8689 30.4514C38.4845 29.3181 39.3746 28.3575 40.4577 27.6575L43.5635 34.6454C43.6966 34.9447 43.9431 35.1789 44.2488 35.2964C44.5545 35.414 44.8944 35.4052 45.1937 35.2722C45.493 35.1391 45.7271 34.8926 45.8447 34.5869C45.9622 34.2812 45.9535 33.9413 45.8204 33.642L38.7336 17.6952V14.3606C38.7342 13.7344 38.9832 13.134 39.4259 12.6912C39.8686 12.2483 40.4689 11.9991 41.095 11.9983H44.692C45.1587 11.9995 45.6146 12.1389 46.0023 12.3987C46.39 12.6586 46.6921 13.0274 46.8706 13.4586C47.0491 13.8899 47.096 14.3643 47.0054 14.8222C46.9148 15.28 46.6907 15.7008 46.3613 16.0316C45.9173 16.4724 45.3176 16.7207 44.692 16.7228H42.8935C42.5661 16.7228 42.252 16.8529 42.0205 17.0845C41.7889 17.316 41.6589 17.63 41.6589 17.9575C41.6589 18.285 41.7889 18.599 42.0205 18.8305C42.252 19.0621 42.5661 19.1922 42.8935 19.1922H44.692C45.9725 19.1879 47.1999 18.6795 48.1083 17.7769C48.9812 16.9033 49.4834 15.7267 49.5105 14.4921H50.9691C52.2405 14.4921 53.4841 13.9773 54.3838 13.0801C55.2483 12.2132 55.7459 11.0177 55.7819 9.78717H57.2421C58.5135 9.78717 59.7571 9.27239 60.6568 8.37519C61.5597 7.46169 62.0667 6.22939 62.0679 4.94494C62.0666 3.66544 61.5578 2.43871 60.653 1.53396C59.7483 0.629216 58.5216 0.120358 57.2421 0.119061H53.6353C51.0156 0.119061 48.887 2.21904 48.8217 4.82401H47.3623C44.7426 4.82401 42.6157 6.92318 42.5487 9.52732H41.095C39.8141 9.52884 38.586 10.0384 37.6802 10.9441C36.7745 11.8499 36.2649 13.078 36.2634 14.3589V16.7212H20.7497V13.7959H24.9096C25.2371 13.7959 25.5511 13.6659 25.7827 13.4343C26.0142 13.2028 26.1443 12.8887 26.1443 12.5613C26.1443 12.2338 26.0142 11.9198 25.7827 11.6882C25.5511 11.4567 25.2371 11.3266 24.9096 11.3266H15.9181C15.5906 11.3266 15.2766 11.4567 15.045 11.6882C14.8135 11.9198 14.6834 12.2338 14.6834 12.5613C14.6834 12.8887 14.8135 13.2028 15.045 13.4343C15.2766 13.6659 15.5906 13.7959 15.9181 13.7959H18.2804V17.6936L15.3159 24.3645C14.4973 24.1177 13.6509 23.9747 12.7967 23.9388L12.7975 23.9347L-1.8382 24.0137L-16.7361 23.9347H-13.0313C-11.8306 23.9336 -10.6794 23.4562 -9.83036 22.6071C-8.98134 21.7581 -8.50389 20.6069 -8.50281 19.4062V4.58705C-8.5041 3.38642 -8.98163 2.23535 -9.8306 1.38638C-10.6796 0.537413 -11.8306 0.0598915 -13.0313 0.0585938H-22.911C-24.1116 0.0598915 -25.2627 0.537413 -26.1117 1.38638C-26.9606 2.23535 -27.4382 3.38642 -27.4395 4.58705V19.4062C-27.4382 20.6069 -26.9606 21.7579 -26.1117 22.6069C-25.2627 23.4559 -24.1116 23.9334 -22.911 23.9347H-19.2062C-19.2062 23.9347 10.4095 23.8879 10.4185 23.9476C5.71358 24.8635 2.09412 29.1749 2.09412 34.1446C2.09412 37.5724 3.79536 40.6047 6.39133 42.4612H3.32879C3.00133 42.4612 2.68729 42.5912 2.45575 42.8228C2.22421 43.0543 2.09412 43.3684 2.09412 43.6958C2.09412 44.0233 2.22421 44.3373 2.45575 44.5689C2.68729 44.8004 3.00133 44.9305 3.32879 44.9305H65.8986C66.226 44.9305 66.5401 44.8004 66.7716 44.5689C67.0031 44.3373 67.1332 44.0233 67.1332 43.6958C67.1332 43.3684 67.0031 43.0543 66.7716 42.8228C66.5401 42.5912 66.226 42.4612 65.8986 42.4612H50.6226C51.8005 41.6186 52.7873 40.5368 53.5184 39.2867ZM53.6361 2.59083H57.2429C57.8674 2.59148 58.4663 2.83989 58.9079 3.28153C59.3495 3.72318 59.598 4.322 59.5986 4.94658C59.5986 5.57821 59.3478 6.19104 58.9106 6.62983C58.4667 7.06942 57.8676 7.31658 57.2429 7.31784C57.2429 7.31784 55.2769 7.34971 55.1952 7.36687C54.8094 6.65249 54.2488 6.0476 53.5657 5.60875C52.8826 5.16991 52.0995 4.91144 51.2894 4.85751C51.3117 4.24964 51.5686 3.67405 52.0062 3.25146C52.4437 2.82887 53.0278 2.59211 53.6361 2.59083ZM47.3631 7.29578H50.9699C51.5945 7.29643 52.1933 7.54483 52.6349 7.98648C53.0766 8.42813 53.325 9.02694 53.3256 9.65153C53.3256 10.2832 53.0748 10.896 52.6376 11.3348C52.1937 11.7744 51.5946 12.0215 50.9699 12.0228C50.9699 12.0228 49.0031 12.0547 48.9214 12.0718C48.5353 11.3575 47.9747 10.7526 47.2917 10.3136C46.6087 9.87448 45.8257 9.61552 45.0156 9.56083C45.0388 8.95324 45.2961 8.37818 45.7336 7.956C46.1712 7.53381 46.7551 7.29724 47.3631 7.29578ZM35.394 19.1938L28.4845 31.5617L21.6134 19.1938H35.394ZM19.6384 20.7226L26.4082 32.9099H22.4656C22.0783 29.7109 20.2096 26.9703 17.567 25.3818L19.6384 20.7226ZM16.5546 27.6591C17.4549 28.2499 18.222 29.0219 18.8072 29.9259C19.3923 30.8298 19.7825 31.8458 19.953 32.9091H14.2209L16.5546 27.6591ZM-22.911 21.4646C-23.4567 21.4639 -23.9799 21.2469 -24.3657 20.861C-24.7516 20.4751 -24.9687 19.9519 -24.9693 19.4062V4.58705C-24.9687 4.04135 -24.7516 3.51818 -24.3657 3.13232C-23.9799 2.74645 -23.4567 2.52938 -22.911 2.52873H-13.0313C-12.4856 2.52938 -11.9624 2.74645 -11.5765 3.13232C-11.1907 3.51818 -10.9736 4.04135 -10.9729 4.58705V19.4062C-10.9736 19.9519 -11.1907 20.4751 -11.5765 20.861C-11.9624 21.2469 -12.4856 21.4639 -13.0313 21.4646H-22.911ZM12.3211 41.9014C8.04354 41.9014 4.56345 38.4213 4.56345 34.1446C4.56345 29.8678 8.04354 26.3877 12.3211 26.3877C13.0059 26.3877 13.6579 26.5053 14.2904 26.672L11.1927 33.6429C11.1094 33.8309 11.0743 34.0368 11.0906 34.2419C11.1069 34.4469 11.1742 34.6447 11.2862 34.8172C11.3983 34.9897 11.5516 35.1315 11.7323 35.2298C11.913 35.3281 12.1154 35.3797 12.3211 35.38H19.953C19.3565 39.0677 16.1755 41.9014 12.3211 41.9014ZM18.2509 42.4612C19.4065 41.6379 20.378 40.583 21.1037 39.3638C21.8293 38.1445 22.2931 36.7875 22.4656 35.3792H28.5066C28.9437 35.3792 29.349 35.148 29.5713 34.7696C29.6031 34.7149 29.5974 34.6504 29.6203 34.594L37.3731 20.7161L39.4502 25.39C36.3672 27.235 34.465 30.5125 34.465 34.1446C34.465 37.5724 36.1662 40.6047 38.7622 42.4612H18.2509Z" fill="#9BA8AF"/>
</g>
<defs>
<clipPath id="clip0_132_17962">
<rect width="74" height="48.2609" fill="white"/>
</clipPath>
</defs>
</svg>
