<svg width="48" height="48" viewBox="0 0 48 48" fill="none" xmlns="http://www.w3.org/2000/svg">
<g clip-path="url(#clip0_132_18565)">
<path d="M15.3713 10.637C14.8327 10.4008 14.251 10.279 13.6629 10.2793H4.22516C1.88402 10.2793 0.0112613 12.1607 0 14.4275V27.3429C0 28.3138 0.787075 29.1009 1.75799 29.1009C2.72891 29.1009 3.51598 28.3138 3.51598 27.3429V14.4362C3.51767 14.0903 3.90656 13.7953 4.26092 13.7953C4.2704 13.7953 4.2704 13.7953 4.26092 13.7953V43.9888C4.26092 45.1539 5.21391 46.0985 6.37899 46.0985C7.54407 46.0985 8.48862 45.154 8.48862 43.9888V27.1267H9.39938V43.9888C9.39938 45.1537 10.3436 46.0985 11.509 46.0985C12.6889 46.0985 13.6218 45.1348 13.6218 43.9888C13.6218 43.9769 13.623 15.6894 13.6218 13.7953C13.6687 13.7953 13.5766 13.8003 13.6218 13.8095C13.7819 12.581 14.5314 11.4769 15.3713 10.637C15.3712 10.637 15.3712 10.637 15.3713 10.637ZM43.7747 10.3485H34.337C33.3349 10.3485 32.3486 10.6972 31.5542 11.3852C30.6765 12.1452 30.1181 13.257 30.1119 14.4967V27.412C30.1119 28.3992 30.9195 29.17 31.8699 29.17C32.8408 29.17 33.6279 28.3829 33.6279 27.412C33.6339 13.6696 33.6135 14.5021 33.6437 14.3816C33.7146 14.0984 34.0495 13.8644 34.3729 13.8644V44.058C34.3729 45.223 35.3258 46.1676 36.491 46.1676C37.6561 46.1676 38.6006 45.2231 38.6006 44.058V27.1958H39.5114V44.058C39.5114 45.2231 40.4559 46.1676 41.621 46.1676C42.7861 46.1676 43.737 45.2231 43.737 44.058C43.737 44.0461 43.7382 15.7586 43.737 13.8644C44.1084 13.8644 44.4824 14.1718 44.4841 14.4967V27.412C44.4841 28.3829 45.2712 29.17 46.2421 29.17C47.213 29.17 48.0001 28.3829 48.0001 27.412V14.4879C47.9884 12.2069 46.0927 10.3485 43.7747 10.3485Z" fill="#9BA8AF"/>
<path d="M8.94405 9.11906C10.9563 9.11906 12.5876 7.48781 12.5876 5.47555C12.5876 3.46329 10.9563 1.83203 8.94405 1.83203C6.93179 1.83203 5.30054 3.46329 5.30054 5.47555C5.30054 7.48781 6.93179 9.11906 8.94405 9.11906Z" fill="#9BA8AF"/>
<path d="M28.7704 10.3496H19.3325C18.2986 10.3496 17.313 10.7196 16.5368 11.3973C15.6664 12.1571 15.1135 13.2642 15.1074 14.4978V27.4132C15.1074 28.1989 15.6231 28.8639 16.3344 29.0892C16.5061 29.1435 16.6852 29.1712 16.8653 29.1712C17.8362 29.1712 18.6233 28.3841 18.6233 27.4132C18.6293 13.6708 18.609 14.5033 18.6392 14.3828C18.71 14.0995 19.0092 13.8656 19.3325 13.8656H19.3956L19.3768 44.0591C19.3766 44.3282 19.4279 44.5948 19.5279 44.8446C19.8394 45.6207 20.5989 46.1688 21.4864 46.1688C22.6515 46.1688 23.596 45.2242 23.596 44.0591V27.197H24.5068V44.0591C24.5068 45.2242 25.4513 46.1688 26.6164 46.1688C27.7815 46.1688 28.7505 45.2242 28.7505 44.0591C28.7505 44.0472 28.7518 15.7598 28.7505 13.8656C28.7599 13.8656 28.7412 13.8666 28.7505 13.867C28.8993 12.6246 29.5153 11.507 30.358 10.6564C29.8533 10.4535 29.3143 10.3493 28.7704 10.3496Z" fill="#9BA8AF"/>
<path d="M24.3105 9.17607C26.3176 9.03325 27.829 7.29033 27.6862 5.28315C27.5434 3.27596 25.8004 1.7646 23.7933 1.90742C21.7861 2.05024 20.2747 3.79316 20.4175 5.80034C20.5604 7.80753 22.3033 9.31889 24.3105 9.17607Z" fill="#9BA8AF"/>
<path d="M39.3149 9.17412C41.322 9.0313 42.8334 7.28838 42.6906 5.28119C42.5478 3.27401 40.8048 1.76264 38.7977 1.90546C36.7905 2.04828 35.2791 3.79121 35.4219 5.79839C35.5647 7.80557 37.3077 9.31694 39.3149 9.17412Z" fill="#9BA8AF"/>
</g>
<defs>
<clipPath id="clip0_132_18565">
<rect width="48" height="48" fill="white"/>
</clipPath>
</defs>
</svg>
