<svg width="48" height="48" viewBox="0 0 48 48" fill="none" xmlns="http://www.w3.org/2000/svg">
<path d="M8 18C11.3137 18 14 15.3137 14 12C14 8.68629 11.3137 6 8 6C4.68629 6 2 8.68629 2 12C2 15.3137 4.68629 18 8 18Z" fill="#9BA8AF"/>
<path d="M14.58 22.14C12.567 23.3961 10.9068 25.1439 9.75564 27.2187C8.60451 29.2936 8.00034 31.6272 8 34H4C2.94011 33.9968 1.92453 33.5744 1.17507 32.8249C0.425609 32.0755 0.00316545 31.0599 0 30L0 26C0.00474818 24.4102 0.638414 22.8868 1.7626 21.7626C2.8868 20.6384 4.41016 20.0047 6 20H10C10.8731 20.002 11.7353 20.1945 12.5264 20.5641C13.3174 20.9337 14.0183 21.4715 14.58 22.14Z" fill="#9BA8AF"/>
<path d="M40 18C43.3137 18 46 15.3137 46 12C46 8.68629 43.3137 6 40 6C36.6863 6 34 8.68629 34 12C34 15.3137 36.6863 18 40 18Z" fill="#9BA8AF"/>
<path d="M47.9999 26V30C47.9968 31.0599 47.5743 32.0755 46.8249 32.8249C46.0754 33.5744 45.0598 33.9968 43.9999 34H39.9999C39.9996 31.6272 39.3954 29.2936 38.2443 27.2187C37.0931 25.1439 35.4329 23.3961 33.4199 22.14C33.9816 21.4715 34.6825 20.9337 35.4735 20.5641C36.2646 20.1945 37.1268 20.002 37.9999 20H41.9999C43.5898 20.0047 45.1131 20.6384 46.2373 21.7626C47.3615 22.8868 47.9952 24.4102 47.9999 26Z" fill="#9BA8AF"/>
<path d="M24 22C28.4183 22 32 18.4183 32 14C32 9.58172 28.4183 6 24 6C19.5817 6 16 9.58172 16 14C16 18.4183 19.5817 22 24 22Z" fill="#9BA8AF"/>
<path d="M36 34V36C35.9953 37.5898 35.3616 39.1132 34.2374 40.2374C33.1132 41.3616 31.5898 41.9953 30 42H18C16.4102 41.9953 14.8868 41.3616 13.7626 40.2374C12.6384 39.1132 12.0047 37.5898 12 36V34C12 31.3478 13.0536 28.8043 14.9289 26.9289C16.8043 25.0536 19.3478 24 22 24H26C28.6522 24 31.1957 25.0536 33.0711 26.9289C34.9464 28.8043 36 31.3478 36 34Z" fill="#9BA8AF"/>
</svg>
