<svg width="24" height="24" viewBox="0 0 24 24" fill="none" xmlns="http://www.w3.org/2000/svg">
<g clip-path="url(#clip0_1458_1293)">
<path d="M16.8089 12.5906L12.5541 16.8464C12.2578 17.1347 11.7516 17.1436 11.4459 16.8464L7.19109 12.5902C5.89875 11.2992 5.89875 9.20766 7.19016 7.91625C8.4825 6.62391 10.5731 6.62391 11.8655 7.91625L12 8.05078L12.1336 7.91672C13.4264 6.62344 15.518 6.62437 16.8094 7.91672C18.1017 9.20766 18.1008 11.2992 16.8089 12.5906ZM12.7031 3.4673V0.703125C12.7031 0.314812 12.3883 0 12 0C11.6117 0 11.2969 0.314812 11.2969 0.703125V3.4673C11.2969 3.85561 11.6117 4.17042 12 4.17042C12.3883 4.17042 12.7031 3.85561 12.7031 3.4673ZM0.703125 12.7031H3.46734C3.85566 12.7031 4.17047 12.3883 4.17047 12C4.17047 11.6117 3.85566 11.2969 3.46734 11.2969H0.703125C0.314812 11.2969 0 11.6117 0 12C0 12.3883 0.314812 12.7031 0.703125 12.7031ZM12 19.8296C11.6117 19.8296 11.2969 20.1444 11.2969 20.5327V23.2969C11.2969 23.6852 11.6117 24 12 24C12.3883 24 12.7031 23.6852 12.7031 23.2969V20.5327C12.7031 20.1444 12.3883 19.8296 12 19.8296ZM24 12C24 11.6117 23.6852 11.2969 23.2969 11.2969H20.5327C20.1443 11.2969 19.8295 11.6117 19.8295 12C19.8295 12.3883 20.1443 12.7031 20.5327 12.7031H23.2969C23.6852 12.7031 24 12.3883 24 12ZM6.46369 6.46364C6.73828 6.18905 6.73828 5.74388 6.46369 5.46928L4.50905 3.51469C4.2345 3.24014 3.78928 3.24009 3.51469 3.51469C3.24009 3.78928 3.24009 4.23445 3.51469 4.50905L5.46928 6.46359C5.74388 6.73823 6.18909 6.73828 6.46369 6.46364ZM3.51469 20.4853C3.78923 20.7599 4.23441 20.7599 4.50905 20.4853L6.46364 18.5307C6.73823 18.2561 6.73823 17.811 6.46364 17.5364C6.18909 17.2618 5.74388 17.2618 5.46928 17.5364L3.51469 19.4909C3.24009 19.7655 3.24009 20.2107 3.51469 20.4853ZM19.491 20.4853C19.7655 20.7599 20.2107 20.7599 20.4853 20.4853C20.7599 20.2107 20.7599 19.7655 20.4853 19.491L18.5307 17.5364C18.2562 17.2619 17.811 17.2618 17.5364 17.5364C17.2618 17.811 17.2618 18.2562 17.5364 18.5308L19.491 20.4853ZM18.5307 6.46369L20.4853 4.50914C20.7599 4.23455 20.7599 3.78938 20.4853 3.51478C20.2107 3.24023 19.7655 3.24019 19.4909 3.51478L17.5363 5.46933C17.2617 5.74392 17.2617 6.18909 17.5363 6.46369C17.8109 6.73823 18.2561 6.73823 18.5307 6.46369Z" fill="#E7EAEB"/>
</g>
<defs>
<clipPath id="clip0_1458_1293">
<rect width="24" height="24" fill="white"/>
</clipPath>
</defs>
</svg>
