<svg width="264" height="215" viewBox="0 0 264 215" fill="none" xmlns="http://www.w3.org/2000/svg">
<path d="M67.3036 8.73616C67.2081 8.79661 67.1255 8.87535 67.0605 8.96791C66.9955 9.06048 66.9494 9.16505 66.9248 9.27565C66.9002 9.38624 66.8976 9.50071 66.9171 9.61248C66.9367 9.72425 66.978 9.83114 67.0387 9.92705L73.5808 20.275C73.6415 20.3709 73.7204 20.454 73.813 20.5195C73.9056 20.585 74.0102 20.6317 74.1206 20.6567C74.231 20.6818 74.3452 20.6849 74.4567 20.6657C74.5681 20.6465 74.6746 20.6055 74.7701 20.545C74.8656 20.4846 74.9482 20.4058 75.0132 20.3133C75.0782 20.2207 75.1244 20.1161 75.149 20.0055C75.1736 19.8949 75.1761 19.7805 75.1566 19.6687C75.137 19.5569 75.0957 19.4501 75.035 19.3541L68.4929 9.00619C68.4322 8.91024 68.3533 8.82713 68.2607 8.76163C68.1681 8.69612 68.0636 8.64951 67.9531 8.62443C67.8427 8.59935 67.7285 8.59632 67.617 8.61549C67.5056 8.63466 67.3991 8.67567 67.3036 8.73616Z" fill="#354F5C"/>
<path d="M64.6718 23.3271C64.6086 23.4209 64.5644 23.5264 64.5419 23.6374C64.5195 23.7485 64.5191 23.8629 64.5408 23.9743C64.5624 24.0857 64.6058 24.1918 64.6683 24.2866C64.7308 24.3813 64.8114 24.4629 64.9052 24.5265L68.8274 27.189C69.0168 27.3175 69.2491 27.3656 69.4732 27.3227C69.6973 27.2798 69.8948 27.1494 70.0225 26.9602C70.0857 26.8663 70.1298 26.7609 70.1523 26.6498C70.1748 26.5388 70.1752 26.4243 70.1535 26.3129C70.1318 26.2015 70.0885 26.0954 70.026 26.0007C69.9634 25.9059 69.8829 25.8244 69.789 25.7607L65.8677 23.0977C65.7738 23.034 65.6685 22.9894 65.5576 22.9664C65.4467 22.9435 65.3324 22.9426 65.2213 22.9639C65.1103 22.9852 65.0046 23.0282 64.9103 23.0905C64.816 23.1529 64.735 23.2333 64.6718 23.3271Z" fill="#354F5C"/>
<path d="M56.3745 41.3525C56.147 41.3318 55.921 41.4025 55.7461 41.549C55.5712 41.6955 55.4617 41.9059 55.4419 42.1338C55.4219 42.3617 55.4931 42.5885 55.6398 42.7645C55.7865 42.9404 55.9967 43.051 56.2241 43.072L70.6208 44.388C70.8483 44.4087 71.0744 44.3381 71.2493 44.1916C71.4242 44.0451 71.5336 43.8347 71.5535 43.6068C71.5634 43.4938 71.5509 43.3799 71.5169 43.2716C71.4829 43.1633 71.4279 43.0626 71.3552 42.9754C71.2824 42.8883 71.1933 42.8163 71.0928 42.7635C70.9924 42.7108 70.8826 42.6784 70.7699 42.6682L56.3745 41.3525Z" fill="#354F5C"/>
<path d="M71.3198 52.248C71.2196 52.3004 71.1309 52.3722 71.0585 52.4591C70.9862 52.546 70.9317 52.6465 70.8982 52.7546C70.8647 52.8628 70.8528 52.9767 70.8633 53.0896C70.8737 53.2026 70.9062 53.3125 70.959 53.413C71.0117 53.5135 71.0836 53.6028 71.1706 53.6756C71.2576 53.7484 71.358 53.8034 71.4661 53.8374C71.5742 53.8714 71.6878 53.8837 71.8005 53.8737C71.9132 53.8637 72.0226 53.8315 72.1227 53.779L73.8142 52.8927C74.0163 52.7869 74.1678 52.6049 74.2356 52.3865C74.3033 52.1682 74.2817 51.9316 74.1754 51.7286C74.1227 51.628 74.0508 51.5388 73.9638 51.466C73.8768 51.3932 73.7764 51.3381 73.6683 51.3042C73.5602 51.2702 73.4466 51.2578 73.3339 51.2679C73.2212 51.2779 73.1117 51.31 73.0117 51.3625L71.3198 52.248Z" fill="#354F5C"/>
<path d="M79.2852 63.1479L77.1993 66.7021C77.142 66.7996 77.1045 66.9076 77.0889 67.0198C77.0734 67.1321 77.0801 67.2463 77.1086 67.3562C77.1371 67.466 77.1869 67.5692 77.2551 67.6599C77.3233 67.7505 77.4086 67.827 77.5062 67.8847C77.6037 67.9425 77.7116 67.9805 77.8236 67.9965C77.9357 68.0125 78.0497 68.0062 78.1592 67.9781C78.2686 67.95 78.3714 67.9005 78.4616 67.8324C78.5518 67.7644 78.6278 67.6792 78.685 67.5816L80.7709 64.0274C80.8282 63.9299 80.8657 63.8219 80.8812 63.7097C80.8968 63.5975 80.8901 63.4832 80.8616 63.3734C80.8331 63.2635 80.7833 63.1603 80.7151 63.0697C80.6469 62.979 80.5616 62.9026 80.464 62.8448C80.3665 62.787 80.2586 62.7491 80.1466 62.733C80.0345 62.717 79.9205 62.7233 79.811 62.7514C79.7015 62.7795 79.5988 62.829 79.5086 62.8971C79.4183 62.9651 79.3424 63.0503 79.2852 63.1479Z" fill="#354F5C"/>
<path d="M106.007 38.9886L104.843 40.2094C104.765 40.2913 104.704 40.3878 104.664 40.4935C104.623 40.5991 104.603 40.7118 104.606 40.8252C104.609 40.9386 104.634 41.0503 104.68 41.1541C104.726 41.2579 104.792 41.3517 104.874 41.4302C104.956 41.5086 105.052 41.5702 105.158 41.6113C105.264 41.6525 105.376 41.6724 105.489 41.67C105.602 41.6676 105.714 41.6429 105.817 41.5973C105.921 41.5516 106.014 41.486 106.092 41.4041L107.254 40.1838C107.332 40.102 107.394 40.0054 107.434 39.8998C107.475 39.7941 107.494 39.6814 107.491 39.568C107.489 39.4547 107.464 39.3429 107.418 39.2391C107.372 39.1353 107.306 39.0415 107.224 38.9631C107.058 38.8048 106.837 38.7186 106.609 38.7234C106.381 38.7282 106.164 38.8236 106.007 38.9886Z" fill="#354F5C"/>
<path d="M110.489 46.2325C110.265 46.2749 110.067 46.4049 109.939 46.594C109.811 46.783 109.763 47.0156 109.806 47.2406C109.849 47.4656 109.98 47.6645 110.169 47.7936C110.358 47.9227 110.59 47.9714 110.814 47.9291L112.575 47.5951C112.799 47.5526 112.997 47.4225 113.125 47.2336C113.253 47.0447 113.301 46.8124 113.258 46.5876C113.214 46.3626 113.084 46.1637 112.895 46.0346C112.706 45.9055 112.473 45.8567 112.249 45.8991L110.489 46.2325Z" fill="#354F5C"/>
<path d="M102.552 12.9065C102.326 12.8705 102.096 12.9259 101.911 13.0603C101.727 13.1947 101.604 13.3973 101.569 13.6234L98.743 31.9246C98.7258 32.0365 98.7307 32.1509 98.7575 32.2611C98.7844 32.3714 98.8326 32.4753 98.8994 32.567C98.9663 32.6587 99.0505 32.7364 99.1471 32.7956C99.2438 32.8549 99.3511 32.8945 99.4629 32.9122C99.5747 32.9299 99.6888 32.9254 99.7987 32.8989C99.9086 32.8725 100.012 32.8245 100.103 32.7579C100.195 32.6913 100.272 32.6072 100.331 32.5105C100.389 32.4139 100.428 32.3065 100.446 32.1945L103.272 13.8941C103.289 13.7822 103.284 13.6678 103.257 13.5575C103.23 13.4473 103.182 13.3434 103.115 13.2516C103.048 13.1599 102.964 13.0823 102.868 13.023C102.771 12.9638 102.664 12.9242 102.552 12.9065Z" fill="#354F5C"/>
<path d="M86.2255 13.9573C86.1514 14.0427 86.0949 14.1419 86.0591 14.2493C86.0233 14.3567 86.009 14.4702 86.017 14.5833L86.427 20.277C86.4434 20.5054 86.5495 20.7183 86.7221 20.8688C86.8946 21.0194 87.1196 21.0953 87.3474 21.0799C87.4602 21.0721 87.5703 21.0422 87.6714 20.9918C87.7725 20.9414 87.8627 20.8714 87.9367 20.786C88.0107 20.7006 88.0671 20.6013 88.1028 20.4938C88.1384 20.3864 88.1526 20.2728 88.1444 20.1597L87.7353 14.4655C87.7271 14.3524 87.6969 14.2419 87.6462 14.1404C87.5955 14.0389 87.5253 13.9482 87.4398 13.8737C87.3542 13.7992 87.2549 13.7423 87.1476 13.7062C87.0402 13.67 86.9269 13.6554 86.8141 13.6632C86.5865 13.679 86.3748 13.7848 86.2255 13.9573Z" fill="#354F5C"/>
<path d="M43.9312 89.5509C43.7421 89.6784 43.6115 89.8761 43.5681 90.1006C43.5247 90.3251 43.5721 90.5579 43.6999 90.7481C47.4938 96.3906 52.4622 98.2762 57.8085 97.3823C58.0336 97.3446 58.2342 97.2188 58.3662 97.0325C58.4982 96.8462 58.5508 96.6148 58.5124 96.389C58.4934 96.2771 58.4527 96.17 58.3924 96.0737C58.3322 95.9775 58.2536 95.894 58.1613 95.8281C58.0689 95.7621 57.9646 95.715 57.8543 95.6894C57.7439 95.6638 57.6297 95.6603 57.5181 95.679C52.6964 96.4851 48.6446 95.0179 45.1274 89.7869C45.0641 89.6927 44.9828 89.6119 44.8884 89.5491C44.794 89.4863 44.6883 89.4427 44.5772 89.4208C44.4661 89.3988 44.3519 89.3991 44.241 89.4214C44.1302 89.4437 44.0249 89.4878 43.9312 89.5509Z" fill="#354F5C"/>
<path d="M42.3211 94.4761C42.2468 94.5614 42.1901 94.6606 42.1541 94.7679C42.1182 94.8753 42.1038 94.9888 42.1117 95.102C42.1195 95.2151 42.1495 95.3257 42.2 95.4274C42.2505 95.5291 42.3204 95.6198 42.4058 95.6946C43.0966 96.2996 43.5228 96.9272 43.71 97.4196C43.8972 97.9119 43.8382 98.2094 43.7592 98.3345C43.6803 98.4595 43.5244 98.604 42.943 98.5819C42.3616 98.5597 41.4305 98.3043 40.2212 97.6452C40.0203 97.5356 39.7845 97.5103 39.5656 97.5748C39.3467 97.6394 39.1626 97.7885 39.054 97.9895C39.0001 98.089 38.9664 98.1984 38.9547 98.3112C38.943 98.424 38.9537 98.5381 38.986 98.6469C39.0184 98.7558 39.0719 98.8573 39.1433 98.9455C39.2148 99.0338 39.3028 99.1072 39.4024 99.1615C40.7653 99.9043 41.9051 100.27 42.8847 100.307C43.8643 100.344 44.7591 99.9859 45.2161 99.2619C45.6731 98.5379 45.6355 97.6409 45.3195 96.81C45.0035 95.9791 44.4025 95.1548 43.537 94.3967C43.4517 94.3218 43.3525 94.2644 43.2452 94.2279C43.1379 94.1913 43.0245 94.1763 42.9116 94.1837C42.7987 94.1911 42.6884 94.2207 42.5871 94.2709C42.4857 94.3211 42.3954 94.3908 42.3211 94.4761Z" fill="#354F5C"/>
<path d="M36.9697 89.8247C35.5531 91.1454 34.7925 92.774 34.5623 94.5178C34.5474 94.6301 34.5548 94.7444 34.584 94.8541C34.6131 94.9638 34.6635 95.0667 34.7323 95.157C34.8011 95.2472 34.887 95.3231 34.9849 95.3803C35.0828 95.4374 35.191 95.4747 35.3032 95.49C35.4153 95.5053 35.5293 95.4984 35.6386 95.4695C35.748 95.4407 35.8504 95.3906 35.9403 95.3219C36.0301 95.2533 36.1055 95.1676 36.1621 95.0697C36.2187 94.9717 36.2555 94.8635 36.2704 94.7511C36.4564 93.342 37.008 92.1508 38.1452 91.0905C38.2279 91.0135 38.2946 90.9208 38.3415 90.8178C38.3883 90.7147 38.4144 90.6034 38.4183 90.4901C38.4222 90.3767 38.4037 90.2637 38.364 90.1573C38.3243 90.051 38.2641 89.9535 38.1869 89.8703C38.0309 89.7025 37.815 89.6035 37.5867 89.5949C37.3585 89.5864 37.1365 89.669 36.9697 89.8247Z" fill="#354F5C"/>
<path d="M48.6229 109.439C48.4141 109.531 48.2508 109.702 48.1688 109.916C48.0867 110.129 48.0926 110.366 48.185 110.576C48.2775 110.785 48.4491 110.95 48.662 111.033C50.0089 111.559 51.364 111.782 52.675 111.535C53.9861 111.288 55.214 110.563 56.2671 109.364C56.4177 109.193 56.494 108.968 56.4791 108.74C56.4643 108.511 56.3595 108.298 56.1879 108.146C56.0162 107.994 55.7917 107.917 55.5638 107.931C55.3359 107.945 55.1232 108.049 54.9726 108.221C54.1208 109.19 53.2663 109.667 52.351 109.839C51.4357 110.011 50.4193 109.868 49.2822 109.424C49.1766 109.383 49.064 109.363 48.9509 109.366C48.8377 109.368 48.7263 109.393 48.6229 109.439Z" fill="#354F5C"/>
<path d="M54.62 99.7342C54.4322 99.8639 54.3039 100.063 54.2631 100.288C54.2224 100.513 54.2725 100.746 54.4026 100.934C58.3526 106.668 59.5383 111.526 58.4866 114.947C57.4349 118.368 54.1699 120.68 48.3759 121.329C48.149 121.354 47.9418 121.469 47.7999 121.648C47.658 121.827 47.593 122.055 47.6192 122.282C47.6455 122.51 47.7608 122.718 47.9398 122.861C48.1187 123.004 48.3467 123.07 48.5736 123.044C54.7607 122.351 58.8455 119.648 60.1328 115.461C61.4201 111.274 59.9339 105.931 55.8184 99.9566C55.6883 99.768 55.4889 99.6386 55.2642 99.5969C55.0394 99.5552 54.8077 99.6046 54.62 99.7342Z" fill="#354F5C"/>
<path d="M26.931 63.6344C22.1233 66.3084 18.4458 71.4491 17.5371 80.8776C12.326 81.7097 7.27913 84.6713 4.41507 89.1419C1.55317 93.609 1.03243 99.5786 4.72316 105.869C3.94888 106.262 2.84707 106.917 1.7459 108.233C0.0892134 110.212 -0.946696 113.51 1.25884 117.779C5.56389 126.122 13.5845 130.081 21.3001 130.682C29.6482 131.332 38.932 126.194 41.864 115.035C42.0241 114.427 42.0762 113.913 41.9013 113.408C41.7263 112.903 41.2052 112.51 40.7493 112.433C39.8377 112.278 39.1493 112.693 38.5502 113.123C36.6295 114.503 34.7069 115.086 33.0237 114.722C31.3405 114.358 29.7298 113.056 28.422 110.157C27.5498 108.224 27.8458 106.994 28.3875 106.366C28.9292 105.738 29.7983 105.556 30.7356 106.064L30.7361 106.065C31.6403 106.552 33.4462 107.496 35.3249 108.205C36.2643 108.559 37.221 108.857 38.1242 109.003C39.0274 109.15 39.8969 109.176 40.6769 108.787C42.1095 108.072 42.7298 106.588 42.5038 105.187C42.278 103.787 41.4093 102.407 40.1559 101.189L40.1554 101.189C38.7342 99.8052 36.6304 98.216 34.944 96.4372C33.2574 94.6581 32.0767 92.7708 32.2145 90.8932L32.214 90.8924C32.3057 89.6223 33.0559 88.7903 34.3913 87.9269C35.7268 87.0634 37.5793 86.2928 39.4366 85.3136C41.7509 84.0935 43.8854 82.1033 45.0158 79.4407C46.1463 76.7781 46.2142 73.4537 44.4895 69.8082C41.3109 63.0961 34.9149 60.3271 29.1033 62.6129C28.3586 62.9059 27.6322 63.2444 26.9295 63.6352L26.931 63.6344ZM27.754 65.1405C28.3939 64.7922 29.0568 64.4878 29.7391 64.2193C34.7348 62.2545 40.0527 64.4555 42.9355 70.5428C44.4828 73.8134 44.3769 76.5345 43.4324 78.759C42.4881 80.9834 40.6472 82.7212 38.631 83.7841C36.8673 84.714 34.996 85.4788 33.4553 86.4749C31.9147 87.471 30.6365 88.8231 30.4965 90.7602C30.3027 93.4098 31.8752 95.7001 33.6982 97.6231C35.5215 99.5464 37.6838 101.184 38.9588 102.425L38.9593 102.426C40.0183 103.455 40.6659 104.603 40.8037 105.457C40.9414 106.311 40.7723 106.808 39.904 107.241C39.6726 107.356 39.1158 107.417 38.3923 107.3C37.6688 107.182 36.7985 106.92 35.9262 106.591C34.1819 105.933 32.4254 105.018 31.5487 104.545L31.5482 104.544C29.9999 103.706 28.153 103.992 27.0813 105.234C26.0095 106.477 25.7956 108.522 26.8517 110.863C28.3048 114.084 30.3544 115.911 32.6656 116.41C34.9765 116.91 37.3812 116.092 39.5569 114.529C39.8335 114.33 40.0765 114.282 40.2418 114.233C40.2409 114.333 40.2628 114.345 40.1984 114.589C37.4591 125.014 28.9844 129.549 21.4263 128.961C14.1976 128.398 6.79333 124.754 2.78758 116.991L2.78708 116.99C0.83289 113.208 1.74028 110.93 3.06692 109.345C4.39359 107.76 6.22159 107.037 6.22159 107.037C6.34077 106.991 6.44815 106.919 6.53591 106.826C6.62367 106.733 6.68961 106.622 6.72896 106.5C6.76832 106.379 6.78009 106.249 6.76343 106.122C6.74676 105.995 6.70206 105.873 6.63261 105.765C2.68116 99.632 3.19908 94.2403 5.86522 90.0787C8.53134 85.9171 13.4781 83.0429 18.4202 82.4359C18.6164 82.4117 18.7981 82.3206 18.9347 82.1779C19.0714 82.0351 19.1546 81.8493 19.1706 81.6518C19.9367 72.1694 23.2737 67.579 27.7531 65.141L27.754 65.1405Z" fill="#354F5C"/>
<path fill-rule="evenodd" clip-rule="evenodd" d="M18.3131 81.5791C7.92306 82.8553 -2.28991 93.5039 5.9101 106.232C5.9101 106.232 -2.13641 109.335 2.02327 117.385C6.1787 125.438 13.8917 129.24 21.3639 129.823C29.3169 130.441 38.1959 125.604 41.0316 114.813C41.5755 112.746 40.0213 113.132 39.0542 113.827C34.9577 116.77 30.3977 116.63 27.6368 110.511C25.7085 106.237 28.6569 103.959 31.1426 105.305C32.9235 106.266 38.2682 109.024 40.2911 108.014C42.5919 106.867 41.8706 104.054 39.5577 101.808C36.8615 99.183 31.0236 95.3546 31.3558 90.8269C31.5875 87.6196 35.4135 86.4588 39.0344 84.5495C43.3649 82.2666 46.9853 77.092 43.7132 70.1759C40.6826 63.7762 34.8256 61.2914 29.422 63.4167C23.7132 65.6624 19.2058 70.5296 18.3131 81.5791Z" fill="#354F5C"/>
<path d="M48.0079 138.817C45.1313 140.131 43.5745 142.392 42.8349 144.499C41.8487 147.307 42.1682 149.904 42.1682 149.904C42.1815 150.017 42.2168 150.126 42.2721 150.225C42.3275 150.324 42.4017 150.411 42.4906 150.482C42.5795 150.552 42.6813 150.605 42.7903 150.636C42.8992 150.667 43.0131 150.676 43.1254 150.663C43.2378 150.65 43.3466 150.615 43.4453 150.56C43.544 150.505 43.6308 150.431 43.7008 150.342C43.7707 150.253 43.8225 150.151 43.853 150.042C43.8836 149.933 43.8924 149.819 43.8789 149.706C43.8789 149.706 43.6228 147.462 44.4605 145.077C45.2982 142.691 47.0835 140.231 51.5983 139.568C61.5471 138.109 67.7323 138.051 70.5617 137.872C71.7886 137.795 73.122 137.502 73.9726 136.484C74.3979 135.976 74.6384 135.266 74.5854 134.506C74.5324 133.745 74.2272 132.94 73.6696 132.042C73.5488 131.847 73.3559 131.708 73.1334 131.656C72.9109 131.603 72.677 131.641 72.4831 131.761C72.2893 131.882 72.1514 132.074 72.0998 132.297C72.0481 132.52 72.0869 132.755 72.2078 132.949C72.6662 133.688 72.8415 134.249 72.8674 134.62C72.8932 134.991 72.8114 135.179 72.6499 135.373C72.327 135.759 71.4267 136.087 70.447 136.149C67.7552 136.319 61.3866 136.386 51.3432 137.859C50.0724 138.045 48.9675 138.378 48.0087 138.816L48.0079 138.817Z" fill="#354F5C"/>
<path d="M110.866 184.84C110.308 185.053 110.074 185.59 109.994 186.026C109.914 186.462 109.933 186.923 110.005 187.46C110.005 187.461 110.005 187.461 110.005 187.461C110.359 190.095 109.711 194.106 107.765 195.794C106.768 196.659 105.086 197.363 103.672 197.802C102.257 198.241 101.133 198.434 101.133 198.434C101.021 198.453 100.915 198.494 100.819 198.555C100.724 198.615 100.641 198.694 100.576 198.787C100.511 198.879 100.465 198.984 100.441 199.094C100.416 199.205 100.414 199.32 100.433 199.431C100.453 199.543 100.494 199.65 100.555 199.746C100.616 199.842 100.695 199.925 100.787 199.99C100.88 200.056 100.984 200.102 101.095 200.127C101.205 200.152 101.32 200.155 101.431 200.136C101.431 200.136 102.662 199.924 104.187 199.451C105.712 198.978 107.553 198.265 108.894 197.101C111.623 194.735 112.127 190.321 111.713 187.238L111.712 187.237C111.687 187.049 111.705 186.985 111.701 186.844C111.869 186.991 112.011 187.092 112.25 187.37C112.943 188.179 113.703 189.668 114.695 190.735C115.192 191.269 115.807 191.757 116.623 191.818C117.44 191.879 118.242 191.438 118.924 190.664C121.302 187.965 122.511 185.771 122.511 185.771C122.621 185.571 122.648 185.335 122.584 185.115C122.521 184.895 122.373 184.709 122.173 184.598C122.074 184.543 121.965 184.508 121.853 184.495C121.74 184.482 121.626 184.491 121.518 184.522C121.409 184.553 121.308 184.605 121.219 184.676C121.131 184.746 121.057 184.834 121.003 184.933C121.003 184.933 119.896 186.946 117.631 189.519C117.15 190.064 116.902 190.109 116.745 190.097C116.588 190.085 116.308 189.941 115.954 189.56C115.245 188.798 114.48 187.327 113.554 186.247C113.554 186.247 113.554 186.246 113.553 186.245C113.116 185.737 112.731 185.366 112.331 185.104C111.931 184.842 111.424 184.627 110.866 184.84Z" fill="#354F5C"/>
<path fill-rule="evenodd" clip-rule="evenodd" d="M80.6506 139.359C80.72 139.479 80.7652 139.612 80.7835 139.749C80.8018 139.887 80.793 140.026 80.7574 140.16C80.7218 140.294 80.6603 140.42 80.5762 140.53C80.4922 140.64 80.3873 140.732 80.2676 140.801C80.1478 140.87 80.0156 140.915 79.8784 140.933C79.7412 140.95 79.6018 140.941 79.468 140.905C79.3343 140.869 79.2088 140.806 79.0988 140.722C78.9889 140.637 78.8965 140.532 78.8271 140.411C78.7577 140.291 78.7125 140.158 78.6942 140.021C78.6758 139.883 78.6847 139.744 78.7203 139.61C78.7558 139.476 78.8174 139.35 78.9015 139.24C78.9855 139.131 79.0904 139.038 79.2101 138.969C79.3298 138.9 79.4621 138.855 79.5993 138.838C79.7364 138.82 79.8759 138.829 80.0096 138.865C80.1434 138.901 80.2689 138.964 80.3788 139.048C80.4888 139.133 80.5811 139.238 80.6506 139.359Z" fill="#354F5C"/>
<path fill-rule="evenodd" clip-rule="evenodd" d="M86.6334 145.508C86.7736 145.751 86.8121 146.04 86.7402 146.31C86.6684 146.581 86.4922 146.811 86.2504 146.951C86.1307 147.02 85.9985 147.064 85.8613 147.082C85.7241 147.1 85.5846 147.091 85.4509 147.055C85.3171 147.018 85.1917 146.956 85.0817 146.872C84.9717 146.787 84.8794 146.681 84.81 146.561C84.7405 146.441 84.6954 146.308 84.677 146.171C84.6587 146.033 84.6676 145.893 84.7031 145.759C84.7387 145.625 84.8003 145.5 84.8843 145.39C84.9684 145.28 85.0732 145.188 85.193 145.119C85.4348 144.979 85.7224 144.942 85.9925 145.015C86.2627 145.088 86.4932 145.266 86.6334 145.508Z" fill="#354F5C"/>
<path fill-rule="evenodd" clip-rule="evenodd" d="M92.0493 152.55C92.1187 152.67 92.1639 152.803 92.1822 152.941C92.2006 153.078 92.1917 153.218 92.1561 153.352C92.1205 153.486 92.059 153.611 91.9749 153.721C91.8909 153.831 91.786 153.923 91.6663 153.992C91.5466 154.061 91.4143 154.106 91.2771 154.124C91.1399 154.142 91.0005 154.132 90.8667 154.096C90.733 154.06 90.6075 153.998 90.4975 153.913C90.3876 153.829 90.2953 153.723 90.2258 153.603C90.1564 153.483 90.1112 153.35 90.0929 153.212C90.0745 153.075 90.0834 152.935 90.119 152.801C90.1546 152.667 90.2161 152.542 90.3002 152.432C90.3842 152.322 90.4891 152.23 90.6088 152.161C90.7285 152.092 90.8608 152.047 90.998 152.029C91.1352 152.011 91.2746 152.021 91.4084 152.057C91.5421 152.093 91.6676 152.155 91.7776 152.24C91.8875 152.324 91.9798 152.43 92.0493 152.55Z" fill="#354F5C"/>
<path fill-rule="evenodd" clip-rule="evenodd" d="M96.8655 159.431C96.935 159.552 96.9801 159.684 96.9984 159.822C97.0168 159.959 97.0079 160.099 96.9724 160.233C96.9368 160.367 96.8752 160.492 96.7911 160.602C96.7071 160.712 96.6022 160.804 96.4825 160.874C96.3628 160.943 96.2305 160.987 96.0933 161.005C95.9562 161.023 95.8167 161.014 95.683 160.978C95.5492 160.941 95.4237 160.879 95.3138 160.794C95.2038 160.71 95.1115 160.604 95.042 160.484C94.9726 160.364 94.9274 160.231 94.9091 160.094C94.8908 159.956 94.8996 159.816 94.9352 159.682C94.9708 159.548 95.0323 159.423 95.1164 159.313C95.2004 159.203 95.3053 159.111 95.425 159.042C95.5448 158.973 95.677 158.928 95.8142 158.91C95.9514 158.892 96.0909 158.902 96.2246 158.938C96.3584 158.974 96.4838 159.036 96.5938 159.121C96.7037 159.206 96.7961 159.311 96.8655 159.431Z" fill="#354F5C"/>
<path fill-rule="evenodd" clip-rule="evenodd" d="M100.882 166.095C100.951 166.216 100.996 166.348 101.015 166.486C101.033 166.624 101.024 166.763 100.989 166.897C100.953 167.031 100.891 167.157 100.807 167.267C100.723 167.376 100.618 167.469 100.499 167.538C100.379 167.607 100.247 167.652 100.11 167.669C99.9724 167.687 99.8329 167.678 99.6992 167.642C99.5654 167.606 99.4399 167.543 99.33 167.459C99.22 167.374 99.1277 167.269 99.0582 167.148C98.9888 167.028 98.9436 166.895 98.9253 166.758C98.907 166.62 98.9158 166.48 98.9514 166.347C98.987 166.213 99.0485 166.087 99.1326 165.977C99.2166 165.867 99.3215 165.775 99.4412 165.706C99.561 165.637 99.6932 165.592 99.8304 165.574C99.9676 165.557 100.107 165.566 100.241 165.602C100.375 165.638 100.5 165.7 100.61 165.785C100.72 165.87 100.812 165.975 100.882 166.095Z" fill="#354F5C"/>
<path fill-rule="evenodd" clip-rule="evenodd" d="M105.645 173.176C105.714 173.297 105.759 173.429 105.778 173.567C105.796 173.704 105.787 173.844 105.751 173.978C105.716 174.112 105.654 174.237 105.57 174.347C105.486 174.457 105.381 174.549 105.262 174.618C105.142 174.688 105.01 174.732 104.873 174.75C104.735 174.768 104.596 174.759 104.462 174.722C104.328 174.686 104.203 174.624 104.093 174.539C103.983 174.455 103.891 174.349 103.821 174.229C103.752 174.109 103.707 173.976 103.688 173.839C103.67 173.701 103.679 173.561 103.714 173.427C103.75 173.293 103.811 173.168 103.896 173.058C103.98 172.948 104.084 172.856 104.204 172.787C104.324 172.718 104.456 172.673 104.593 172.655C104.731 172.637 104.87 172.647 105.004 172.683C105.137 172.719 105.263 172.781 105.373 172.866C105.483 172.951 105.575 173.056 105.645 173.176Z" fill="#354F5C"/>
<path fill-rule="evenodd" clip-rule="evenodd" d="M109.586 180.392C109.656 180.512 109.701 180.645 109.719 180.783C109.738 180.92 109.729 181.06 109.693 181.194C109.658 181.328 109.596 181.453 109.512 181.563C109.428 181.673 109.323 181.765 109.203 181.834C109.084 181.903 108.951 181.948 108.814 181.966C108.677 181.984 108.537 181.974 108.404 181.938C108.27 181.902 108.145 181.84 108.035 181.755C107.925 181.671 107.832 181.565 107.763 181.445C107.693 181.325 107.648 181.192 107.63 181.054C107.612 180.917 107.62 180.777 107.656 180.643C107.692 180.509 107.753 180.384 107.837 180.274C107.921 180.164 108.026 180.072 108.146 180.003C108.266 179.933 108.398 179.889 108.535 179.871C108.672 179.853 108.812 179.862 108.945 179.899C109.079 179.935 109.205 179.997 109.315 180.082C109.425 180.166 109.517 180.272 109.586 180.392Z" fill="#354F5C"/>
<path fill-rule="evenodd" clip-rule="evenodd" d="M102.192 206.842C100.184 207.868 84.1738 218.869 71.4748 213.56C58.7755 208.25 48.8477 199.609 45.6978 178.323C43.9219 166.328 44.3674 154.996 45.4486 147.075C45.8675 143.986 47.8647 142.951 53.1131 142.268C59.2949 141.461 72.1066 140.663 83.3167 150.463C89.2188 155.621 97.321 167.374 101.844 183.644C104.13 191.862 104.559 200.353 104.41 204.096C104.371 205.179 103.836 206.003 102.192 206.842ZM66.317 160.595C67.8489 156.257 70.2135 152.634 73.9376 150.176C74.3323 149.916 74.4424 149.379 74.1789 148.981C73.9153 148.584 73.3802 148.473 72.9855 148.734C68.9449 151.401 66.3535 155.309 64.6925 160.013C64.532 160.463 64.771 160.956 65.2165 161.118C65.6664 161.277 66.1565 161.045 66.317 160.595ZM64.4095 170.929C62.9577 169.339 64.8679 180.976 65.6762 184.559C66.4846 188.142 68.1401 191.127 70.531 191.591C74.9025 192.437 79.4853 191.122 81.0473 190.474C82.3208 189.947 81.5168 188.977 80.808 189.224C80.3165 189.396 78.655 189.959 77.097 190.289C75.4934 190.629 74.3292 190.549 73.1868 187.882C71.9509 184.994 64.4095 170.929 64.4095 170.929Z" fill="#354F5C"/>
<path d="M54.7575 119.441C54.5705 119.572 54.4432 119.772 54.4035 119.997C54.3639 120.222 54.4152 120.454 54.5462 120.642C57.0823 124.279 59.7028 126.588 62.4479 127.703C65.193 128.817 68.0307 128.683 70.7777 127.581C70.8826 127.539 70.9782 127.477 71.0589 127.398C71.1397 127.319 71.204 127.224 71.2483 127.12C71.2926 127.016 71.3158 126.904 71.3169 126.791C71.318 126.677 71.2967 126.565 71.2544 126.459C71.2121 126.354 71.1495 126.258 71.0702 126.177C70.9909 126.096 70.8964 126.031 70.7922 125.986C70.688 125.941 70.5761 125.918 70.4629 125.916C70.3498 125.915 70.2375 125.936 70.1326 125.978C67.7077 126.95 65.4173 127.048 63.0902 126.104C60.7631 125.159 58.3685 123.116 55.9568 119.657C55.8257 119.47 55.6258 119.341 55.4009 119.301C55.176 119.26 54.9446 119.311 54.7575 119.441Z" fill="#354F5C"/>
<path fill-rule="evenodd" clip-rule="evenodd" d="M62.9145 126.962C62.9145 126.962 74.0433 122.334 78.8611 113.373C83.0011 105.667 93.527 92.1091 89.2178 69.5521C88.5506 66.0365 90.4884 66.1973 92.7419 66.0298C94.5338 65.8985 104.762 65.6506 106.603 65.8988C108.124 66.105 108.734 67.5937 109.098 69.2757C109.457 70.9601 112.79 82.1415 110.703 101.554C109.47 113.036 104.91 123.458 97.8069 132.983C97.1289 133.893 96.3027 133.839 95.3058 133.174C92.6366 131.392 84.1053 126.596 80.251 125.407C79.5525 125.19 78.7263 126.237 79.9397 126.795C83.1927 128.28 110.655 137.774 141.184 179.738C142.921 182.127 141.975 183.753 139.753 185.578C137.532 187.403 129.332 192.463 127.558 192.763C125.789 193.062 124.329 192.097 122.9 189.74C121.467 187.385 103.074 161.299 94.9131 150.783C86.7565 140.264 82.0163 131.748 66.0959 127.615C65.033 127.583 63.9734 127.37 62.9145 126.962Z" fill="#354F5C"/>
<path d="M90.2242 48.0943C89.9794 48.3155 89.7844 48.6023 89.6725 48.9151C89.4488 49.5407 89.4259 50.278 89.5412 51.2227C89.998 55.0219 92.0927 59.1545 93.0752 60.8562C93.1898 61.0547 93.3782 61.1997 93.5989 61.2594C93.8197 61.3191 94.0547 61.2885 94.2524 61.1744C94.45 61.0603 94.594 60.8721 94.6527 60.651C94.7114 60.43 94.68 60.1943 94.5654 59.9958C93.669 58.4433 91.6474 54.3229 91.2508 51.0209L91.2503 51.02C91.1541 50.2314 91.2169 49.7192 91.294 49.5035C91.3712 49.2878 91.3297 49.3775 91.3502 49.3742C91.3705 49.3711 91.5865 49.3881 91.8919 49.5693C92.1968 49.7503 92.5725 50.0657 92.9351 50.4716C94.4627 52.1901 97.756 56.9286 99.7704 60.3596L99.7714 60.3613C100.451 61.5146 100.518 63.1852 100.349 64.5771C100.181 65.969 99.8202 67.0176 99.8202 67.0176C99.7832 67.1246 99.7677 67.2379 99.7745 67.3511C99.7813 67.4643 99.8103 67.5752 99.8598 67.6773C99.9093 67.7795 99.9783 67.8709 100.063 67.9465C100.148 68.022 100.246 68.0801 100.353 68.1175C100.569 68.1929 100.806 68.1795 101.011 68.0802C101.216 67.9809 101.373 67.8039 101.448 67.588C101.448 67.588 101.868 66.3751 102.06 64.7913C102.251 63.2078 102.256 61.1894 101.254 59.4884L101.254 59.4876C99.1777 55.9516 95.9631 51.2872 94.2195 49.3258L94.2185 49.3241C93.7618 48.8124 93.2768 48.3881 92.7656 48.0848C92.2544 47.7814 91.6983 47.5699 91.0751 47.6687C90.7636 47.7181 90.4682 47.8735 90.2234 48.0947L90.2242 48.0943Z" fill="#354F5C"/>
<path d="M78.0291 30.1031C77.3737 30.33 77.0417 31.0292 77.0039 31.646C76.9661 32.2628 77.113 32.9326 77.4145 33.711C77.4148 33.7116 77.4151 33.7122 77.4154 33.7127C78.5084 36.5215 81.7022 44.6782 85.5913 52.4925C89.3593 60.0634 90.0903 68.7945 90.0903 68.7945C90.0995 68.9075 90.1309 69.0177 90.1826 69.1188C90.2343 69.2198 90.3054 69.3097 90.3916 69.3834C90.4779 69.4571 90.5778 69.513 90.6855 69.5481C90.7933 69.5831 90.9067 69.5966 91.0195 69.5877C91.2472 69.57 91.4581 69.4623 91.606 69.2884C91.7539 69.1145 91.8265 68.8885 91.8079 68.6603C91.8079 68.6603 91.097 59.6918 87.1331 51.7271C83.29 44.0054 80.1108 35.8935 79.0203 33.0913L79.0198 33.0905C78.789 32.494 78.7306 32.0573 78.7367 31.8184C78.7825 31.8309 78.735 31.8056 78.9177 31.9266C79.2423 32.1398 79.709 32.571 80.2298 33.2427C82.4629 36.1233 89.2153 45.069 91.8998 49.4784C92.0189 49.6741 92.2105 49.8147 92.4324 49.8693C92.6544 49.9239 92.8886 49.888 93.0835 49.7695C93.18 49.7107 93.264 49.6334 93.3305 49.542C93.3971 49.4506 93.4451 49.3468 93.4716 49.2367C93.4981 49.1265 93.5026 49.0122 93.485 48.9001C93.4674 48.788 93.4279 48.6804 93.3689 48.5835C90.5571 43.9648 83.8482 35.1021 81.5887 32.1876C80.9863 31.4105 80.4193 30.8518 79.8586 30.4835C79.298 30.1151 78.6844 29.8761 78.0291 30.1031Z" fill="#354F5C"/>
<path d="M92.4667 45.5866C92.1509 45.9121 91.9236 46.328 91.8258 46.783C91.6303 47.6929 91.8327 48.7317 92.3887 49.8493C92.4907 50.0544 92.6697 50.2108 92.8863 50.2842C93.1028 50.3575 93.3393 50.3418 93.5437 50.2404C93.748 50.139 93.9034 49.9602 93.9757 49.7434C94.0481 49.5266 94.0315 49.2896 93.9295 49.0844C93.4956 48.2121 93.429 47.5281 93.5096 47.1529C93.5902 46.7777 93.6981 46.6857 93.9857 46.6274C94.2733 46.5692 94.8475 46.648 95.5993 47.1369C96.3511 47.6259 97.2584 48.503 98.1935 49.8634C100.621 53.3944 104.208 55.8294 104.208 55.8294C104.302 55.8936 104.407 55.9388 104.518 55.9623C104.628 55.9858 104.743 55.9872 104.854 55.9665C104.965 55.9458 105.071 55.9033 105.166 55.8414C105.26 55.7795 105.342 55.6996 105.405 55.606C105.469 55.5126 105.514 55.4073 105.537 55.2964C105.56 55.1854 105.561 55.0709 105.54 54.9594C105.518 54.8479 105.476 54.7416 105.414 54.6466C105.351 54.5515 105.271 54.4695 105.178 54.4054C105.178 54.4054 101.794 52.0627 99.6116 48.8877C98.5783 47.3845 97.5362 46.3431 96.5327 45.6904C95.5292 45.0377 94.5419 44.7517 93.6382 44.9348C93.1864 45.0263 92.7825 45.2612 92.4667 45.5866Z" fill="#354F5C"/>
<path d="M165.634 82.0913C165.414 82.1499 165.226 82.294 165.112 82.4918C164.997 82.6897 164.967 82.9251 165.026 83.1464C171.528 107.527 181.473 131.672 192.22 155.745C192.266 155.849 192.332 155.943 192.414 156.021C192.496 156.099 192.593 156.161 192.699 156.201C192.805 156.242 192.917 156.262 193.031 156.259C193.144 156.256 193.255 156.231 193.358 156.185C193.567 156.092 193.729 155.92 193.811 155.706C193.892 155.493 193.885 155.255 193.792 155.046C183.059 131.003 173.151 106.936 166.689 82.7064C166.66 82.5967 166.609 82.4938 166.54 82.4036C166.472 82.3134 166.386 82.2375 166.288 82.1804C166.19 82.1233 166.082 82.086 165.97 82.0708C165.857 82.0555 165.743 82.0625 165.634 82.0913Z" fill="#354F5C"/>
<path d="M192.255 126.207C190.562 126.956 189.271 128.193 188.28 129.684C188.217 129.778 188.174 129.883 188.152 129.995C188.13 130.106 188.13 130.22 188.153 130.331C188.175 130.443 188.219 130.548 188.282 130.643C188.345 130.737 188.426 130.818 188.52 130.881C188.614 130.945 188.72 130.989 188.831 131.011C188.942 131.033 189.056 131.033 189.167 131.011C189.278 130.989 189.383 130.946 189.477 130.883C189.571 130.82 189.652 130.739 189.714 130.645C190.571 129.358 191.602 128.386 192.957 127.786C193.06 127.741 193.153 127.675 193.231 127.593C193.309 127.511 193.37 127.414 193.41 127.309C193.451 127.203 193.47 127.09 193.467 126.977C193.464 126.864 193.439 126.752 193.393 126.648C193.347 126.544 193.281 126.451 193.199 126.372C193.117 126.294 193.02 126.233 192.914 126.192C192.809 126.151 192.696 126.131 192.583 126.134C192.47 126.136 192.359 126.161 192.255 126.207Z" fill="#354F5C"/>
<path d="M221.355 109.014C219.686 109.875 218.095 110.904 216.59 112.113C216.502 112.183 216.428 112.271 216.374 112.37C216.32 112.47 216.286 112.579 216.273 112.691C216.261 112.804 216.271 112.918 216.303 113.027C216.335 113.136 216.388 113.238 216.459 113.326C216.602 113.505 216.811 113.62 217.038 113.645C217.265 113.67 217.492 113.604 217.67 113.461C220.502 111.188 223.645 109.593 227.074 108.583C227.292 108.519 227.476 108.37 227.585 108.169C227.693 107.968 227.718 107.732 227.653 107.513C227.588 107.293 227.439 107.108 227.238 106.998C227.037 106.888 226.801 106.863 226.582 106.927C224.769 107.461 223.023 108.153 221.355 109.014Z" fill="#354F5C"/>
<path d="M204.597 77.3455C204.448 77.5183 204.374 77.7436 204.391 77.972C204.408 78.2003 204.514 78.413 204.687 78.5632C219.316 91.259 232.455 106.274 245.131 122.043C245.275 122.221 245.483 122.335 245.71 122.36C245.937 122.385 246.165 122.319 246.342 122.175C246.43 122.104 246.503 122.017 246.557 121.917C246.611 121.818 246.645 121.709 246.657 121.596C246.669 121.483 246.659 121.369 246.627 121.261C246.595 121.152 246.542 121.05 246.471 120.962C233.765 105.156 220.563 90.0624 205.812 77.26C205.639 77.1099 205.414 77.0346 205.186 77.0506C204.958 77.0666 204.747 77.1727 204.597 77.3455Z" fill="#354F5C"/>
<path d="M169.41 63.8282C169.336 63.9135 169.279 64.0128 169.243 64.1202C169.208 64.2276 169.193 64.3411 169.201 64.4542C169.201 64.4542 169.498 68.8178 172.411 72.672C173.914 74.6592 175.908 75.7581 177.808 75.667C179.709 75.5758 181.372 74.1144 181.831 71.7038C182.692 67.2064 181.905 62.1677 186.113 56.403C186.18 56.3116 186.228 56.2079 186.255 56.0978C186.281 55.9876 186.286 55.8732 186.269 55.761C186.251 55.6489 186.212 55.5412 186.153 55.4441C186.094 55.347 186.016 55.2625 185.925 55.1953C185.74 55.0599 185.51 55.0033 185.284 55.0379C185.059 55.0724 184.856 55.1954 184.722 55.3798C180.169 61.6164 180.913 67.334 180.14 71.3728L180.141 71.3736C179.787 73.2292 178.876 73.887 177.721 73.9423C176.565 73.9977 175.022 73.27 173.784 71.6325C171.217 68.2364 170.921 64.3368 170.921 64.3368C170.913 64.2237 170.883 64.1132 170.832 64.0117C170.781 63.9102 170.711 63.8195 170.625 63.745C170.54 63.6705 170.441 63.6136 170.333 63.5774C170.226 63.5413 170.113 63.5267 170 63.5344C169.772 63.55 169.56 63.6555 169.411 63.8278L169.41 63.8282Z" fill="#354F5C"/>
<path d="M178.124 73.8912C178.015 73.92 177.912 73.9702 177.823 74.0389C177.733 74.1075 177.657 74.1932 177.601 74.2911C177.544 74.3891 177.507 74.4973 177.493 74.6097C177.478 74.722 177.485 74.8362 177.515 74.9459C179.454 82.2392 183.784 88.9816 187.893 95.6858C188.013 95.8812 188.205 96.0212 188.427 96.075C188.649 96.1289 188.883 96.0921 189.078 95.973C189.174 95.9139 189.258 95.8363 189.324 95.7446C189.391 95.6529 189.438 95.549 189.464 95.4388C189.49 95.3286 189.495 95.2141 189.477 95.1021C189.459 94.9901 189.419 94.8826 189.359 94.7858C185.239 88.0627 181.021 81.4344 179.178 74.5075C179.149 74.3978 179.099 74.2948 179.03 74.2044C178.962 74.1141 178.876 74.0381 178.778 73.9809C178.68 73.9236 178.572 73.8862 178.46 73.8709C178.347 73.8555 178.233 73.8624 178.124 73.8912Z" fill="#354F5C"/>
<path fill-rule="evenodd" clip-rule="evenodd" d="M184.079 76.8829C184.238 77.1577 184.281 77.4839 184.2 77.7899C184.119 78.0958 183.919 78.3565 183.646 78.5144C183.372 78.6723 183.047 78.7146 182.741 78.632C182.436 78.5494 182.175 78.3487 182.016 78.0739C181.858 77.7991 181.814 77.4729 181.895 77.1669C181.977 76.8609 182.176 76.6003 182.45 76.4424C182.723 76.2845 183.048 76.2421 183.354 76.3248C183.66 76.4074 183.92 76.6082 184.079 76.8829Z" fill="#354F5C"/>
<path fill-rule="evenodd" clip-rule="evenodd" d="M187.885 83.8248C188.044 84.0996 188.087 84.4258 188.006 84.7318C187.925 85.0378 187.725 85.2984 187.452 85.4563C187.178 85.6143 186.853 85.6566 186.547 85.5739C186.242 85.4913 185.981 85.2906 185.822 85.0158C185.664 84.7411 185.62 84.4148 185.701 84.1088C185.783 83.8029 185.982 83.5423 186.256 83.3843C186.529 83.2264 186.855 83.1841 187.16 83.2667C187.466 83.3493 187.727 83.5501 187.885 83.8248Z" fill="#354F5C"/>
<path fill-rule="evenodd" clip-rule="evenodd" d="M191.769 91.0993C191.928 91.374 191.971 91.7003 191.89 92.0062C191.809 92.3122 191.609 92.5728 191.336 92.7308C191.062 92.8887 190.737 92.931 190.431 92.8484C190.126 92.7658 189.865 92.565 189.706 92.2903C189.547 92.0155 189.504 91.6893 189.585 91.3833C189.666 91.0773 189.866 90.8167 190.139 90.6588C190.413 90.5008 190.738 90.4585 191.044 90.5411C191.35 90.6237 191.61 90.8245 191.769 91.0993Z" fill="#354F5C"/>
<path d="M84.1332 26.8323C83.4205 27.1039 82.9872 27.8351 82.8551 28.6727C82.7231 29.5101 82.8141 30.5436 83.1458 31.8783C83.7927 34.4888 85.9713 38.3649 87.9992 41.7289C90.0272 45.0928 91.9078 47.8651 91.9078 47.8651C92.0364 48.0547 92.2346 48.1858 92.459 48.2294C92.6834 48.273 92.9155 48.2256 93.1043 48.0976C93.1978 48.0341 93.2779 47.9527 93.34 47.8581C93.402 47.7635 93.4448 47.6574 93.4659 47.5461C93.4869 47.4347 93.4859 47.3202 93.4628 47.2091C93.4397 47.098 93.395 46.9925 93.3312 46.8985C93.3312 46.8985 91.4729 44.1593 89.4722 40.8406C87.4715 37.5219 85.3318 33.544 84.8176 31.4688L84.8171 31.468C84.5202 30.2737 84.4813 29.4272 84.5568 28.9487C84.6322 28.4702 84.7437 28.4497 84.7505 28.4471C84.7574 28.4442 84.9206 28.4192 85.2317 28.6237C85.5428 28.8281 85.933 29.2291 86.2623 29.7827C86.7075 30.5311 87.7281 31.9401 89.1552 33.8157C90.5823 35.6914 92.394 37.9929 94.3333 40.3628C98.2119 45.1025 102.56 50.0898 105.464 52.5574C112.116 58.2122 121.357 63.533 135.475 67.1248C148.432 70.4186 159.114 69.6201 166.633 66.5369C166.639 66.5346 166.644 66.5323 166.649 66.53C166.682 66.5157 166.718 66.5185 166.761 66.5412C166.791 66.5623 166.813 66.594 166.817 66.6289C166.818 66.635 166.818 66.641 166.819 66.6471C169.048 89.4746 191.372 117.705 210.351 145.008C210.415 145.101 210.498 145.181 210.593 145.242C210.689 145.304 210.795 145.346 210.907 145.366C211.018 145.386 211.132 145.384 211.243 145.36C211.353 145.336 211.458 145.29 211.551 145.226C211.644 145.161 211.723 145.079 211.783 144.983C211.844 144.888 211.886 144.781 211.905 144.67C211.925 144.558 211.923 144.444 211.898 144.333C211.874 144.222 211.828 144.117 211.763 144.024C192.743 116.662 170.667 88.3221 168.534 66.4854L168.535 66.5035C168.49 65.9071 168.157 65.3692 167.648 65.0599C167.645 65.0581 167.642 65.0563 167.638 65.0545C167.134 64.7567 166.507 64.7071 165.96 64.9442C158.874 67.8448 148.557 68.6699 135.894 65.4509C121.996 61.9149 113.035 56.7325 106.577 51.2423C103.908 48.974 99.5165 43.9776 95.6644 39.2702C93.7383 36.9165 91.9372 34.629 90.5246 32.7724C89.112 30.9157 88.0674 29.4484 87.7421 28.9017C87.3008 28.1599 86.7703 27.5727 86.1742 27.1808C85.5781 26.7889 84.847 26.5601 84.1343 26.8317L84.1332 26.8323Z" fill="#354F5C"/>
<path d="M106.997 73.7689C106.825 73.9192 106.721 74.1319 106.706 74.3602C106.691 74.5886 106.767 74.8139 106.917 74.9866C122.164 92.4815 142.001 100.117 168.401 91.8361C168.619 91.7679 168.8 91.6156 168.905 91.4128C169.011 91.21 169.031 90.9734 168.962 90.7549C168.893 90.5364 168.74 90.354 168.538 90.2478C168.335 90.1416 168.099 90.1202 167.881 90.1885C141.996 98.3075 123.139 90.9812 108.212 73.8536C108.062 73.6809 107.849 73.575 107.621 73.5591C107.393 73.5432 107.169 73.6187 106.997 73.7689Z" fill="#354F5C"/>
<path d="M111.901 55.8117C111.702 55.9222 111.555 56.1077 111.492 56.3274C111.429 56.5472 111.456 56.7833 111.567 56.9838C115.109 63.3833 116.237 69.5624 115.478 72.6531C115.288 73.4258 114.992 73.9878 114.655 74.3396C114.318 74.6915 113.956 74.8661 113.433 74.8917C112.386 74.9431 110.591 74.1913 108.275 72.0391C108.108 71.8832 107.885 71.8001 107.657 71.8082C107.429 71.8163 107.214 71.9149 107.059 72.0824C106.982 72.1654 106.922 72.2627 106.883 72.369C106.844 72.4753 106.826 72.5884 106.83 72.7017C106.835 72.8151 106.862 72.9265 106.909 73.0297C106.956 73.1328 107.024 73.2257 107.107 73.3029C109.589 75.6098 111.674 76.7075 113.524 76.6166C114.449 76.5712 115.29 76.1763 115.901 75.5384C116.512 74.9006 116.91 74.0527 117.151 73.0715C118.115 69.1467 116.76 62.8145 113.072 56.1515C112.961 55.9511 112.776 55.8027 112.556 55.739C112.337 55.6753 112.101 55.7015 111.901 55.8117Z" fill="#354F5C"/>
<path d="M99.9333 59.3294C99.7688 59.4876 99.674 59.7051 99.6697 59.9339C99.6654 60.1628 99.7521 60.3843 99.9105 60.5498C101.411 62.118 103.947 62.9895 106.872 63.135C108.579 63.2207 110.856 64.3447 112.631 65.4928C114.407 66.6409 115.692 67.7609 115.692 67.7609C115.864 67.9114 116.089 67.9873 116.317 67.9719C116.544 67.9565 116.756 67.8512 116.906 67.679C117.056 67.5066 117.13 67.2815 117.114 67.0532C117.098 66.8249 116.992 66.6121 116.82 66.4615C116.82 66.4615 115.449 65.2637 113.561 64.0431C111.673 62.8225 109.277 61.5277 106.951 61.4111C106.95 61.4108 106.95 61.4105 106.95 61.4102C104.334 61.28 102.169 60.4215 101.152 59.3577C101.073 59.2757 100.979 59.2098 100.876 59.164C100.772 59.1182 100.66 59.0932 100.547 59.0906C100.434 59.088 100.322 59.1077 100.216 59.1487C100.111 59.1896 100.015 59.2511 99.9333 59.3294Z" fill="#354F5C"/>
<path d="M104.207 61.156C104.102 61.1983 104.007 61.2609 103.927 61.3403C103.846 61.4196 103.782 61.5141 103.738 61.6185C102.937 63.5177 103.071 65.7231 104.222 68.0638C104.272 68.1656 104.341 68.2567 104.426 68.3317C104.511 68.4068 104.61 68.4643 104.717 68.5011C104.825 68.5379 104.938 68.5533 105.051 68.5463C105.163 68.5392 105.274 68.51 105.375 68.4602C105.477 68.4104 105.567 68.3411 105.642 68.2561C105.716 68.1711 105.773 68.0722 105.81 67.965C105.846 67.8578 105.861 67.7444 105.853 67.6312C105.846 67.5181 105.816 67.4074 105.766 67.3056C104.774 65.2861 104.726 63.7151 105.325 62.2962C105.369 62.1919 105.392 62.0799 105.393 61.9665C105.393 61.8531 105.372 61.7406 105.329 61.6353C105.287 61.5301 105.224 61.4342 105.145 61.3532C105.065 61.2721 104.971 61.2075 104.867 61.1629C104.762 61.1184 104.65 61.0949 104.537 61.0937C104.424 61.0925 104.312 61.1137 104.207 61.156Z" fill="#354F5C"/>
<path fill-rule="evenodd" clip-rule="evenodd" d="M109.689 62.9545C113.026 64.2909 116.256 67.1113 116.256 67.1113C117.065 71.6106 116.328 74.9268 114.204 75.623C110.207 72.2585 108.922 67.9593 109.689 62.9545Z" fill="#354F5C"/>
<path d="M163.835 45.5389C163.608 45.5173 163.381 45.587 163.206 45.7328C163.03 45.8787 162.92 46.0886 162.899 46.3165C162.713 48.3696 162.102 49.5701 160.894 50.097C160.685 50.1882 160.521 50.359 160.438 50.5719C160.355 50.7847 160.36 51.0222 160.452 51.2321C160.544 51.442 160.715 51.6069 160.927 51.6909C161.14 51.7748 161.377 51.7708 161.586 51.6798C163.508 50.8414 164.4 48.8458 164.615 46.4799C164.635 46.252 164.565 46.0249 164.419 45.8484C164.273 45.6719 164.063 45.5606 163.835 45.5389Z" fill="#354F5C"/>
<path d="M150.341 30.659C150.238 30.7061 150.145 30.773 150.068 30.856C149.992 30.939 149.932 31.0364 149.893 31.1427C149.854 31.249 149.836 31.362 149.84 31.4754C149.845 31.5887 149.872 31.7002 149.919 31.8033C151.36 34.9396 151.9 37.5767 151.56 39.6239C151.221 41.6711 150.081 43.2118 147.785 44.3898C147.684 44.4414 147.595 44.5124 147.522 44.5987C147.449 44.685 147.393 44.7849 147.359 44.8928C147.325 45.0007 147.312 45.1144 147.321 45.2274C147.331 45.3404 147.362 45.4505 147.414 45.5515C147.466 45.6524 147.537 45.7422 147.623 45.8157C147.71 45.8893 147.81 45.9451 147.918 45.9799C148.025 46.0148 148.139 46.0281 148.252 46.0191C148.364 46.0101 148.474 45.9788 148.575 45.9272C151.232 44.5641 152.835 42.4744 153.26 39.9134C153.684 37.3525 153.009 34.4039 151.484 31.0858C151.437 30.9826 151.369 30.8897 151.286 30.8124C151.203 30.7351 151.106 30.6749 151 30.6353C150.893 30.5956 150.781 30.5773 150.667 30.5814C150.554 30.5854 150.443 30.6118 150.341 30.659Z" fill="#354F5C"/>
<path d="M148.189 35.9169C147.824 36.1426 147.509 36.4421 147.275 36.814C147.154 37.0074 147.114 37.2415 147.165 37.4649C147.216 37.6883 147.353 37.8827 147.546 38.0052C147.739 38.1278 147.973 38.1686 148.196 38.1185C148.419 38.0685 148.612 37.9317 148.734 37.7384C148.935 37.4187 149.183 37.2554 149.701 37.1653C149.926 37.1259 150.125 36.9987 150.256 36.8116C150.387 36.6244 150.438 36.3927 150.398 36.1673C150.358 35.9417 150.23 35.7409 150.043 35.609C149.856 35.4771 149.625 35.4249 149.4 35.4639C148.967 35.5391 148.553 35.6912 148.189 35.9169Z" fill="#354F5C"/>
<path d="M154.701 32.8139C154.369 33.0759 154.08 33.4214 153.852 33.8295C153.741 34.029 153.714 34.2649 153.776 34.4853C153.839 34.7058 153.986 34.8927 154.185 35.005C154.385 35.1172 154.62 35.1456 154.84 35.0839C155.06 35.0222 155.246 34.8755 155.357 34.676C155.638 34.1718 155.859 34.0461 156.132 33.9945C156.405 33.943 156.835 34.0123 157.396 34.2818C157.602 34.3808 157.838 34.3939 158.054 34.3181C158.269 34.2424 158.445 34.084 158.543 33.8779C158.592 33.7757 158.62 33.6648 158.626 33.5516C158.631 33.4384 158.615 33.325 158.577 33.2179C158.539 33.1109 158.481 33.0123 158.405 32.9278C158.329 32.8432 158.238 32.7744 158.136 32.7253C157.384 32.3639 156.602 32.1479 155.806 32.2985C155.408 32.3737 155.033 32.552 154.701 32.8139Z" fill="#354F5C"/>
<path fill-rule="evenodd" clip-rule="evenodd" d="M158.617 37.5575C158.693 38.0598 158.634 38.5611 158.454 38.9511C158.273 39.3411 157.985 39.5879 157.653 39.6372C157.321 39.6866 156.972 39.5344 156.684 39.2141C156.395 38.8938 156.19 38.4317 156.114 37.9295C156.038 37.4273 156.097 36.926 156.277 36.536C156.458 36.146 156.746 35.8991 157.078 35.8498C157.41 35.8005 157.759 35.9527 158.047 36.273C158.336 36.5932 158.541 37.0553 158.617 37.5575Z" fill="#354F5C"/>
<path fill-rule="evenodd" clip-rule="evenodd" d="M150.789 39.3859C150.82 39.5923 150.824 39.8007 150.801 39.9992C150.777 40.1976 150.727 40.3823 150.653 40.5425C150.579 40.7028 150.482 40.8356 150.368 40.9333C150.254 41.0311 150.125 41.0918 149.988 41.112C149.713 41.153 149.423 41.0266 149.184 40.7608C148.944 40.495 148.774 40.1115 148.711 39.6946C148.648 39.2778 148.697 38.8617 148.847 38.538C148.997 38.2143 149.236 38.0094 149.511 37.9685C149.648 37.9482 149.789 37.9688 149.927 38.0291C150.065 38.0893 150.197 38.1881 150.316 38.3197C150.434 38.4513 150.537 38.6132 150.618 38.7961C150.699 38.9791 150.757 39.1795 150.789 39.3859Z" fill="#354F5C"/>
<path d="M192.527 53.218C191.604 53.9856 190.933 55.1326 190.572 56.6321C189.85 59.631 190.251 64.089 192.172 70.8046C199.145 95.1833 210.039 113.73 223.017 137.358C223.127 137.559 223.312 137.708 223.532 137.772C223.751 137.836 223.986 137.811 224.187 137.701C224.286 137.647 224.373 137.574 224.444 137.485C224.514 137.397 224.567 137.295 224.598 137.187C224.629 137.078 224.639 136.964 224.626 136.851C224.614 136.738 224.579 136.629 224.524 136.53C211.534 112.879 200.733 94.4773 193.827 70.3344C191.946 63.758 191.655 59.5012 192.247 57.0426C192.543 55.8133 193.032 55.0456 193.63 54.5481C194.229 54.0505 194.973 53.7963 195.894 53.7389C197.735 53.6243 200.209 54.3949 202.604 55.5121C205 56.6293 207.327 58.0639 209.013 59.1582C232.794 74.6073 246.497 88.616 262.185 115.053C262.243 115.15 262.319 115.236 262.41 115.304C262.5 115.372 262.603 115.422 262.713 115.45C262.823 115.478 262.937 115.485 263.049 115.469C263.161 115.453 263.268 115.415 263.366 115.358C263.463 115.3 263.548 115.224 263.615 115.133C263.683 115.042 263.732 114.939 263.76 114.829C263.788 114.719 263.794 114.605 263.778 114.493C263.761 114.38 263.723 114.272 263.665 114.175C247.887 87.5867 233.874 73.2558 209.946 57.7109C208.23 56.5973 205.846 55.1223 203.326 53.9471C200.806 52.7719 198.159 51.8677 195.78 52.0158C194.591 52.0899 193.451 52.4504 192.527 53.218Z" fill="#354F5C"/>
<path d="M161.639 0.912577C157.885 2.5916 157.045 6.97286 156.86 8.3961C148.513 10.0266 143.776 14.0219 141.606 18.5553C139.38 23.2051 139.788 28.2866 141.308 31.8788C141.82 33.0866 141.669 34.3297 141.486 35.3352C141.395 35.8379 141.276 36.2275 141.295 36.7299C141.304 36.9811 141.367 37.3911 141.751 37.6751C142.134 37.959 142.548 37.9058 142.825 37.8309C144.417 37.4014 146.238 36.636 147.654 35.055C148.872 33.6953 149.701 31.7066 149.896 29.032C153.001 30.5008 155.638 31.0321 158.105 30.799C160.565 30.5665 162.87 29.6116 165.398 28.4468C165.466 28.7801 165.416 28.7913 165.589 29.2787C166.005 30.4482 166.799 32.033 168.294 33.7536C168.294 33.7539 168.294 33.7542 168.294 33.7544C169.062 34.6368 169.633 35.1759 170.475 35.2371C170.896 35.2677 171.35 35.0684 171.61 34.7946C171.87 34.5208 171.996 34.2186 172.087 33.9177C172.454 32.7145 172.328 31.1788 172.355 30.3351L172.355 30.3343C172.382 29.5427 172.604 29.113 172.837 28.8907C173.07 28.6681 173.358 28.5755 173.802 28.6342C174.69 28.7515 176.062 29.6734 176.956 31.4429C177.794 33.1015 177.359 34.6301 176.663 35.8813C175.966 37.1324 175.045 37.9513 175.045 37.9513C174.937 38.046 174.855 38.1662 174.806 38.301C174.757 38.4358 174.742 38.5809 174.763 38.7231C175.936 46.7253 181.155 53.1535 189.496 55.0494C197.22 56.8049 202.379 54.2806 205.528 50.6388C208.677 46.9971 209.925 42.3511 210.425 39.7079C210.425 39.7077 210.425 39.7074 210.425 39.7071C210.734 38.0695 210.752 36.9677 210.33 36.0977C210.119 35.6628 209.748 35.3024 209.325 35.1337C208.901 34.965 208.472 34.9694 208.08 35.0403C207.508 35.1439 205.275 35.1116 203.025 34.8284C200.774 34.5452 198.353 34.0156 197.105 33.4003L197.105 33.3995C193.837 31.7835 191.638 28.7761 189.502 24.957C187.366 21.1378 185.323 16.5528 182.305 12.0191L182.304 12.0182C178.115 5.72516 174.137 2.42411 170.575 0.955374C167.013 -0.513452 163.894 -0.0962288 161.639 0.912577ZM162.346 2.48937C164.237 1.64327 166.789 1.25878 169.925 2.55172C173.06 3.84465 176.808 6.86884 180.872 12.9733C183.791 17.3573 185.807 21.8753 188 25.7973C190.193 29.7194 192.595 33.0917 196.349 34.9475C196.349 34.9478 196.349 34.9481 196.349 34.9484C197.998 35.7617 200.469 36.2455 202.817 36.541C205.165 36.8365 207.238 36.948 208.393 36.7385C208.571 36.7061 208.668 36.7262 208.695 36.7369C208.721 36.7478 208.726 36.7304 208.782 36.8458C208.894 37.0767 209.012 37.9054 208.734 39.3796C208.264 41.8608 207.043 46.2456 204.225 49.5043C201.408 52.763 197.103 55.0082 189.871 53.3647C182.331 51.6508 177.747 46.0934 176.552 38.8754C176.924 38.5075 177.547 37.8444 178.169 36.7269C179.024 35.1893 179.644 32.9447 178.493 30.667C177.398 28.5001 175.719 27.147 174.022 26.9228C173.173 26.8106 172.284 27.0305 171.647 27.6378C171.011 28.2451 170.671 29.1629 170.634 30.2688C170.634 30.2691 170.634 30.2693 170.634 30.2696C170.602 31.2598 170.619 32.7717 170.443 33.3794C170.396 33.3372 170.148 33.2604 169.592 32.6221L169.591 32.6213C168.243 31.0688 167.561 29.685 167.212 28.7046C166.864 27.7242 166.853 27.2194 166.853 27.2194C166.847 27.0769 166.806 26.9378 166.734 26.8147C166.662 26.6916 166.56 26.5883 166.438 26.5139C166.316 26.4396 166.178 26.3966 166.036 26.3888C165.894 26.381 165.752 26.4086 165.624 26.4691C162.708 27.8422 160.355 28.8511 157.937 29.0796C155.518 29.3081 152.969 28.797 149.521 26.9568C149.389 26.8864 149.241 26.8515 149.092 26.8556C148.942 26.8596 148.797 26.9025 148.669 26.98C148.542 27.0575 148.437 27.167 148.365 27.2977C148.292 27.4283 148.255 27.5757 148.257 27.7254C148.292 30.7949 147.482 32.6589 146.372 33.899C145.465 34.9116 144.309 35.467 143.148 35.8662C143.165 35.7637 143.162 35.7649 143.182 35.6513C143.379 34.5732 143.619 32.9177 142.895 31.2088C141.563 28.062 141.184 23.4348 143.16 19.3062C145.136 15.1775 149.432 11.432 157.788 9.95659C157.973 9.92373 158.143 9.83057 158.27 9.69142C158.398 9.55226 158.476 9.37482 158.493 9.18641C158.493 9.18641 159.109 3.93713 162.346 2.48892L162.346 2.48937Z" fill="#354F5C"/>
<path fill-rule="evenodd" clip-rule="evenodd" d="M165.991 27.25C160.136 30.0081 156.214 31.5051 149.117 27.7178C149.192 34.1792 145.604 36.185 142.598 36.9962C141.321 37.3411 143.336 34.4597 142.101 31.543C139.249 24.804 140.525 12.1271 157.634 9.10605C157.634 9.10605 158.139 3.42335 161.992 1.69998C166.138 -0.154959 173.335 0.0969229 181.588 12.495C187.526 21.413 189.704 30.7012 196.727 34.1729C199.624 35.6017 206.51 36.2014 208.236 35.8882C209.377 35.6812 210.167 36.4304 209.58 39.5421C208.61 44.6666 204.641 57.6047 189.684 54.2057C181.672 52.3847 176.745 46.3086 175.615 38.5993C175.615 38.5993 179.714 34.9901 177.725 31.0537C175.736 27.1174 171.624 26.5037 171.494 30.3009C171.434 32.1433 171.79 36.4581 168.942 33.1867C166.098 29.9132 165.991 27.25 165.991 27.25ZM181.01 40.647L179.522 38.2078C179.271 37.8021 178.742 37.6724 178.335 37.9211C177.932 38.1678 177.803 38.7009 178.054 39.1066L179.543 41.5484C179.33 42.0042 179.332 42.5597 179.606 43.0331C180.046 43.796 181.021 44.0584 181.779 43.6209C182.537 43.1833 182.797 42.2081 182.356 41.4451C182.067 40.9448 181.55 40.6584 181.01 40.647Z" fill="#354F5C"/>
<path d="M152.859 49.7837C152.679 49.9237 152.562 50.1298 152.534 50.3568C152.506 50.5838 152.569 50.8131 152.709 50.9943C157.926 57.7269 164.557 58.8862 169.938 57.0751C175.32 55.264 179.55 50.675 180.404 45.8954C180.424 45.7839 180.422 45.6694 180.397 45.5586C180.373 45.4477 180.327 45.3427 180.263 45.2494C180.198 45.1561 180.116 45.0764 180.02 45.0149C179.925 44.9534 179.819 44.9113 179.707 44.8909C179.596 44.8705 179.482 44.8723 179.371 44.8961C179.261 44.9199 179.156 44.9654 179.063 45.0298C178.97 45.0943 178.891 45.1765 178.83 45.2718C178.769 45.367 178.728 45.4734 178.708 45.585C177.999 49.5529 174.179 53.8248 169.385 55.438C164.591 57.0513 158.919 56.1987 154.068 49.9387C153.999 49.8489 153.913 49.7737 153.814 49.7173C153.716 49.661 153.607 49.6246 153.495 49.6102C153.383 49.5958 153.269 49.6037 153.16 49.6335C153.05 49.6633 152.948 49.7143 152.859 49.7837Z" fill="#354F5C"/>
</svg>
