<svg width="29" height="43" viewBox="0 0 29 43" fill="none" xmlns="http://www.w3.org/2000/svg">
<path d="M14.9998 0.324561C14.3702 0.534402 13.8763 1.02839 13.6664 1.65792C13.2337 2.95616 13.2337 4.35974 13.6664 5.65798C13.8763 6.28751 14.3702 6.7815 14.9998 6.99134C16.298 7.42409 17.7016 7.42409 18.9998 6.99134C19.6294 6.7815 20.1233 6.28751 20.3332 5.65798C20.7659 4.35974 20.7659 2.95616 20.3332 1.65792C20.1233 1.02839 19.6294 0.534403 18.9998 0.324561C17.7016 -0.108187 16.298 -0.108187 14.9998 0.324561Z" fill="#9BA8AF"/>
<path d="M20.3999 14.8581C21.56 16.8782 23.54 18.4782 26 19.2182V16.1582C26 15.8336 26.1053 15.5178 26.3 15.2581C26.9001 14.4581 28.1001 14.4581 28.7001 15.2581C28.8948 15.5178 29.0001 15.8336 29.0001 16.1582L29 41.3808C29 41.5611 28.9415 41.7366 28.8334 41.8808C28.1667 42.7697 26.8334 42.7697 26.1667 41.8808C26.0585 41.7366 26 41.5611 26 41.3808V23.3383C22.82 22.6783 19.9999 20.9582 17.9999 18.6582L16.7999 24.6583L18.5172 26.2938C19.7411 27.4595 20.3531 28.0423 20.6765 28.797C21 29.5516 21 30.3968 21 32.087V41.1733C21 41.484 20.8765 41.782 20.6568 42.0017C19.7417 42.9168 18.2581 42.9168 17.343 42.0017C17.1233 41.782 16.9999 41.484 16.9999 41.1733V33.3727C16.9999 32.5276 16.9999 32.1051 16.8382 31.7277C16.6765 31.3504 16.3705 31.059 15.7585 30.4761L12.7998 27.6584L9.71236 41.3804C9.67121 41.5633 9.5876 41.7339 9.46829 41.8785C8.649 42.8716 7.19037 43.0372 6.16931 42.2531L6.02864 42.1451C5.64061 41.8471 5.4541 41.3601 5.54898 40.8801C7.00118 33.535 10.852 14.0609 11.1598 12.5381C11.5398 10.6581 13.1598 9.65805 14.7198 9.65805C16.1799 9.65805 17.5799 10.3581 18.3999 11.6581L20.3999 14.8581Z" fill="#9BA8AF"/>
<path d="M3.92155 23.5435C5.03268 23.7583 6.13217 23.1212 6.49823 22.0504C7.49511 19.1341 8.11642 16.1028 8.34716 13.0295L8.46009 11.5254C8.51697 10.7678 7.99931 10.0869 7.25405 9.93917L6.23971 9.73805C4.07967 9.31805 1.97963 10.7381 1.55963 12.8981L0.0396014 20.7582C-0.180402 21.8383 0.53961 22.8783 1.61963 23.0983L3.92155 23.5435Z" fill="#9BA8AF"/>
</svg>
