<svg width="34" height="43" viewBox="0 0 34 43" fill="none" xmlns="http://www.w3.org/2000/svg">
<path d="M19.8268 0.32968C19.1873 0.542832 18.6855 1.04461 18.4724 1.68407C18.0328 3.00279 18.0328 4.42851 18.4724 5.74723C18.6855 6.38669 19.1873 6.88847 19.8268 7.10162C21.1455 7.54119 22.5712 7.54119 23.8899 7.10162C24.5294 6.88847 25.0312 6.38669 25.2443 5.74723C25.6839 4.42851 25.6839 3.00279 25.2443 1.68407C25.0312 1.04461 24.5294 0.542832 23.8899 0.32968C22.5712 -0.109893 21.1455 -0.109893 19.8268 0.32968Z" fill="#9BA8AF"/>
<path d="M20.8426 41.4481C20.8426 41.9798 21.143 42.4659 21.6186 42.7037C22.409 43.0989 23.3393 43.0989 24.1297 42.7037C24.6053 42.4659 24.9057 41.9798 24.9057 41.4481V31.5773C24.9057 29.8604 24.9057 29.002 24.5772 28.2354C24.2487 27.4689 23.627 26.8768 22.3838 25.6928L20.6394 24.0315L21.8584 17.9367C23.1789 19.4604 24.8126 20.6878 26.7596 21.619C28.4525 22.4286 30.2543 22.8863 32.1649 22.9919C32.6958 23.0213 33.1823 22.7153 33.4201 22.2397C33.8153 21.4493 33.8153 20.5189 33.4201 19.7285C33.1823 19.2529 32.6954 18.9603 32.1652 18.9207C30.5837 18.8027 29.1543 18.3562 27.8769 17.5812C26.3702 16.667 25.1766 15.4988 24.2963 14.0767L22.2647 10.8262C21.8922 10.2167 21.4013 9.72575 20.7918 9.35329C20.1823 8.98083 19.522 8.79461 18.811 8.79461C18.337 8.79461 17.8206 8.87079 17.2619 9.02316C16.7032 9.17553 15.8313 9.50566 14.6462 10.0136L11.1452 11.5203C9.14558 12.3809 8.14578 12.8112 7.5116 13.6041C7.35507 13.7998 7.21698 14.0096 7.0991 14.2307C6.6215 15.1267 6.6215 16.2152 6.6215 18.3921V22.1481C6.6215 22.6798 6.92191 23.1659 7.39749 23.4037C8.1879 23.7989 9.11825 23.7989 9.90866 23.4037C10.3842 23.1659 10.6847 22.6798 10.6847 22.1481V18.5691C10.6847 17.5362 10.6847 17.0198 10.898 16.5918C10.9812 16.4248 11.0871 16.27 11.2126 16.1319C11.5342 15.7779 12.0155 15.5908 12.9782 15.2164L14.3415 14.6862L11.8866 27.1143C11.5119 29.0113 11.3245 29.9598 10.6179 30.428C9.91123 30.8962 8.96473 30.699 7.07173 30.3047L2.13305 29.2758C1.64164 29.1734 1.13284 29.3399 0.797047 29.713L0.630242 29.8984C-0.0449911 30.6486 -0.192187 31.7357 0.259217 32.6385C0.428079 32.9762 0.742978 33.2175 1.11302 33.2925L6.76401 34.4391C10.4391 35.1848 12.2766 35.5576 13.6671 34.6594C15.0575 33.7611 15.4731 31.9328 16.3042 28.276L16.5762 27.0788L19.5816 29.9411C20.2032 30.5331 20.514 30.8291 20.6783 31.2124C20.8426 31.5957 20.8426 32.0249 20.8426 32.8834V41.4481Z" fill="#9BA8AF"/>
</svg>
