<svg width="31" height="32" viewBox="0 0 31 32" fill="none" xmlns="http://www.w3.org/2000/svg">
<g clip-path="url(#clip0_46_7909)">
<path d="M27.8976 2.71818C26.329 0.965369 24.1767 0 21.8367 0C20.0876 0 18.4857 0.569758 17.0755 1.6933C16.3639 2.26037 15.7191 2.95428 15.1507 3.76404C14.5824 2.95446 13.9375 2.26037 13.2257 1.6933C11.8157 0.569758 10.2138 0 8.46468 0C6.12467 0 3.97215 0.965369 2.40358 2.71818C0.853766 4.4505 0 6.81716 0 9.38241C0 12.0227 0.955027 14.4396 3.00534 16.9887C4.83952 19.2689 7.47569 21.5836 10.5284 24.2639C11.5709 25.1792 12.7525 26.2167 13.9793 27.3219C14.3035 27.6145 14.7198 27.7756 15.1507 27.7755C15.5818 27.7755 15.998 27.6144 16.3216 27.3224C17.5485 26.217 18.7308 25.179 19.7736 24.2631C22.826 21.5832 25.4621 19.2689 27.2963 16.9884C29.3466 14.4397 30.3014 12.0227 30.3014 9.38217C30.3014 6.81716 29.4476 4.4505 27.8976 2.71818Z" fill="white"/>
</g>
<defs>
<clipPath id="clip0_46_7909">
<rect width="30.3014" height="31.2196" fill="white"/>
</clipPath>
</defs>
</svg>
