<svg width="16" height="18" viewBox="0 0 16 18" fill="none" xmlns="http://www.w3.org/2000/svg">
<path d="M7.63714 0C10.3988 0.000213749 12.6212 2.17332 12.6215 4.85624V6.23683C14.1715 6.7208 15.3009 8.12414 15.3009 9.80018V14.2435C15.3009 16.3186 13.5806 18.001 11.4597 18.001H3.84222C1.7204 18.001 0 16.3186 0 14.2435V9.80018C0 8.12414 1.13026 6.7208 2.6794 6.23683V4.85624C2.6888 2.17319 4.91185 0 7.63714 0ZM7.64601 10.2466C7.20702 10.2466 6.84979 10.5958 6.84978 11.0251V13.0107C6.84979 13.449 7.20702 13.7981 7.64601 13.7981C8.09409 13.798 8.4511 13.4489 8.45111 13.0107V11.0251C8.4511 10.5958 8.09409 10.2466 7.64601 10.2466ZM7.65488 1.56487C5.79849 1.56496 4.2901 3.032 4.28074 4.8385V6.0427H11.0211V4.85722C11.0211 3.04155 9.51147 1.56487 7.65488 1.56487Z" fill="#72848D"/>
</svg>
