<svg width="15" height="15" viewBox="0 0 15 15" fill="none" xmlns="http://www.w3.org/2000/svg">
<g clip-path="url(#clip0_739_6826)">
<path d="M7.93164 13.474C7.93164 13.474 13.1816 9.97396 13.1816 5.89063C13.1816 4.49824 12.6285 3.16288 11.644 2.17831C10.6594 1.19375 9.32403 0.640625 7.93164 0.640625C6.53925 0.640625 5.2039 1.19375 4.21933 2.17831C3.23476 3.16288 2.68164 4.49824 2.68164 5.89063C2.68164 9.97396 7.93164 13.474 7.93164 13.474Z" stroke="#9BA8AF" stroke-linecap="round" stroke-linejoin="round"/>
<path d="M7.93164 7.64062C8.89814 7.64062 9.68164 6.85712 9.68164 5.89062C9.68164 4.92413 8.89814 4.14062 7.93164 4.14062C6.96514 4.14062 6.18164 4.92413 6.18164 5.89062C6.18164 6.85712 6.96514 7.64062 7.93164 7.64062Z" stroke="#9BA8AF" stroke-linecap="round" stroke-linejoin="round"/>
</g>
<defs>
<clipPath id="clip0_739_6826">
<rect width="14" height="14" fill="white" transform="translate(0.931641 0.0566406)"/>
</clipPath>
</defs>
</svg>
