<svg width="48" height="48" viewBox="0 0 48 48" fill="none" xmlns="http://www.w3.org/2000/svg">
<path d="M20.3933 19.9019C20.4327 19.8115 20.4718 19.7275 20.5102 19.6511V20.0793C21.2721 21.2667 21.9962 22.9945 22.4735 25.5041H25.5267C26.0038 22.9959 26.7277 21.2684 27.4899 20.0809V19.6513C27.5285 19.7279 27.5678 19.8121 27.6073 19.903C28.0893 19.1895 28.5813 18.6835 29.0319 18.3266C28.8635 18.0548 28.6803 17.8129 28.4814 17.6039C27.962 17.0583 27.3427 16.7436 26.6781 16.6811C26.6429 16.6769 26.6075 16.6747 26.572 16.6745H26.5552C26.5144 16.6727 26.474 16.668 26.4328 16.668C26.3952 16.668 26.3583 16.6704 26.3217 16.6745H21.6787C21.6419 16.6703 21.6048 16.6681 21.5677 16.668C21.5265 16.668 21.4861 16.6726 21.4453 16.6745H21.4283C21.3928 16.6747 21.3574 16.6769 21.3222 16.6811C20.6577 16.7436 20.0384 17.0583 19.5189 17.6039C19.3203 17.8126 19.1373 18.0542 18.969 18.3253C19.419 18.6818 19.9111 19.1877 20.3933 19.9019ZM27.3848 30.9727V30.7074C27.3848 30.1426 27.4234 29.5022 27.4898 28.8167V28.1542C27.3468 28.2786 27.1789 28.371 26.9974 28.4254C26.8158 28.4797 26.6248 28.4947 26.4369 28.4694C25.705 28.3704 25.1904 27.6948 25.2891 26.9633C25.3361 26.6162 25.3885 26.2854 25.4439 25.963H22.5559C22.6112 26.2854 22.6638 26.616 22.7108 26.9632C22.8096 27.6948 22.2949 28.3704 21.5634 28.4692C21.3755 28.4945 21.1844 28.4795 21.0028 28.4251C20.8212 28.3708 20.6533 28.2783 20.5102 28.1539V28.8179C20.5766 29.5028 20.615 30.1426 20.615 30.7072V30.9726L20.5102 31.0328V36.546C20.5102 37.4225 21.2211 38.1334 22.0981 38.1334C22.9744 38.1334 23.6853 37.4225 23.6853 36.546V28.9853H24.3146V36.5463C24.3146 37.4229 25.0255 38.1337 25.9023 38.1337C26.7789 38.1337 27.4898 37.4229 27.4898 36.5463V31.0333L27.3848 30.9727Z" fill="#9BA8AF"/>
<path d="M23.9999 16.1385C25.7322 16.1385 27.1366 14.7342 27.1366 13.0019C27.1366 11.2696 25.7322 9.86523 23.9999 9.86523C22.2676 9.86523 20.8633 11.2696 20.8633 13.0019C20.8633 14.7342 22.2676 16.1385 23.9999 16.1385Z" fill="#9BA8AF"/>
<path d="M40.1646 25.9629C40.2198 26.2853 40.2725 26.6159 40.3194 26.9631C40.4183 27.6948 39.9036 28.3703 39.172 28.4691C38.9842 28.4945 38.7931 28.4794 38.6115 28.4251C38.4299 28.3707 38.2619 28.2782 38.1189 28.1538V28.8178C38.1853 29.5029 38.2237 30.1427 38.2237 30.7072V30.9725L38.1189 31.0328V36.5459C38.1189 37.4225 38.8298 38.1333 39.7068 38.1333C40.5831 38.1333 41.2939 37.4225 41.2939 36.5459V28.9851H41.9233V36.5461C41.9233 37.4226 42.6341 38.1335 43.511 38.1335C44.3876 38.1335 45.0984 37.4226 45.0984 36.5461V25.9629H40.1646Z" fill="#9BA8AF"/>
<path d="M44.2865 16.6811C44.2513 16.6769 44.2159 16.6747 44.1804 16.6745H44.1636C44.1228 16.6727 44.0824 16.668 44.0412 16.668C44.0036 16.668 43.9667 16.6704 43.9301 16.6745H39.2871C39.2503 16.6703 39.2132 16.6681 39.1761 16.668C39.1349 16.668 39.0945 16.6726 39.0536 16.6745H39.0367C39.0012 16.6747 38.9658 16.6769 38.9306 16.6811C38.2661 16.7436 37.6468 17.0583 37.1273 17.6039C36.9287 17.8126 36.7457 18.0542 36.5774 18.3253C37.0274 18.6818 37.5195 19.1877 38.0017 19.9019C38.0411 19.8115 38.0802 19.7275 38.1186 19.6511V20.0793C38.8804 21.2667 39.6046 22.9945 40.0819 25.5041H45.0982V19.6513C45.5814 20.6106 46.1724 22.6478 45.9699 26.7493C45.9581 27.012 46.0508 27.2687 46.2278 27.4632C46.4048 27.6577 46.6516 27.7742 46.9143 27.7871C47.1769 27.8001 47.434 27.7086 47.6294 27.5325C47.8247 27.3564 47.9423 27.1101 47.9565 26.8475C48.1802 22.3185 47.5345 19.1222 46.0895 17.6039C45.5705 17.0583 44.9511 16.7436 44.2865 16.6811Z" fill="#9BA8AF"/>
<path d="M41.6086 16.1385C43.3409 16.1385 44.7452 14.7342 44.7452 13.0019C44.7452 11.2696 43.3409 9.86523 41.6086 9.86523C39.8762 9.86523 38.4719 11.2696 38.4719 13.0019C38.4719 14.7342 39.8762 16.1385 41.6086 16.1385Z" fill="#9BA8AF"/>
<path d="M9.77644 30.9725V30.7072C9.77644 30.1423 9.815 29.5019 9.8814 28.8165V28.1541C9.73843 28.2785 9.57056 28.371 9.389 28.4253C9.20744 28.4797 9.01638 28.4947 8.82857 28.4693C8.09658 28.3703 7.58202 27.6948 7.68071 26.9632C7.72768 26.6161 7.78016 26.2853 7.83555 25.9629H2.90186V36.5461C2.90186 37.4226 3.61272 38.1335 4.48976 38.1335C5.36603 38.1335 6.07689 37.4226 6.07689 36.5461V28.9851H6.70621V36.5461C6.70621 37.4226 7.41708 38.1335 8.29396 38.1335C9.17054 38.1335 9.8814 37.4226 9.8814 36.5461V31.0331L9.77644 30.9725Z" fill="#9BA8AF"/>
<path d="M2.90179 23.4895V25.5039H7.91811C8.39518 22.9957 9.11906 21.2683 9.88134 20.0808V19.6513C9.91989 19.7279 9.95922 19.8121 9.99869 19.903C10.4807 19.1895 10.9727 18.6835 11.4233 18.3266C11.2549 18.0548 11.0717 17.8129 10.8728 17.6039C10.3534 17.0583 9.73414 16.7436 9.06948 16.6811C9.03429 16.6769 8.99889 16.6747 8.96345 16.6745H8.94662C8.90577 16.6727 8.86537 16.668 8.82421 16.668C8.78657 16.668 8.7497 16.6704 8.71313 16.6745H4.06999C4.03312 16.6703 3.99603 16.6681 3.95891 16.668C3.91775 16.668 3.87736 16.6726 3.8365 16.6745H3.81952C3.78408 16.6747 3.74868 16.6769 3.71349 16.6811C3.04898 16.7436 2.42961 17.0583 1.91015 17.6039C0.465311 19.1219 -0.180377 22.3182 0.043319 26.8472C0.0575149 27.1098 0.175136 27.3561 0.37045 27.5322C0.565764 27.7083 0.822872 27.7998 1.08553 27.7868C1.34818 27.7738 1.595 27.6574 1.77199 27.4629C1.94898 27.2684 2.04173 27.0117 2.02996 26.749C1.82738 22.6473 2.41844 20.6102 2.90163 19.6508L2.90179 23.4895Z" fill="#9BA8AF"/>
<path d="M6.39152 16.1385C8.12383 16.1385 9.52815 14.7342 9.52815 13.0019C9.52815 11.2696 8.12383 9.86523 6.39152 9.86523C4.6592 9.86523 3.25488 11.2696 3.25488 13.0019C3.25488 14.7342 4.6592 16.1385 6.39152 16.1385Z" fill="#9BA8AF"/>
<path d="M12.2761 31.9097V36.8428C12.2812 37.1694 12.4146 37.481 12.6474 37.7102C12.8802 37.9394 13.1938 38.0678 13.5205 38.0678C13.8472 38.0678 14.1608 37.9394 14.3936 37.7102C14.6264 37.481 14.7598 37.1694 14.7649 36.8428V32.2215C13.8011 32.192 12.966 32.0668 12.2761 31.9097ZM15.6265 36.8428C15.6266 37.1729 15.7578 37.4894 15.9912 37.7228C16.2246 37.9562 16.5411 38.0873 16.8712 38.0873C17.2013 38.0873 17.5177 37.9561 17.7511 37.7227C17.9845 37.4893 18.1156 37.1728 18.1156 36.8428V31.9097C17.4257 32.0668 16.5906 32.1921 15.6265 32.2217V36.8428ZM15.1959 17.2111C15.2431 17.2111 15.2926 17.2134 15.341 17.2145C16.9632 17.1381 18.2559 15.8027 18.2559 14.1617C18.2559 12.4716 16.8859 11.1016 15.1958 11.1016C13.5057 11.1016 12.1357 12.4716 12.1357 14.1617C12.1357 15.8028 13.4286 17.1383 15.0507 17.2145C15.0991 17.2134 15.1487 17.2111 15.1959 17.2111ZM8.13561 27.024C8.10437 27.2553 8.16626 27.4894 8.30767 27.675C8.44907 27.8606 8.65841 27.9824 8.88963 28.0137C9.00416 28.0294 9.12066 28.0223 9.23245 27.9929C9.34425 27.9635 9.44913 27.9122 9.54109 27.8422C9.63304 27.7721 9.71027 27.6846 9.76833 27.5847C9.82639 27.4847 9.86414 27.3743 9.87943 27.2597C10.2581 24.4575 10.9185 22.6819 11.577 21.5588C10.9776 24.3305 10.2355 28.256 10.2355 30.7066C10.2355 30.7066 12.082 31.7698 15.1958 31.7698C18.3096 31.7698 20.1561 30.7066 20.1561 30.7066C20.1561 28.2551 19.4134 24.3273 18.8138 21.5554C19.4716 22.679 20.1333 24.4558 20.5123 27.2597C20.5269 27.3749 20.5641 27.4861 20.6219 27.5869C20.6797 27.6877 20.7569 27.776 20.849 27.8468C20.9411 27.9176 21.0463 27.9695 21.1585 27.9994C21.2708 28.0293 21.3878 28.0367 21.503 28.0211C21.6181 28.0056 21.729 27.9674 21.8293 27.9087C21.9295 27.8501 22.0172 27.7722 22.0872 27.6795C22.1572 27.5868 22.2082 27.4811 22.2371 27.3686C22.2661 27.2561 22.2725 27.139 22.256 27.024C21.3182 20.085 18.6618 18.424 17.5317 18.0286C17.2793 17.9341 16.9188 17.8387 16.4148 17.7772C16.0653 17.7206 15.6325 17.6703 15.1959 17.6703C14.7596 17.6703 14.3269 17.7206 13.9777 17.7772C13.4708 17.8391 13.1089 17.9351 12.856 18.0302C11.7235 18.428 9.07232 20.0935 8.13561 27.024ZM29.8847 31.9097V36.8428C29.8899 37.1694 30.0232 37.481 30.256 37.7102C30.4888 37.9394 30.8024 38.0678 31.1291 38.0678C31.4558 38.0678 31.7694 37.9394 32.0022 37.7102C32.2351 37.481 32.3684 37.1694 32.3735 36.8428V32.2215C31.4096 32.192 30.5746 32.0668 29.8847 31.9097ZM33.235 36.8428C33.235 37.1729 33.3662 37.4894 33.5996 37.7228C33.833 37.9562 34.1496 38.0873 34.4797 38.0873C34.8097 38.0873 35.1262 37.9561 35.3596 37.7227C35.5929 37.4893 35.724 37.1728 35.7241 36.8428V31.9097C35.0342 32.0668 34.1991 32.1921 33.235 32.2217V36.8428ZM32.8044 17.2111C32.8515 17.2111 32.9011 17.2134 32.9494 17.2145C34.5716 17.1381 35.8644 15.8027 35.8644 14.1617C35.8644 12.4716 34.4944 11.1016 32.8042 11.1016C31.1141 11.1016 29.7441 12.4716 29.7441 14.1617C29.7441 15.8028 31.037 17.1383 32.6592 17.2145C32.7075 17.2134 32.7571 17.2111 32.8044 17.2111ZM25.7442 27.024C25.713 27.2553 25.7749 27.4894 25.9163 27.675C26.0577 27.8606 26.267 27.9824 26.4982 28.0137C26.6128 28.0294 26.7293 28.0223 26.8411 27.9929C26.9529 27.9635 27.0577 27.9122 27.1497 27.8422C27.2417 27.7721 27.3189 27.6846 27.3769 27.5847C27.435 27.4847 27.4728 27.3743 27.488 27.2597C27.8667 24.4575 28.5271 22.6819 29.1856 21.5588C28.5862 24.3305 27.8441 28.256 27.8441 30.7066C27.8441 30.7066 29.6906 31.7698 32.8044 31.7698C35.9182 31.7698 37.7647 30.7066 37.7647 30.7066C37.7647 28.2551 37.022 24.3273 36.4224 21.5554C37.0802 22.679 37.7419 24.4558 38.1209 27.2597C38.1355 27.3749 38.1728 27.4861 38.2305 27.5869C38.2883 27.6877 38.3655 27.776 38.4576 27.8468C38.5497 27.9176 38.6549 27.9695 38.7671 27.9994C38.8794 28.0293 38.9965 28.0367 39.1116 28.0211C39.2267 28.0056 39.3376 27.9674 39.4379 27.9087C39.5381 27.8501 39.6258 27.7722 39.6958 27.6795C39.7658 27.5868 39.8168 27.4811 39.8458 27.3686C39.8747 27.2561 39.8811 27.139 39.8646 27.024C38.9268 20.085 36.2705 18.424 35.1404 18.0286C34.8879 17.9341 34.5274 17.8387 34.0234 17.7772C33.6739 17.7206 33.2411 17.6703 32.8046 17.6703C32.3682 17.6703 31.9355 17.7206 31.5863 17.7772C31.0794 17.8391 30.7175 17.9351 30.4646 18.0302C29.3321 18.428 26.6808 20.0935 25.7442 27.024Z" fill="#9BA8AF"/>
</svg>
