<svg width="24" height="24" viewBox="0 0 24 24" fill="none" xmlns="http://www.w3.org/2000/svg">
<path fill-rule="evenodd" clip-rule="evenodd" d="M12.0001 2C10.674 2 9.4022 2.52678 8.46452 3.46447C7.52684 4.40215 7.00005 5.67392 7.00005 7C7.00005 8.32608 7.52684 9.59785 8.46452 10.5355C9.4022 11.4732 10.674 12 12.0001 12C13.3261 12 14.5979 11.4732 15.5356 10.5355C16.4733 9.59785 17.0001 8.32608 17.0001 7C17.0001 5.67392 16.4733 4.40215 15.5356 3.46447C14.5979 2.52678 13.3261 2 12.0001 2ZM9.00005 13C7.33705 13 5.73805 13.758 4.80105 14.9C4.32605 15.48 3.99105 16.197 3.96205 16.992C3.93205 17.804 4.22505 18.596 4.83005 19.287C6.30205 20.972 8.65305 22 12.0001 22C15.3471 22 17.6981 20.972 19.1701 19.287C19.7751 18.596 20.0681 17.804 20.0381 16.992C20.0081 16.197 19.6751 15.48 19.1981 14.9C18.2631 13.76 16.6641 13 15.0001 13H9.00005Z" fill="#E7EAEB"/>
</svg>
