<svg width="26" height="29" viewBox="0 0 26 29" fill="none" xmlns="http://www.w3.org/2000/svg">
<g filter="url(#filter0_d_148_5796)">
<path d="M13 9.70844C12.6422 9.70844 12.3455 9.41171 12.3455 9.05389V6.14771C12.3455 5.78989 12.6422 5.49316 13 5.49316C13.3578 5.49316 13.6545 5.78989 13.6545 6.14771V9.05389C13.6545 9.42044 13.3578 9.70844 13 9.70844Z" fill="#00AAFF"/>
<path d="M13.0174 18.2877C10.7657 18.2877 8.52284 17.9299 6.38465 17.2142C5.59047 16.9524 4.98829 16.3851 4.72647 15.6695C4.46465 14.9539 4.55193 14.1335 4.97956 13.4179L6.08793 11.5677C6.33229 11.1575 6.55047 10.3895 6.55047 9.9095V8.07677C6.55047 4.50732 9.44793 1.60986 13.0174 1.60986C16.5868 1.60986 19.4843 4.50732 19.4843 8.07677V9.9095C19.4843 10.3808 19.7025 11.1575 19.9468 11.5677L21.0552 13.4179C21.4654 14.0986 21.5352 14.9102 21.2647 15.652C20.9941 16.3939 20.4007 16.9611 19.6501 17.2142C17.5119 17.9386 15.269 18.2877 13.0174 18.2877ZM13.0174 2.92768C10.1723 2.92768 7.85956 5.24041 7.85956 8.0855V9.91823C7.85956 10.6251 7.58029 11.6462 7.21374 12.2484L6.10538 14.1073C5.87847 14.4826 5.82611 14.884 5.95702 15.2331C6.08793 15.5822 6.38465 15.844 6.80356 15.9837C10.8181 17.319 15.2341 17.319 19.2487 15.9837C19.6239 15.8615 19.9119 15.5822 20.0428 15.2157C20.1825 14.8491 20.1388 14.4477 19.9381 14.1073L18.8297 12.2571C18.4632 11.655 18.1839 10.6339 18.1839 9.92695V8.09423C18.1752 5.24041 15.8625 2.92768 13.0174 2.92768Z" fill="#00AAFF"/>
<path d="M12.9999 20.5129C12.0661 20.5129 11.1498 20.1289 10.4865 19.4656C9.82321 18.8023 9.43921 17.886 9.43921 16.9521H10.7483C10.7483 17.5456 10.9927 18.1216 11.4116 18.5405C11.8305 18.9594 12.4065 19.2038 12.9999 19.2038C14.2392 19.2038 15.2516 18.1914 15.2516 16.9521H16.5607C16.5607 18.9158 14.9636 20.5129 12.9999 20.5129Z" fill="#00AAFF"/>
</g>
<defs>
<filter id="filter0_d_148_5796" x="0.578735" y="1.60986" width="24.8472" height="26.9028" filterUnits="userSpaceOnUse" color-interpolation-filters="sRGB">
<feFlood flood-opacity="0" result="BackgroundImageFix"/>
<feColorMatrix in="SourceAlpha" type="matrix" values="0 0 0 0 0 0 0 0 0 0 0 0 0 0 0 0 0 0 127 0" result="hardAlpha"/>
<feOffset dy="4"/>
<feGaussianBlur stdDeviation="2"/>
<feComposite in2="hardAlpha" operator="out"/>
<feColorMatrix type="matrix" values="0 0 0 0 0 0 0 0 0 0 0 0 0 0 0 0 0 0 0.25 0"/>
<feBlend mode="normal" in2="BackgroundImageFix" result="effect1_dropShadow_148_5796"/>
<feBlend mode="normal" in="SourceGraphic" in2="effect1_dropShadow_148_5796" result="shape"/>
</filter>
</defs>
</svg>
