<svg width="36" height="39" viewBox="0 0 36 39" fill="none" xmlns="http://www.w3.org/2000/svg">
<path d="M15.2849 16.5419C14.4804 18.1508 14.4804 19.9609 15.2849 21.5698C16.8938 22.3743 18.7039 22.3743 20.3128 21.5698C21.1173 19.9609 21.1173 18.1508 20.3128 16.5419C18.905 15.7374 16.8938 15.7374 15.2849 16.5419Z" fill="#9BA8AF"/>
<path d="M33.7877 20.9665C33.7877 20.3631 33.9888 19.7598 33.9888 19.1564C33.9888 18.553 33.9888 17.9497 33.7877 17.3463C33.9888 17.1452 34.391 16.9441 34.5921 16.5419C35.3966 15.7374 35.7988 14.7318 35.7988 13.5251C35.5977 10.7095 34.1899 7.89384 31.5754 6.28491C30.5698 5.68156 29.5642 5.48044 28.3575 5.88267C27.9553 5.88267 27.7542 6.08379 27.3519 6.28491C26.3463 5.48044 25.3407 4.87709 24.134 4.47485C24.134 4.07262 23.9329 3.8715 23.9329 3.46927C23.7318 2.46368 22.9273 1.4581 21.9218 1.05586C19.3072 -0.351955 16.2905 -0.351955 13.676 1.05586C12.6704 1.25698 12.067 2.26257 11.6648 3.26815C11.6648 3.67039 11.4637 3.8715 11.4637 4.27374C10.4581 4.87709 9.25138 5.48044 8.44692 6.08379C8.04468 6.08379 7.64245 5.88267 7.44133 5.88267C6.23463 5.48044 5.02793 5.68156 4.22346 6.28491C1.81005 7.89384 0.201117 10.7095 0 13.5251C0 14.7318 0.402234 15.7374 1.2067 16.5419C1.40782 16.743 1.60894 16.9441 2.01117 17.3463C2.01117 17.9497 1.81005 18.553 1.81005 19.1564C1.81005 19.7598 1.81005 20.3631 2.01117 20.9665C1.81005 21.1676 1.40782 21.3687 1.2067 21.7709C0.402234 22.3743 0 23.581 0 24.5866C0.201117 27.6033 1.81005 30.2178 4.22346 31.8268C5.22904 32.4301 6.23463 32.6312 7.44133 32.229C7.64245 32.229 8.04468 32.0279 8.44692 32.0279C9.4525 32.8324 10.4581 33.4357 11.6648 33.8379C11.6648 34.2402 11.8659 34.4413 11.8659 34.8435C12.067 35.8491 12.8715 36.8547 13.8771 37.2569C16.4916 38.6648 19.5084 38.6648 22.1229 37.2569C23.1285 36.6536 23.9329 35.8491 24.134 34.8435C24.134 34.4413 24.3352 34.2402 24.3352 33.8379C25.5419 33.4357 26.5474 32.8324 27.553 32.0279C27.9553 32.229 28.1564 32.229 28.5586 32.4301C29.5642 32.8324 30.7709 32.6312 31.7765 32.0279C34.1899 30.419 35.7988 27.8044 36 24.7877C36 23.581 35.5977 22.5754 34.7932 21.7709C34.391 21.3687 34.1899 21.1676 33.7877 20.9665ZM23.9329 23.3799C23.5307 24.1843 22.9273 24.7877 22.1229 25.1899C20.7151 25.7933 19.3072 26.1955 17.6983 26.1955C16.0894 26.1955 14.6815 25.7933 13.2737 25.1899C12.4693 24.7877 11.8659 24.1843 11.4637 23.3799C10.0559 20.5642 10.0559 17.3463 11.4637 14.7318C12.2681 13.9274 12.8715 13.324 13.4748 12.9218C16.2905 11.514 19.5084 11.514 22.1229 12.9218C22.9273 13.324 23.5307 13.9274 23.9329 14.7318C25.3407 17.5475 25.3407 20.7653 23.9329 23.3799Z" fill="#9BA8AF"/>
</svg>
