<svg width="18" height="18" viewBox="0 0 18 18" fill="none" xmlns="http://www.w3.org/2000/svg">
<path fill-rule="evenodd" clip-rule="evenodd" d="M0 9.00475C0 4.03742 4.03937 0 8.99954 0C13.9597 0 17.9991 4.03742 17.9991 9.00475C17.9991 13.9617 13.9597 17.9991 8.99954 17.9991C4.03937 17.9991 0 13.9617 0 9.00475ZM12.3005 9.91613C12.3961 9.82062 12.5177 9.67302 12.5438 9.63828C12.6828 9.45595 12.7522 9.2302 12.7522 9.00532C12.7522 8.75266 12.6741 8.51823 12.5264 8.32721C12.5143 8.31511 12.4906 8.28932 12.4597 8.2557C12.4019 8.19281 12.319 8.10253 12.2397 8.02332C11.5274 7.25925 9.66843 6.00895 8.6955 5.62691C8.54783 5.567 8.17429 5.43589 7.9745 5.42721C7.78339 5.42721 7.60096 5.47062 7.42723 5.55745C7.21006 5.67901 7.03632 5.87002 6.94077 6.09577C6.87996 6.25206 6.7844 6.72092 6.7844 6.7296C6.68885 7.24188 6.63673 8.07541 6.63673 8.99577C6.63673 9.87358 6.68885 10.6715 6.76703 11.1925C6.76918 11.1946 6.77665 11.2319 6.78826 11.2898C6.82355 11.4657 6.89707 11.8323 6.97551 11.9826C7.16662 12.3473 7.54016 12.573 7.93975 12.573H7.9745C8.2351 12.5643 8.78237 12.3386 8.78237 12.3299C9.70317 11.9479 11.5187 10.7583 12.2484 9.96822L12.3005 9.91613Z" fill="#0C2B3B"/>
</svg>
