<svg width="50" height="44" viewBox="0 0 50 44" fill="none" xmlns="http://www.w3.org/2000/svg">
<path d="M9 0L11.4308 6.56918L18 9L11.4308 11.4308L9 18L6.56918 11.4308L0 9L6.56918 6.56918L9 0Z" fill="#F8DB9D"/>
<path d="M45 34L46.3505 37.6495L50 39L46.3505 40.3505L45 44L43.6495 40.3505L40 39L43.6495 37.6495L45 34Z" fill="#F5CD75"/>
<rect x="11" y="6" width="32" height="32" rx="6" fill="#EEA811"/>
<path d="M28.0103 32.4439C27.4103 32.4439 26.4803 32.1539 25.5903 30.6939L23.8303 27.8439C23.6603 27.5639 23.1403 27.2939 22.8203 27.3139L19.4802 27.4839C17.4802 27.5839 16.7803 26.7539 16.5303 26.2539C16.2803 25.7539 16.0602 24.6839 17.3602 23.1639L19.3403 20.8639C19.5403 20.6239 19.6503 20.1039 19.5603 19.8039L18.5502 16.5739C18.0402 14.9539 18.6102 14.0839 18.9902 13.7039C19.3702 13.3239 20.2503 12.7739 21.8703 13.3139L24.8203 14.2839C25.0903 14.3739 25.5903 14.2939 25.8203 14.1339L28.9003 11.9139C30.3103 10.8939 31.3302 11.1639 31.8002 11.4139C32.2702 11.6639 33.0702 12.3439 33.0402 14.0839L32.9702 17.8739C32.9602 18.1539 33.1902 18.6139 33.4102 18.7839L35.8903 20.6639C37.2403 21.6939 37.2903 22.7239 37.2003 23.2539C37.1103 23.7839 36.7103 24.7439 35.0903 25.2439L31.8602 26.2539C31.5602 26.3439 31.1902 26.7339 31.1102 27.0339L30.3403 29.9739C29.8303 31.9039 28.8303 32.3339 28.2703 32.4139C28.2003 32.4339 28.1103 32.4439 28.0103 32.4439ZM22.8502 25.8139C23.7102 25.8139 24.6602 26.3339 25.1002 27.0539L26.8602 29.9039C27.3602 30.7239 27.8102 30.9739 28.0502 30.9339C28.2802 30.9039 28.6403 30.5239 28.8903 29.6039L29.6602 26.6639C29.8702 25.8639 30.6202 25.0739 31.4102 24.8339L34.6403 23.8239C35.2603 23.6339 35.6602 23.3239 35.7202 23.0039C35.7802 22.6839 35.5002 22.2639 34.9802 21.8639L32.5003 19.9839C31.8903 19.5239 31.4503 18.6039 31.4603 17.8439L31.5303 14.0539C31.5403 13.3839 31.3803 12.8839 31.0903 12.7339C30.8003 12.5839 30.3103 12.7339 29.7603 13.1239L26.6802 15.3439C26.0702 15.7839 25.0603 15.9439 24.3303 15.7039L21.3803 14.7339C20.7603 14.5339 20.2603 14.5439 20.0303 14.7739C19.8003 15.0039 19.7802 15.5039 19.9702 16.1239L20.9802 19.3539C21.2302 20.1439 21.0102 21.2139 20.4702 21.8339L18.4902 24.1339C17.8602 24.8639 17.7603 25.3739 17.8703 25.5839C17.9703 25.7939 18.4503 26.0239 19.4003 25.9739L22.7402 25.8039C22.7802 25.8139 22.8202 25.8139 22.8502 25.8139Z" fill="white"/>
<path d="M36.9098 32.6955C36.7198 32.6955 36.5299 32.6255 36.3799 32.4755L33.3498 29.4455C33.0598 29.1555 33.0598 28.6755 33.3498 28.3855C33.6398 28.0955 34.1198 28.0955 34.4098 28.3855L37.4399 31.4155C37.7299 31.7055 37.7299 32.1855 37.4399 32.4755C37.2899 32.6255 37.0998 32.6955 36.9098 32.6955Z" fill="white"/>
</svg>
