<svg width="18" height="19" viewBox="0 0 18 19" fill="none" xmlns="http://www.w3.org/2000/svg">
<path fill-rule="evenodd" clip-rule="evenodd" d="M8.80407 1.55664C12.8316 1.55664 16.1076 4.83264 16.1076 8.86014C16.1076 10.7603 15.3784 12.4933 14.1851 13.794L16.5331 16.1372C16.7529 16.3569 16.7536 16.7124 16.5339 16.9322C16.4244 17.0432 16.2796 17.0979 16.1356 17.0979C15.9924 17.0979 15.8484 17.0432 15.7381 16.9337L13.3617 14.5639C12.1116 15.565 10.5266 16.1644 8.80407 16.1644C4.77657 16.1644 1.49982 12.8876 1.49982 8.86014C1.49982 4.83264 4.77657 1.55664 8.80407 1.55664ZM8.80407 2.68164C5.39682 2.68164 2.62482 5.45289 2.62482 8.86014C2.62482 12.2674 5.39682 15.0394 8.80407 15.0394C12.2106 15.0394 14.9826 12.2674 14.9826 8.86014C14.9826 5.45289 12.2106 2.68164 8.80407 2.68164Z" fill="#9CA4AB"/>
</svg>
