<svg width="24" height="25" viewBox="0 0 24 25" fill="none" xmlns="http://www.w3.org/2000/svg">
<path d="M13.0103 22.5572C12.4103 22.5572 11.4803 22.2672 10.5903 20.8072L8.83027 17.9572C8.66027 17.6772 8.14026 17.4072 7.82026 17.4272L4.48024 17.5972C2.48024 17.6972 1.78028 16.8672 1.53028 16.3672C1.28028 15.8672 1.06024 14.7972 2.36024 13.2772L4.34028 10.9772C4.54028 10.7372 4.65025 10.2171 4.56025 9.91714L3.55024 6.68716C3.04024 5.06716 3.61025 4.19717 3.99025 3.81717C4.37024 3.43717 5.25025 2.88716 6.87025 3.42716L9.82026 4.39716C10.0903 4.48716 10.5903 4.40716 10.8203 4.24716L13.9003 2.02716C15.3103 1.00716 16.3302 1.27716 16.8002 1.52716C17.2702 1.77716 18.0702 2.45717 18.0402 4.19717L17.9702 7.98715C17.9602 8.26715 18.1902 8.72716 18.4102 8.89716L20.8903 10.7772C22.2403 11.8072 22.2903 12.8372 22.2003 13.3672C22.1103 13.8972 21.7103 14.8571 20.0903 15.3571L16.8602 16.3672C16.5602 16.4572 16.1902 16.8472 16.1102 17.1472L15.3403 20.0872C14.8303 22.0172 13.8303 22.4472 13.2703 22.5272C13.2003 22.5472 13.1103 22.5572 13.0103 22.5572ZM7.85023 15.9272C8.71023 15.9272 9.66023 16.4471 10.1002 17.1671L11.8602 20.0172C12.3602 20.8372 12.8102 21.0872 13.0502 21.0471C13.2802 21.0171 13.6403 20.6372 13.8903 19.7172L14.6602 16.7772C14.8702 15.9772 15.6202 15.1872 16.4102 14.9472L19.6403 13.9372C20.2603 13.7472 20.6602 13.4372 20.7202 13.1172C20.7802 12.7972 20.5002 12.3772 19.9802 11.9772L17.5003 10.0972C16.8903 9.63717 16.4503 8.71715 16.4603 7.95715L16.5303 4.16715C16.5403 3.49715 16.3803 2.99717 16.0903 2.84717C15.8003 2.69717 15.3103 2.84715 14.7603 3.23715L11.6802 5.45715C11.0702 5.89715 10.0603 6.05717 9.33027 5.81717L6.38026 4.84717C5.76026 4.64717 5.26028 4.65715 5.03028 4.88715C4.80028 5.11715 4.78023 5.61715 4.97023 6.23715L5.98024 9.46716C6.23024 10.2572 6.01023 11.3272 5.47023 11.9472L3.49025 14.2472C2.86025 14.9772 2.76025 15.4872 2.87025 15.6972C2.97025 15.9072 3.45028 16.1372 4.40028 16.0872L7.74025 15.9171C7.78025 15.9271 7.82023 15.9272 7.85023 15.9272Z" fill="#00AAFF"/>
<path d="M21.9098 22.8068C21.7198 22.8068 21.5299 22.7368 21.3799 22.5868L18.3498 19.5568C18.0598 19.2668 18.0598 18.7868 18.3498 18.4968C18.6398 18.2068 19.1198 18.2068 19.4098 18.4968L22.4399 21.5268C22.7299 21.8168 22.7299 22.2968 22.4399 22.5868C22.2899 22.7368 22.0998 22.8068 21.9098 22.8068Z" fill="#00AAFF"/>
</svg>
