<svg width="18" height="18" viewBox="0 0 18 18" fill="none" xmlns="http://www.w3.org/2000/svg">
<g clip-path="url(#clip0_69_5217)">
<path d="M16.5 9C16.5 8.01509 16.306 7.03982 15.9291 6.12987C15.5522 5.21993 14.9997 4.39314 14.3033 3.6967C13.6069 3.00026 12.7801 2.44781 11.8701 2.0709C10.9602 1.69399 9.98491 1.5 9 1.5C7.01088 1.5 5.10322 2.29018 3.6967 3.6967C2.29018 5.10322 1.5 7.01088 1.5 9C1.5 10.9891 2.29018 12.8968 3.6967 14.3033C5.10322 15.7098 7.01088 16.5 9 16.5C10.9891 16.5 12.8968 15.7098 14.3033 14.3033C15.7098 12.8968 16.5 10.9891 16.5 9ZM14.9475 8.25H12.75C12.6263 6.48611 12.0219 4.78976 11.0025 3.345C12.0498 3.71698 12.9733 4.37255 13.6699 5.23863C14.3664 6.10471 14.8088 7.14725 14.9475 8.25ZM6.81 9.75H11.25C11.0581 11.6029 10.2683 13.3431 9 14.7075C7.73255 13.3488 6.96089 11.602 6.81 9.75ZM6.81 8.25C6.98466 6.40637 7.75319 4.66929 9 3.3C10.2785 4.65459 11.0701 6.39603 11.25 8.25H6.81ZM7.08 3.3225C6.05516 4.77527 5.4411 6.47754 5.3025 8.25H3.0525C3.19418 7.13362 3.64696 6.07959 4.35912 5.20828C5.07129 4.33697 6.01414 3.6835 7.08 3.3225ZM3.0525 9.75H5.3025C5.42602 11.521 6.03591 13.2235 7.065 14.67C6.00298 14.3072 5.06399 13.6539 4.3547 12.7842C3.64541 11.9145 3.19426 10.8633 3.0525 9.75ZM10.965 14.6625C11.9913 13.2155 12.608 11.5183 12.75 9.75H14.9625C14.8207 10.8602 14.3711 11.9086 13.6647 12.7767C12.9583 13.6448 12.0232 14.298 10.965 14.6625Z" fill="#00AAFF"/>
</g>
<defs>
<clipPath id="clip0_69_5217">
<rect width="18" height="18" fill="white"/>
</clipPath>
</defs>
</svg>
