<svg width="27" height="24" viewBox="0 0 27 24" fill="none" xmlns="http://www.w3.org/2000/svg">
<path d="M16.2693 0.380863C16.0874 0.198996 15.8556 0.0751497 15.6033 0.0249803C15.3511 -0.0251891 15.0895 0.000570763 14.8519 0.0990037C14.6142 0.197437 14.4111 0.364123 14.2681 0.57799C14.1252 0.791858 14.0489 1.0433 14.0488 1.30054V5.8534C10.3123 5.89209 6.74175 7.40247 4.1117 10.0569C1.48165 12.7113 0.00425102 16.2956 0 20.0323V22.3738C7.4376e-06 22.6529 0.0898019 22.9246 0.256117 23.1488C0.422431 23.373 0.656444 23.5377 0.923581 23.6187C1.04584 23.656 1.17299 23.6749 1.30082 23.6746C1.51504 23.6745 1.72592 23.6215 1.91473 23.5203C2.10353 23.4191 2.26442 23.2728 2.3831 23.0944C7.35222 15.6408 12.1171 15.11 14.0488 15.2635V20.0323C14.0489 20.2896 14.1252 20.541 14.2681 20.7549C14.4111 20.9687 14.6142 21.1354 14.8519 21.2339C15.0895 21.3323 15.3511 21.358 15.6033 21.3079C15.8556 21.2577 16.0874 21.1339 16.2693 20.952L25.6352 11.5861C25.8791 11.3422 26.0161 11.0114 26.0161 10.6664C26.0161 10.3215 25.8791 9.99069 25.6352 9.74675L16.2693 0.380863Z" fill="white"/>
</svg>
