<svg width="24" height="25" viewBox="0 0 24 25" fill="none" xmlns="http://www.w3.org/2000/svg">
<path d="M10.6583 11.8157C10.7403 12.0617 10.7403 12.3077 10.7403 12.5537C10.7403 12.7997 10.6993 13.0457 10.6583 13.2917L15.0046 16.5309C15.4966 16.0799 16.1936 15.7929 16.8907 15.7929C18.4897 15.7929 19.7608 17.064 19.7608 18.663C19.7608 20.2621 18.4897 21.5332 16.8907 21.5332C15.2916 21.5332 14.0205 20.2621 14.0205 18.663C14.0205 18.417 14.0615 18.171 14.1025 17.925L9.75626 14.6858C9.26424 15.1368 8.6082 15.4239 7.87016 15.4239C6.27107 15.4239 5 14.1528 5 12.5537C5 10.9546 6.27107 9.68355 7.87016 9.68355C8.6082 9.68355 9.26424 9.97056 9.75626 10.4216L14.1025 7.18241C14.0615 6.89539 14.0205 6.64938 14.0205 6.40336C14.0205 4.80427 15.2916 3.5332 16.8907 3.5332C18.4897 3.5332 19.7608 4.80427 19.7608 6.40336C19.7608 8.00245 18.4897 9.27352 16.8907 9.27352C16.1526 9.27352 15.4966 8.98651 15.0046 8.53548L10.6583 11.8157ZM16.8907 7.63343C17.5877 7.63343 18.1207 7.1004 18.1207 6.40336C18.1207 5.70632 17.5877 5.17329 16.8907 5.17329C16.1936 5.17329 15.6606 5.70632 15.6606 6.40336C15.6606 7.1004 16.1936 7.63343 16.8907 7.63343ZM16.8907 19.9341C17.5877 19.9341 18.1207 19.4011 18.1207 18.704C18.1207 18.007 17.5877 17.474 16.8907 17.474C16.1936 17.474 15.6606 18.007 15.6606 18.704C15.6606 19.4011 16.1936 19.9341 16.8907 19.9341ZM7.87016 13.7838C8.5672 13.7838 9.10023 13.2507 9.10023 12.5537C9.10023 11.8567 8.5672 11.3236 7.87016 11.3236C7.17312 11.3236 6.64009 11.8567 6.64009 12.5537C6.64009 13.2507 7.17312 13.7838 7.87016 13.7838Z" fill="#72848D"/>
</svg>
