<svg width="16" height="19" viewBox="0 0 16 19" fill="none" xmlns="http://www.w3.org/2000/svg">
<g clip-path="url(#clip0_75_3454)">
<path d="M7.44649 0.673828C7.44649 3.38926 7.44649 6.10469 7.44649 8.9024C7.84498 8.80057 8.24347 8.69874 8.65404 8.59383C8.82008 8.59383 8.98611 8.59383 9.15718 8.59383C9.15517 8.5263 9.15316 8.45877 9.15109 8.38919C9.13098 7.68339 9.11736 6.97766 9.10743 6.27163C9.10289 6.00853 9.09672 5.74545 9.08886 5.48242C9.07781 5.1032 9.07272 4.7243 9.06874 4.34494C9.06406 4.22823 9.05939 4.11151 9.05457 3.99126C9.05417 3.33208 9.13374 2.98922 9.59392 2.51157C10.496 1.7024 10.496 1.7024 10.8679 1.7024C10.8679 3.8408 10.8679 5.9792 10.8679 8.1824C11.3992 8.04663 11.9305 7.91086 12.4779 7.77097C12.9243 7.67319 13.3698 7.5779 13.8176 7.48811C13.9278 7.46544 14.0379 7.44277 14.1515 7.41941C14.9539 7.25669 14.9539 7.25669 15.2955 7.25669C15.2756 7.57224 15.2441 7.871 15.1949 8.1824C15.182 8.26872 15.169 8.35503 15.1557 8.44396C15.0746 8.75809 14.9927 8.95625 14.7924 9.21097C14.2775 9.44905 13.7492 9.53878 13.1949 9.63526C13.0466 9.66485 12.8985 9.69485 12.7503 9.72526C12.1475 9.84525 11.5861 9.93097 10.9685 9.93097C10.9685 10.5419 10.9685 11.1529 10.9685 11.7824C11.2387 11.723 11.5089 11.6636 11.7873 11.6024C12.0497 11.5451 12.3122 11.488 12.5746 11.4308C12.7567 11.3911 12.9387 11.3512 13.1207 11.3111C13.3826 11.2534 13.6447 11.1964 13.9068 11.1395C13.9878 11.1215 14.0689 11.1035 14.1524 11.085C14.54 11.0016 14.8968 10.9367 15.2955 10.9595C15.2561 11.5953 15.2035 12.3014 14.7924 12.811C14.2123 13.0066 13.6137 13.1295 13.0172 13.2618C12.9162 13.2843 12.8152 13.3069 12.7111 13.3301C12.4987 13.3774 12.2862 13.4246 12.0738 13.4717C11.748 13.5439 11.4223 13.6168 11.0966 13.6897C10.8899 13.7357 10.6831 13.7816 10.4764 13.8275C10.3301 13.8603 10.3301 13.8603 10.181 13.8937C10.0906 13.9136 10.0002 13.9336 9.90708 13.9541C9.82765 13.9718 9.74821 13.9894 9.66636 14.0076C9.45907 14.0453 9.45907 14.0453 9.15718 14.0453C9.15718 12.8573 9.15718 11.6693 9.15718 10.4453C8.59265 10.5471 8.02813 10.6489 7.44649 10.7538C7.45817 10.8981 7.46984 11.0423 7.48187 11.191C7.55608 12.5172 7.43301 13.4524 6.58906 14.4947C6.0482 15.1041 5.60217 15.377 4.81127 15.5367C4.72216 15.5565 4.63306 15.5762 4.54125 15.5966C4.34447 15.64 4.14748 15.6825 3.95032 15.7241C3.59014 15.8007 3.231 15.8816 2.87181 15.963C1.85959 16.1905 1.85959 16.1905 1.38635 16.2941C1.28386 16.3166 1.18138 16.3392 1.07579 16.3625C0.804982 16.411 0.804982 16.411 0.402466 16.411C0.445591 15.7277 0.498379 15.0232 0.90561 14.4567C1.32052 14.2442 1.74547 14.1771 2.20121 14.1031C2.38512 14.0678 2.38512 14.0678 2.57274 14.0317C2.8143 13.9855 3.05617 13.9409 3.29835 13.8982C3.68905 13.8275 4.07277 13.7389 4.45907 13.6467C4.88383 13.5479 5.18293 13.531 5.63517 13.531C5.63517 12.7503 5.63517 11.9696 5.63517 11.1653C5.46485 11.2094 5.29453 11.2536 5.11905 11.2991C4.42323 11.4767 3.72493 11.6414 3.02511 11.8017C2.90518 11.8297 2.78526 11.8578 2.6617 11.8867C2.48843 11.9263 2.48843 11.9263 2.31166 11.9668C2.20816 11.9907 2.10465 12.0146 1.99801 12.0392C1.72727 12.088 1.48162 12.1009 1.2075 12.091C1.22823 11.8102 1.26148 11.545 1.30813 11.2681C1.32174 11.1758 1.33535 11.0835 1.34938 10.9884C1.42906 10.6511 1.51238 10.4203 1.71064 10.1367C2.20379 9.88962 2.7151 9.80402 3.25152 9.7124C3.3941 9.6842 3.5366 9.65554 3.679 9.62642C4.29495 9.50303 4.91312 9.40371 5.53454 9.31383C5.53409 9.18092 5.53409 9.18092 5.53362 9.04533C5.53138 8.20847 5.53252 7.3717 5.53741 6.53484C5.5398 6.10464 5.54091 5.67452 5.53904 5.24432C5.53727 4.82877 5.53895 4.41338 5.54296 3.99785C5.54389 3.83969 5.54361 3.68152 5.54206 3.52336C5.53111 2.2856 5.53111 2.2856 5.78889 1.86008C5.96356 1.67897 6.13399 1.536 6.33957 1.39383C6.42532 1.31865 6.51106 1.24347 6.5994 1.16602C6.7105 1.07831 6.7105 1.07831 6.82385 0.988828C6.89921 0.9285 6.97458 0.868172 7.05223 0.806016C7.24523 0.673828 7.24523 0.673828 7.44649 0.673828Z" fill="#0C2B3B"/>
<path d="M15.2956 14.5586C15.2537 15.0211 15.1896 15.4749 15.088 15.9279C15.0703 16.0123 15.0525 16.0968 15.0342 16.1838C14.7916 16.5726 14.3078 16.6608 13.8854 16.7718C13.6799 16.8178 13.4741 16.8593 13.2673 16.899C13.1922 16.9141 13.117 16.9291 13.0396 16.9446C12.8022 16.9921 12.5646 17.0386 12.327 17.085C12.0895 17.132 11.8519 17.1791 11.6144 17.2265C11.4675 17.2558 11.3206 17.2848 11.1736 17.3134C10.8239 17.3825 10.479 17.4596 10.1342 17.5511C9.79059 17.6369 9.50866 17.6623 9.15723 17.6443C9.20353 17.0054 9.3021 16.3327 9.66037 15.7929C10.2078 15.5639 10.7953 15.4635 11.3726 15.3421C11.4785 15.3195 11.5844 15.297 11.6935 15.2738C11.9164 15.2264 12.1393 15.1792 12.3623 15.1322C12.7047 15.06 13.0469 14.9871 13.3891 14.9142C13.6059 14.8682 13.8226 14.8223 14.0393 14.7764C14.142 14.7545 14.2447 14.7327 14.3506 14.7101C14.4453 14.6902 14.5401 14.6703 14.6377 14.6497C14.7212 14.6321 14.8047 14.6144 14.8908 14.5963C15.0943 14.5586 15.0943 14.5586 15.2956 14.5586Z" fill="#0C2B3B"/>
<path d="M15.2956 14.5586C15.2956 14.7283 15.2956 14.898 15.2956 15.0729C15.1959 15.1238 15.1959 15.1238 15.0943 15.1757C15.0943 15.04 15.0943 14.9042 15.0943 14.7643C14.9947 14.8152 14.9947 14.8152 14.893 14.8672C14.6241 14.881 14.3574 14.8716 14.088 14.8672C14.4696 14.6421 14.8555 14.5586 15.2956 14.5586Z" fill="#0C2B3B"/>
<path d="M0.905604 14.457C1.00523 14.457 1.10485 14.457 1.20749 14.457C1.12573 14.7592 1.12573 14.7592 1.00623 15.0742C0.90661 15.1081 0.806987 15.1421 0.704346 15.177C0.792396 14.5727 0.792396 14.5727 0.905604 14.457Z" fill="#0C2B3B"/>
</g>
<defs>
<clipPath id="clip0_75_3454">
<rect width="16" height="18" fill="white" transform="translate(0 0.0566406)"/>
</clipPath>
</defs>
</svg>
