<svg width="39" height="46" viewBox="0 0 39 46" fill="none" xmlns="http://www.w3.org/2000/svg">
<path d="M24.1873 1.66522C24.3981 1.03292 24.8943 0.536756 25.5266 0.32599C26.8305 -0.108663 28.2403 -0.108663 29.5442 0.32599C30.1765 0.536756 30.6727 1.03292 30.8835 1.66522C31.3181 2.96918 31.3181 4.37894 30.8835 5.6829C30.6727 6.3152 30.1765 6.81136 29.5442 7.02212C28.2403 7.45678 26.8305 7.45678 25.5266 7.02212C24.8943 6.81136 24.3981 6.31519 24.1873 5.6829C23.7527 4.37894 23.7527 2.96918 24.1873 1.66522Z" fill="#9BA8AF"/>
<path fill-rule="evenodd" clip-rule="evenodd" d="M33.709 21.7259C34.2337 21.7599 34.7149 21.4566 34.95 20.9863C35.3408 20.2048 35.3408 19.2848 34.95 18.5032C34.7149 18.033 34.2328 17.7453 33.7095 17.6944C30.4492 17.3771 27.6241 15.2699 26.3301 12.3121L25.1248 9.90146C24.9239 8.89704 23.7186 7.69174 21.9106 7.69174H14.9138C12.7367 7.69174 11.6481 7.69174 10.7394 8.19539C9.83069 8.69903 9.25374 9.62214 8.09985 11.4684L5.83438 15.0931C5.58826 15.4869 5.56481 15.9804 5.77249 16.3958C6.1886 17.228 7.00848 17.7831 7.93572 17.8604L7.99983 17.8657C8.52308 17.9093 9.02627 17.6544 9.30065 17.2067L11.4943 13.6276C12.0688 12.6903 12.356 12.2216 12.8134 11.9655C13.2707 11.7094 13.8204 11.7094 14.9198 11.7094H17.4912L12.4691 19.343C11.8664 20.3474 11.6656 21.5527 12.0673 22.758L14.014 28.8976C14.3392 29.9231 14.5017 30.4358 14.4027 30.9401C14.3038 31.4444 13.9594 31.8576 13.2707 32.684L10.6684 35.8068C7.72722 35.6934 4.93 34.4753 2.84093 32.3862L0 35.2271C2.94921 38.1763 6.94919 39.8332 11.12 39.8332H27.8801C32.0509 39.8332 36.0509 38.1763 39.0001 35.2271L36.1591 32.3862C34.1194 34.4259 31.4046 35.6354 28.5398 35.7969V31.2183C28.5398 29.0463 28.5398 27.9603 28.0382 27.0531C27.5366 26.1458 26.6169 25.5683 24.7774 24.4133L19.9018 21.3519L23.5177 15.5262C25.59 19.1055 29.4288 21.4482 33.709 21.7259ZM24.5221 35.8155V31.8082C24.5221 30.7227 24.5221 30.18 24.2716 29.7266C24.021 29.2731 23.5615 28.9843 22.6425 28.4066L17.4912 25.1687L18.2071 27.5313C18.8391 29.6169 19.1552 30.6597 18.936 31.6763C18.7169 32.6928 17.9994 33.5128 16.5643 35.1529L15.9846 35.8155H24.5221Z" fill="#9BA8AF"/>
<path d="M4.18262 41.3398C4.34562 41.0138 4.60995 40.7495 4.93594 40.5865C5.88438 40.1123 7.00075 40.1123 7.9492 40.5865C8.27519 40.7495 8.53952 41.0138 8.70251 41.3398C9.17673 42.2883 9.17673 43.4046 8.70251 44.3531C8.53952 44.6791 8.27519 44.9434 7.9492 45.1064C7.00075 45.5806 5.88438 45.5806 4.93594 45.1064C4.60995 44.9434 4.34562 44.6791 4.18262 44.3531C3.7084 43.4046 3.7084 42.2883 4.18262 41.3398Z" fill="#9BA8AF"/>
<path d="M31.0509 40.5865C30.7249 40.7495 30.4605 41.0138 30.2975 41.3398C29.8233 42.2883 29.8233 43.4046 30.2975 44.3531C30.4605 44.6791 30.7249 44.9434 31.0509 45.1064C31.9993 45.5806 33.1157 45.5806 34.0641 45.1064C34.3901 44.9434 34.6544 44.6791 34.8174 44.3531C35.2917 43.4046 35.2917 42.2883 34.8174 41.3398C34.6544 41.0138 34.3901 40.7495 34.0641 40.5865C33.1157 40.1123 31.9993 40.1123 31.0509 40.5865Z" fill="#9BA8AF"/>
</svg>
