<svg width="390" height="798" viewBox="0 0 390 798" fill="none" xmlns="http://www.w3.org/2000/svg">
<path d="M351.276 38.7627C309.594 15.6256 261.222 6.67453 213.994 13.1741C194.634 15.8384 177.975 28.5209 170.369 46.5222L150.056 94.5931C133.644 133.432 125.438 152.851 109.021 163.926C92.6032 175.001 71.5241 175.338 29.3659 176.011L-18.8677 176.781C-38.5864 177.096 -56.6498 187.94 -66.221 205.183C-89.3581 246.865 -98.3827 294.983 -91.8832 342.211C-89.1883 361.793 -76.2072 378.43 -57.868 385.805L-12.3023 404.131C27.6722 420.208 47.6595 428.246 59.0636 444.901C70.4678 461.556 70.7351 483.097 71.2696 526.18L71.879 575.289C72.1242 595.055 82.9415 613.173 100.224 622.766C141.906 645.904 189.968 654.897 237.196 648.398C256.778 645.703 273.415 632.722 280.791 614.383L299.116 568.817C315.193 528.842 323.232 508.855 339.887 497.451C356.541 486.047 378.083 485.779 421.166 485.245L470.275 484.636C490.04 484.39 508.158 473.573 517.752 456.29C540.889 414.608 549.883 366.546 543.383 319.318C540.688 299.736 527.707 283.099 509.368 275.724L463.802 257.398C423.828 241.321 403.84 233.283 392.436 216.628C381.032 199.973 380.765 178.432 380.23 135.349L379.621 86.2398C379.376 66.4745 368.558 48.356 351.276 38.7627Z" fill="#F3F3F4"/>
</svg>
