<svg width="390" height="664" viewBox="0 0 390 664" fill="none" xmlns="http://www.w3.org/2000/svg">
<path d="M-16.494 216.786C-63.9369 221.465 -108.813 241.617 -143.96 273.825C-158.368 287.029 -164.855 306.935 -160.873 326.067L-150.237 377.159C-141.644 418.437 -137.348 439.077 -144.551 457.524C-151.755 475.971 -168.9 488.238 -203.192 512.771L-242.425 540.84C-258.464 552.314 -267.152 571.508 -265.217 591.134C-260.538 638.577 -240.592 683.286 -208.383 718.433C-195.028 733.006 -174.888 739.306 -155.61 734.941L-107.709 724.095C-65.6865 714.581 -44.6752 709.824 -25.8223 717.035C-6.96948 724.247 5.50309 741.812 30.4482 776.943L58.8823 816.988C70.3264 833.105 89.5291 841.854 109.2 839.914C156.643 835.235 201.289 815.295 236.436 783.086C251.009 769.731 257.309 749.592 252.944 730.313L242.099 682.412C232.584 640.39 227.827 619.378 235.039 600.525C242.25 581.673 259.816 569.2 294.946 544.255L334.991 515.821C351.108 504.377 359.857 485.174 357.917 465.503C353.238 418.06 333.298 373.414 301.089 338.267C287.734 323.694 267.595 317.394 248.316 321.759L200.416 332.605C158.393 342.119 137.382 346.876 118.529 339.665C99.6759 332.453 87.2034 314.888 62.2582 279.757L33.8241 239.712C22.38 223.595 3.17731 214.846 -16.494 216.786Z" fill="#F3F3F4"/>
</svg>
