<svg width="24" height="25" viewBox="0 0 24 25" fill="none" xmlns="http://www.w3.org/2000/svg">
<path d="M16.2401 22.7262C15.8101 22.7262 15.2701 22.5962 14.6001 22.1962L12.3601 20.8662C12.1901 20.7662 11.8101 20.7662 11.6401 20.8662L9.40013 22.1962C7.98013 23.0362 7.12012 22.6862 6.74012 22.4062C6.36012 22.1262 5.76014 21.4062 6.13014 19.8062L6.66014 17.4962C6.70014 17.3162 6.60013 16.9762 6.47013 16.8362L4.61012 14.9762C3.61012 13.9762 3.69012 13.1062 3.83012 12.6662C3.97012 12.2262 4.41012 11.4762 5.80012 11.2362L8.19014 10.8362C8.36014 10.8062 8.63014 10.6062 8.70014 10.4562L10.0201 7.81616C10.6701 6.52616 11.5301 6.32617 11.9901 6.32617C12.4501 6.32617 13.3101 6.51616 13.9601 7.81616L15.2801 10.4562C15.3601 10.6062 15.6301 10.8062 15.7901 10.8362L18.1801 11.2362C19.5701 11.4662 20.0101 12.2262 20.1501 12.6662C20.2901 13.1062 20.3701 13.9762 19.3701 14.9762L17.5101 16.8362C17.3801 16.9662 17.2801 17.3162 17.3201 17.4962L17.8501 19.7962C18.2201 21.4062 17.6301 22.1162 17.2401 22.3962C17.0601 22.5562 16.7201 22.7262 16.2401 22.7262ZM12.0001 19.2962C12.4001 19.2962 12.8001 19.3862 13.1201 19.5762L15.3601 20.9062C15.9501 21.2562 16.3001 21.2562 16.3701 21.1962C16.4501 21.1362 16.5501 20.8062 16.4001 20.1462L15.8701 17.8462C15.7101 17.1662 15.9701 16.2862 16.4601 15.7962L18.3201 13.9362C18.6901 13.5662 18.7701 13.2762 18.7301 13.1462C18.6901 13.0162 18.4601 12.8262 17.9401 12.7462L15.5501 12.3462C14.9101 12.2362 14.2301 11.7362 13.9401 11.1562L12.6201 8.51617C12.3901 8.06617 12.1401 7.85617 11.9901 7.85617C11.8401 7.85617 11.5901 8.05617 11.3601 8.51617L10.0401 11.1562C9.75014 11.7362 9.07013 12.2362 8.43013 12.3462L6.04014 12.7462C5.52014 12.8362 5.29013 13.0162 5.25013 13.1462C5.21013 13.2762 5.29014 13.5662 5.66014 13.9362L7.52012 15.7962C8.01012 16.2862 8.27012 17.1762 8.11012 17.8462L7.58012 20.1562C7.43012 20.8262 7.53012 21.1562 7.61012 21.2062C7.69012 21.2662 8.04013 21.2662 8.62013 20.9162L10.8601 19.5862C11.2001 19.3962 11.6001 19.2962 12.0001 19.2962Z" fill="#EEA811"/>
<path d="M6 9.80664C5.59 9.80664 5.25 9.46664 5.25 9.05664V2.05664C5.25 1.64664 5.59 1.30664 6 1.30664C6.41 1.30664 6.75 1.64664 6.75 2.05664V9.05664C6.75 9.46664 6.41 9.80664 6 9.80664Z" fill="#EEA811"/>
<path d="M18 9.80664C17.59 9.80664 17.25 9.46664 17.25 9.05664V2.05664C17.25 1.64664 17.59 1.30664 18 1.30664C18.41 1.30664 18.75 1.64664 18.75 2.05664V9.05664C18.75 9.46664 18.41 9.80664 18 9.80664Z" fill="#EEA811"/>
<path d="M12 4.80664C11.59 4.80664 11.25 4.46664 11.25 4.05664V2.05664C11.25 1.64664 11.59 1.30664 12 1.30664C12.41 1.30664 12.75 1.64664 12.75 2.05664V4.05664C12.75 4.46664 12.41 4.80664 12 4.80664Z" fill="#F1B739"/>
</svg>
