<svg width="88" height="88" viewBox="0 0 88 88" fill="none" xmlns="http://www.w3.org/2000/svg">
<g clip-path="url(#clip0_77_6899)">
<path d="M16.0305 26.2344V84.4109C16.0305 85.8185 17.1717 86.9597 18.5793 86.9597H32.3855C32.8766 86.9597 33.3573 86.8178 33.7697 86.5511C34.1821 86.2843 34.5086 85.9041 34.71 85.4562C36.353 81.8031 39.9995 79.4425 43.9998 79.4425C48.0001 79.4425 51.6466 81.8031 53.2896 85.4562C53.491 85.9042 53.8176 86.2844 54.2299 86.5511C54.6423 86.8178 55.123 86.9597 55.6142 86.9597H69.4205C70.8281 86.9597 71.9693 85.8185 71.9693 84.4109V26.2344H16.0305Z" fill="#F2F2F2"/>
<path d="M69.4206 0.0566406H55.6143C55.1232 0.0566108 54.6425 0.198496 54.2301 0.465226C53.8177 0.731955 53.4912 1.11216 53.2898 1.56011C51.6468 5.21326 48.0003 7.57365 44 7.57365C39.9997 7.57365 36.3532 5.21309 34.7102 1.55994C34.5087 1.11205 34.1821 0.731907 33.7697 0.465217C33.3573 0.198527 32.8766 0.0566481 32.3855 0.0566406H18.5793C17.1717 0.0566406 16.0305 1.19784 16.0305 2.60547V21.2337H71.9695V2.60547C71.9695 1.19784 70.8283 0.0566406 69.4206 0.0566406Z" fill="#F2F2F2"/>
</g>
<defs>
<clipPath id="clip0_77_6899">
<rect width="87" height="87" fill="white" transform="translate(0.5 0.0566406)"/>
</clipPath>
</defs>
</svg>
