<svg width="24" height="25" viewBox="0 0 24 25" fill="none" xmlns="http://www.w3.org/2000/svg">
<path d="M7.00024 3.80664H17.0002C19.1879 3.80667 20.4409 4.14771 21.175 4.88184C21.9091 5.61601 22.2502 6.869 22.2502 9.05664V15.0566C22.2502 17.2443 21.9091 18.4973 21.175 19.2314C20.4409 19.9656 19.1879 20.3066 17.0002 20.3066H7.00024C4.89507 20.3066 3.65381 19.9852 2.9104 19.3076C2.17876 18.6406 1.81044 17.5172 1.76001 15.5762C1.76012 15.4861 1.79259 15.4217 1.82349 15.3906C1.8804 15.3337 1.94699 15.3066 2.01001 15.3066C3.7985 15.3066 5.25024 13.8404 5.25024 12.0566C5.25024 10.2729 3.7985 8.80666 2.01001 8.80664C1.94896 8.80664 1.8843 8.78347 1.82349 8.72266C1.77432 8.67338 1.75604 8.62139 1.75903 8.56152L1.76001 8.54883C1.80926 6.60065 2.17729 5.474 2.9104 4.80566C3.65381 4.12804 4.89507 3.80664 7.00024 3.80664ZM7.00024 4.30664C6.19568 4.30664 5.51249 4.34032 4.94067 4.4375C4.36822 4.5348 3.87616 4.70031 3.47583 4.98535C2.64583 5.57643 2.37797 6.55287 2.29126 7.84277L2.26196 8.28418L2.69556 8.36719C4.43623 8.70305 5.75024 10.2325 5.75024 12.0566C5.75024 13.8808 4.43623 15.4102 2.69556 15.7461L2.26196 15.8291L2.29126 16.2705C2.37794 17.5648 2.64589 18.5418 3.47681 19.1318C3.87739 19.4163 4.36947 19.5804 4.94165 19.6768C5.51322 19.773 6.19605 19.8066 7.00024 19.8066H17.0002C17.9039 19.8066 18.6591 19.7643 19.2776 19.6338C19.9016 19.5021 20.4229 19.2734 20.8215 18.874C21.2202 18.4746 21.4475 17.9525 21.5784 17.3291C21.708 16.7113 21.7502 15.9576 21.7502 15.0566V9.05664C21.7502 8.15567 21.708 7.40201 21.5784 6.78418C21.4475 6.16076 21.2202 5.6387 20.8215 5.23926C20.4229 4.83986 19.9016 4.61123 19.2776 4.47949C18.6591 4.34893 17.9039 4.30665 17.0002 4.30664H7.00024Z" fill="#0FD263" stroke="#0FD263"/>
<path d="M9 3.80664C9.13386 3.80664 9.25 3.92278 9.25 4.05664V7.55664C9.25 7.6905 9.13386 7.80664 9 7.80664C8.86614 7.80664 8.75 7.6905 8.75 7.55664V4.05664C8.75 3.92278 8.86614 3.80664 9 3.80664Z" fill="#0FD263" stroke="#0FD263"/>
<path d="M9 20.8066C8.59 20.8066 8.25 20.4666 8.25 20.0566V16.5566C8.25 16.1466 8.59 15.8066 9 15.8066C9.41 15.8066 9.75 16.1466 9.75 16.5566V20.0566C9.75 20.4666 9.41 20.8066 9 20.8066Z" fill="#0FD263"/>
<path d="M13.04 15.7062C12.8 15.7062 12.56 15.6262 12.36 15.4862C12 15.2262 11.82 14.7862 11.9 14.3462L12.11 13.1562L11.24 12.3062C10.92 11.9962 10.81 11.5363 10.94 11.1163C11.08 10.6962 11.44 10.3863 11.88 10.3263L13.08 10.1462L13.62 9.05625C13.82 8.65625 14.22 8.40625 14.66 8.40625C15.11 8.40625 15.51 8.65625 15.7 9.05625L16.24 10.1462L17.44 10.3263C17.88 10.3863 18.24 10.6962 18.38 11.1163C18.52 11.5363 18.4 11.9962 18.08 12.3062L17.21 13.1562L17.42 14.3462C17.5 14.7862 17.32 15.2262 16.96 15.4862C16.6 15.7463 16.13 15.7762 15.74 15.5763L14.67 15.0162L13.59 15.5763C13.42 15.6663 13.23 15.7062 13.04 15.7062ZM12.77 11.7062L13.28 12.2062C13.56 12.4762 13.68 12.8562 13.62 13.2362L13.5 13.9362L14.13 13.6062C14.47 13.4262 14.87 13.4262 15.21 13.6062L15.84 13.9362L15.72 13.2362C15.66 12.8463 15.78 12.4662 16.06 12.2062L16.57 11.7062L15.87 11.6062C15.49 11.5462 15.16 11.3062 14.99 10.9662L14.68 10.3263L14.37 10.9662C14.2 11.3062 13.87 11.5462 13.49 11.6062L12.77 11.7062Z" fill="#0FD263"/>
</svg>
