<svg width="27" height="42" viewBox="0 0 27 42" fill="none" xmlns="http://www.w3.org/2000/svg">
<path d="M13.0788 0.326522C12.4454 0.537631 11.9485 1.0346 11.7374 1.66793C11.302 2.97402 11.302 4.38608 11.7374 5.69217C11.9485 6.3255 12.4454 6.82247 13.0788 7.03358C14.3848 7.46894 15.7969 7.46894 17.103 7.03358C17.7363 6.82247 18.2333 6.3255 18.4444 5.69217C18.8798 4.38608 18.8798 2.97402 18.4444 1.66793C18.2333 1.0346 17.7363 0.537631 17.103 0.326522C15.7969 -0.108841 14.3848 -0.108841 13.0788 0.326522Z" fill="#9BA8AF"/>
<path d="M2.56798 40.1174C2.47227 40.5994 2.65831 41.094 3.04799 41.3934L3.19192 41.504C4.21688 42.2916 5.68179 42.1242 6.50273 41.1258C6.62235 40.9803 6.70599 40.8086 6.74685 40.6248L9.85937 26.6184L12.4994 28.6299C13.2777 29.2228 13.6668 29.5193 13.8758 29.9413C14.0848 30.3634 14.0848 30.8526 14.0848 31.8309V40.4162C14.0848 40.7288 14.209 41.0286 14.43 41.2497C15.3506 42.1703 16.8432 42.1703 17.7638 41.2497C17.9849 41.0286 18.1091 40.7288 18.1091 40.4162V31.275C18.1091 29.5746 18.1091 28.7244 17.7837 27.9651C17.4583 27.2059 16.8426 26.6196 15.6113 25.4468L13.8836 23.8015L15.1412 17.6142C16.4491 19.1233 18.0252 20.3641 19.8697 21.3366C21.4861 22.1889 23.2958 22.6678 25.2986 22.7731C25.8245 22.8008 26.3063 22.4979 26.5418 22.0268C26.9332 21.244 26.9332 20.3226 26.5418 19.5397C26.3063 19.0687 25.8241 18.7789 25.2989 18.7397C23.7326 18.6228 22.3169 18.1806 21.0518 17.413C19.5595 16.5075 18.3773 15.3506 17.5054 13.9421L15.4933 10.7227C15.225 10.2532 14.8813 9.86754 14.4621 9.56572C14.0429 9.26391 13.5986 9.02916 13.1291 8.86148C12.6596 8.69381 12.1649 8.62673 11.6451 8.66027C11.1253 8.69381 10.6307 8.81118 10.1612 9.01239L4.89573 11.2541C2.52163 12.2649 1.33458 12.7703 0.66729 13.7796C0 14.7889 0 16.0791 0 18.6594V21.9361C0 22.4627 0.297531 22.9442 0.768549 23.1797C1.55139 23.5711 2.47284 23.5711 3.25569 23.1797C3.7267 22.9442 4.02423 22.4627 4.02423 21.9361V18.707C4.02423 17.3745 4.02423 16.7082 4.37563 16.1946C4.72702 15.6809 5.34798 15.4394 6.5899 14.9564L7.64605 14.5457L2.56798 40.1174Z" fill="#9BA8AF"/>
</svg>
