<svg width="38" height="38" viewBox="0 0 38 38" fill="none" xmlns="http://www.w3.org/2000/svg">
<path d="M8.86667 17.2332C8.20718 17.6729 7.38163 17.7834 6.62969 17.5328C3.56181 16.5102 1.15445 14.1028 0.13182 11.0349C-0.118827 10.283 -0.0082718 9.45742 0.431393 8.79792L0.681195 8.42322C1.32746 7.45383 2.03238 6.52793 2.79117 5.65031L0.326718 3.18586L3.18586 0.326717L5.65031 2.79117C6.52793 2.03238 7.45383 1.32746 8.42322 0.681195L8.79792 0.431393C9.45742 -0.0082718 10.283 -0.118827 11.0349 0.13182C14.1028 1.15445 16.5102 3.56181 17.5328 6.62969C17.7834 7.38163 17.6729 8.20718 17.2332 8.86667L16.9834 9.24138C16.3371 10.2108 15.6322 11.1367 14.8734 12.0143L25.9132 23.0541C26.967 22.1273 28.0835 21.2696 29.2562 20.4878L29.4808 20.3381C29.8465 20.0943 30.3042 20.033 30.7211 20.172C34.1233 21.3061 36.7929 23.9757 37.9269 27.3778C38.0659 27.7948 38.0046 28.2525 37.7608 28.6182L37.6111 28.8427C36.8293 30.0155 35.9717 31.132 35.0449 32.1857L37.5551 34.6959L34.6959 37.5551L32.1857 35.0449C31.132 35.9717 30.0155 36.8293 28.8427 37.6111L28.6182 37.7608C28.2525 38.0046 27.7948 38.0659 27.3778 37.9269C23.9757 36.7929 21.3061 34.1233 20.172 30.7211C20.033 30.3042 20.0943 29.8465 20.3381 29.4808L20.4878 29.2562C21.2696 28.0835 22.1273 26.967 23.0541 25.9132L12.0143 14.8734C11.1367 15.6322 10.2108 16.3371 9.24138 16.9834L8.86667 17.2332Z" fill="white"/>
</svg>
