<svg width="37" height="40" viewBox="0 0 37 40" fill="none" xmlns="http://www.w3.org/2000/svg">
<path fill-rule="evenodd" clip-rule="evenodd" d="M10.3798 2.8C12.8031 0.98249 15.7506 0 18.7798 0H21.6948C25.4811 0 29.1123 1.5041 31.7896 4.1814C33.6192 6.01102 34.9172 8.30349 35.5448 10.8137L35.7713 11.7197C36.4738 14.53 36.4738 17.47 35.7713 20.2803L35.6137 20.9104C34.9593 23.5283 33.7881 25.989 32.169 28.1477L29.406 31.8317C28.9995 32.3737 28.7798 33.0329 28.7798 33.7104V36.3636C28.7798 38.3719 27.1517 40 25.1434 40H15.6078C14.0459 40 12.7798 38.7339 12.7798 37.172V36.1231C12.7798 34.6177 11.7552 33.3054 10.2947 32.9403L8.84685 32.5783C6.45661 31.9808 4.77978 29.8331 4.77978 27.3693V26.169C4.77978 26.0757 4.7041 26 4.61074 26C2.23909 26 1.05327 26 0.456493 25.3276C0.311527 25.1643 0.194292 24.9783 0.109441 24.7771C-0.239866 23.9487 0.271503 22.8788 1.29424 20.739L4.78084 13.4443C4.83254 9.34468 6.78394 5.49688 10.0689 3.03314L10.3798 2.8ZM15.2688 10.3956C16.3346 10.0403 17.4979 10.123 18.5028 10.6254L20.1688 11.4585C20.5535 11.6508 21.0063 11.6508 21.391 11.4585L23.0571 10.6254C24.0619 10.123 25.2252 10.0403 26.291 10.3956L26.3575 10.4178C28.2483 11.048 29.732 12.5317 30.3622 14.4225C30.7468 15.5763 30.608 16.8405 29.9823 17.8833L29.688 18.374C28.0792 21.0553 25.8351 23.2993 23.1538 24.9081L22.7766 25.1344C21.5476 25.8718 20.0122 25.8718 18.7832 25.1344L18.406 24.9081C15.7247 23.2993 13.4806 21.0553 11.8719 18.374L11.5775 17.8833C10.9518 16.8405 10.813 15.5763 11.1976 14.4225C11.8278 12.5317 13.3115 11.048 15.2023 10.4178L15.2688 10.3956Z" fill="#9BA8AF"/>
</svg>
